<?xml version="1.0" encoding="UTF-8"?>
<svg version="1.1" xmlns="http://www.w3.org/2000/svg" width="500" height="500">
<path d="M0 0 C0.84006214 -0.00445784 1.68012428 -0.00891569 2.54564285 -0.01350862 C3.46352459 -0.01332426 4.38140633 -0.01313989 5.32710266 -0.01294994 C6.30618969 -0.01662663 7.28527672 -0.02030332 8.29403305 -0.02409142 C11.58411427 -0.03512927 14.8741639 -0.03897232 18.16426086 -0.04278088 C20.51973572 -0.04904554 22.87520959 -0.05569235 25.23068237 -0.0626936 C32.30662574 -0.08192175 39.38256554 -0.09252294 46.45852852 -0.10142139 C49.79423742 -0.10580821 53.12994482 -0.11117408 56.46565247 -0.11641026 C67.56103689 -0.13342246 78.65642034 -0.14791454 89.7518158 -0.155159 C92.63002015 -0.15706877 95.50822451 -0.15898911 98.38642883 -0.16094494 C99.45942148 -0.16167055 99.45942148 -0.16167055 100.55409074 -0.16241082 C112.13056139 -0.17070331 123.70692846 -0.19602701 135.28335392 -0.22852562 C147.18031112 -0.26165047 159.07721579 -0.27961274 170.97421932 -0.28280324 C177.6491456 -0.28496357 184.3239412 -0.29408873 190.99882507 -0.31926441 C197.28285489 -0.34258241 203.56661368 -0.34676313 209.85067558 -0.33650303 C212.15160461 -0.33600844 214.45254715 -0.342306 216.75343513 -0.35605907 C234.34787219 -0.45530372 248.90716393 0.76401367 262.32441711 13.56390858 C276.91132509 29.24721813 277.3729562 46.1863191 277.26338196 66.61786366 C277.2655316 68.95850302 277.26941488 71.29914132 277.27488708 73.63977528 C277.28452368 79.95557945 277.26935005 86.27109793 277.248981 92.58686757 C277.23311955 98.54074951 277.23465851 104.49460948 277.23553164 110.4485087 C277.23652955 122.24182623 277.21829747 134.03503468 277.18916321 145.82831287 C277.16096302 157.24955703 277.14682333 168.67070531 277.14814758 180.09198475 C277.1482275 180.79628181 277.14830741 181.50057887 277.14838974 182.22621826 C277.14847045 182.9293486 277.14855116 183.63247893 277.14863431 184.35691625 C277.1500863 198.05803427 277.13610149 211.7591031 277.11774111 225.4602077 C277.11348583 229.39799821 277.11205978 233.33578128 277.11126328 237.27357388 C277.10924978 243.46496025 277.09700243 249.65624665 277.076931 255.84759998 C277.07110568 258.11549931 277.06862525 260.38341014 277.06978607 262.65131664 C277.07077299 265.75406577 277.05940271 268.85653813 277.04496765 271.95924854 C277.04806486 272.84982498 277.05116206 273.74040141 277.05435312 274.657965 C276.96915558 285.79752779 274.24189111 294.45490941 268.77754211 304.13422108 C268.40887024 304.80582264 268.04019836 305.4774242 267.66035461 306.16937733 C261.50712014 316.02802672 248.36670428 323.02084687 237.31282043 325.70913792 C231.92850001 326.61191215 226.46162245 326.39184516 221.01777649 326.36127186 C219.63730375 326.36070689 218.25683042 326.36102598 216.87635803 326.36215687 C213.14962451 326.36272803 209.4230211 326.3510122 205.69631767 326.33700895 C201.79391524 326.32446203 197.89150946 326.32332798 193.98908997 326.32095814 C186.6086402 326.31475497 179.22825006 326.29835998 171.84782648 326.27825916 C163.44152151 326.25586384 155.03521362 326.24489761 146.62888622 326.23486829 C129.34507043 326.21399267 112.06131259 326.17883943 94.77754211 326.13422108 C94.93954605 326.90665653 95.10154999 327.67909199 95.26846313 328.47493458 C99.22930527 349.16526836 95.39872965 372.0142743 83.78926086 389.46625233 C74.10304402 402.31224477 60.95754966 411.41747762 45.02754211 414.44672108 C21.02487511 417.4942181 -1.85827905 415.51779726 -21.83573914 401.12250233 C-23.01716492 400.13830311 -23.01716492 400.13830311 -24.22245789 399.13422108 C-24.22245789 398.47422108 -24.22245789 397.81422108 -24.22245789 397.13422108 C-24.88245789 397.13422108 -25.54245789 397.13422108 -26.22245789 397.13422108 C-26.22245789 396.47422108 -26.22245789 395.81422108 -26.22245789 395.13422108 C-26.88245789 395.13422108 -27.54245789 395.13422108 -28.22245789 395.13422108 C-39.58544707 382.37855356 -43.46278866 367.60719221 -43.63583374 350.91466236 C-43.65520119 349.72447282 -43.67456864 348.53428328 -43.69452298 347.30802739 C-43.74461995 344.05983748 -43.78596467 340.81169384 -43.822423 337.56332649 C-43.84647208 335.50153375 -43.87394465 333.43981415 -43.90254343 331.37807977 C-44.31440409 301.62030005 -44.33820421 271.86284291 -44.253649 242.10269284 C-44.24158382 237.85389385 -44.23115717 233.60509165 -44.22090721 229.35628796 C-44.1918857 217.48390587 -44.16057737 205.61153448 -44.12068653 193.73918343 C-44.11819005 192.99464633 -44.11569357 192.25010924 -44.11312143 191.48301042 C-44.11062022 190.73739136 -44.10811901 189.9917723 -44.105542 189.22355872 C-44.10048266 187.71420596 -44.09542794 186.20485317 -44.09037781 184.69550037 C-44.08787093 183.9469152 -44.08536406 183.19833002 -44.08278122 182.42706045 C-44.04216064 170.15527417 -44.01929006 157.88351869 -44.00339917 145.61167798 C-43.98664145 132.87549236 -43.95498955 120.13941345 -43.90851516 107.40330094 C-43.88296328 100.30509065 -43.86366035 93.20699245 -43.8611393 86.10873318 C-43.85872752 79.48162993 -43.83601343 72.85481408 -43.79958344 66.2277956 C-43.78949099 63.80548371 -43.78613046 61.38313267 -43.79011345 58.96080303 C-43.79451706 55.64826555 -43.77431715 52.33672958 -43.74816895 49.02431202 C-43.75524724 48.0753253 -43.76232554 47.12633857 -43.76961833 46.14859468 C-43.6462848 36.94992377 -40.72129081 28.78582916 -35.72245789 21.07172108 C-35.15527039 20.17324451 -34.58808289 19.27476795 -34.00370789 18.34906483 C-32.19068662 16.09471601 -30.88936391 15.1694017 -28.22245789 14.13422108 C-28.22245789 13.47422108 -28.22245789 12.81422108 -28.22245789 12.13422108 C-20.51227319 5.47393387 -10.39293901 0.02567199 0 0 Z M-11.22245789 37.13422108 C-17.96288554 46.21038916 -16.89425037 56.53064646 -16.79008484 67.27142811 C-16.78867296 69.3122857 -16.78946908 71.35314584 -16.79229736 73.39400196 C-16.79372744 78.91205356 -16.76440352 84.42955779 -16.72942758 89.94748259 C-16.69809606 95.72233656 -16.69522797 101.49720415 -16.68930054 107.27213001 C-16.67378209 118.19774345 -16.63278052 129.12310567 -16.58255309 140.04860866 C-16.52659752 152.49113179 -16.49915747 164.93366714 -16.47407591 177.37628484 C-16.42186304 202.96240266 -16.3339595 228.54829777 -16.22245789 254.13422108 C-13.685725 252.77888847 -13.685725 252.77888847 -11.22245789 251.13422108 C-11.22245789 250.47422108 -11.22245789 249.81422108 -11.22245789 249.13422108 C-10.56245789 249.13422108 -9.90245789 249.13422108 -9.22245789 249.13422108 C-9.22245789 248.47422108 -9.22245789 247.81422108 -9.22245789 247.13422108 C-8.56245789 247.13422108 -7.90245789 247.13422108 -7.22245789 247.13422108 C-5.58570281 245.51622606 -5.58570281 245.51622606 -3.90995789 243.44672108 C-1.16141991 240.16700498 1.72879126 237.13793868 4.77754211 234.13422108 C5.75753767 233.155884 6.7366747 232.17668635 7.71504211 231.19672108 C34.77754211 204.13422108 34.77754211 204.13422108 36.29300785 202.86478043 C39.43404644 200.10379672 40.66305635 198.67197469 41.55963135 194.46065235 C41.60395116 193.07847466 41.61607108 191.69501107 41.60151672 190.31219959 C41.61684952 189.55203541 41.63218231 188.79187122 41.64797974 188.00867176 C41.68949645 185.50942532 41.68681401 183.01267638 41.67988586 180.51312733 C41.69155624 178.76726335 41.70456222 177.02140783 41.71884155 175.27556324 C41.74119025 171.62131576 41.74038383 167.96793794 41.7245636 164.31366444 C41.70717535 159.64080115 41.75798007 154.97150409 41.82759762 150.29923058 C41.87189348 146.69498015 41.87441474 143.0915836 41.86506844 139.48710918 C41.86660386 137.76514015 41.88223961 136.04312155 41.9125042 134.32141781 C42.36217931 124.92825142 42.36217931 124.92825142 38.81932068 116.61588001 C36.55175731 114.86437344 34.26483012 113.54227869 31.77754211 112.13422108 C25.81253725 105.99630914 23.30538385 99.06074392 22.40254211 90.63422108 C23.20215078 83.17120686 25.39480167 77.17938032 29.77754211 71.13422108 C29.77754211 70.47422108 29.77754211 69.81422108 29.77754211 69.13422108 C30.33441711 68.88672108 30.89129211 68.63922108 31.46504211 68.38422108 C33.90112923 67.16224345 33.90112923 67.16224345 36.21504211 65.13422108 C42.67933254 60.08892123 51.11478602 59.61681189 59.08613586 60.34515858 C67.4727273 62.1338481 73.80169176 66.2607536 78.58613586 73.26703358 C78.97929993 73.88320545 79.37246399 74.49937733 79.77754211 75.13422108 C80.43754211 76.12422108 81.09754211 77.11422108 81.77754211 78.13422108 C84.90597924 88.21474072 84.57947792 96.57271948 79.77754211 106.13422108 C77.37839831 109.63198271 74.79649091 112.97281274 71.07322311 115.11463737 C69.05919468 116.31083634 67.42547873 117.46450193 65.77754211 119.13422108 C65.0735439 122.26763299 64.85605828 124.37522777 64.93867493 127.50116444 C64.93271805 128.33106388 64.92676117 129.16096333 64.92062378 130.01601124 C64.90853481 132.75304892 64.94498682 135.48726974 64.98066711 138.22406483 C64.97889914 140.13069247 64.97361908 142.03731982 64.96498108 143.94392872 C64.94972314 148.96104428 64.97357338 153.97715372 65.00819397 158.99414539 C65.0586515 167.02007563 65.05701396 175.04596033 65.04178619 183.07199764 C65.04314779 185.87182967 65.06548386 188.67092198 65.09034729 191.4706316 C65.09379252 193.19304767 65.09665157 194.91546505 65.09883118 196.63788319 C65.11126358 197.41261982 65.12369598 198.18735645 65.13650513 198.98556995 C65.11503228 205.40996823 63.55820677 209.31214562 59.09004211 213.88422108 C58.32691711 214.62672108 57.56379211 215.36922108 56.77754211 216.13422108 C56.77754211 216.79422108 56.77754211 217.45422108 56.77754211 218.13422108 C55.90666962 218.51809986 55.90666962 218.51809986 55.01820374 218.90973377 C52.55570603 220.2554511 50.9119159 221.74592922 48.92695618 223.72601795 C48.18649048 224.46017933 47.44602478 225.19434071 46.68312073 225.9507494 C45.89443604 226.74348255 45.10575134 227.53621571 44.29316711 228.35297108 C43.47757324 229.1666515 42.66197937 229.98033192 41.82167053 230.81866932 C40.10121233 232.53776754 38.38327321 234.25939001 36.66767883 235.98334217 C34.03073279 238.63101742 31.38326832 241.26783638 28.73457336 243.90375233 C27.0659627 245.57368408 25.39797226 247.24423585 23.73066711 248.91547108 C22.9338855 249.70820423 22.13710388 250.50093739 21.31617737 251.31769276 C20.58832031 252.05185413 19.86046326 252.78601551 19.11054993 253.5424242 C18.14269562 254.51266529 18.14269562 254.51266529 17.1552887 255.50250721 C15.56249507 257.0329799 15.56249507 257.0329799 15.77754211 259.13422108 C15.11754211 259.13422108 14.45754211 259.13422108 13.77754211 259.13422108 C13.77754211 259.79422108 13.77754211 260.45422108 13.77754211 261.13422108 C13.11754211 261.13422108 12.45754211 261.13422108 11.77754211 261.13422108 C11.77754211 261.79422108 11.77754211 262.45422108 11.77754211 263.13422108 C10.88035461 263.53640858 10.88035461 263.53640858 9.96504211 263.94672108 C7.77906358 265.13339514 6.36421618 266.2302122 4.77754211 268.13422108 C4.77754211 268.79422108 4.77754211 269.45422108 4.77754211 270.13422108 C4.11754211 270.13422108 3.45754211 270.13422108 2.77754211 270.13422108 C2.77754211 270.79422108 2.77754211 271.45422108 2.77754211 272.13422108 C2.11754211 272.13422108 1.45754211 272.13422108 0.77754211 272.13422108 C0.77754211 272.79422108 0.77754211 273.45422108 0.77754211 274.13422108 C0.11754211 274.13422108 -0.54245789 274.13422108 -1.22245789 274.13422108 C-5.93048399 278.42683312 -10.02360653 283.35190651 -14.22245789 288.13422108 C-12.40401396 291.43846675 -10.85780575 293.76648612 -7.72245789 295.88422108 C-7.13464539 296.29156483 -6.54683289 296.69890858 -5.94120789 297.11859608 C1.57607272 301.56062553 14.45121824 300.45500986 22.77754211 299.13422108 C26.9965165 297.33576776 29.679264 294.17049216 31.77754211 290.13422108 C31.77754211 289.47422108 31.77754211 288.81422108 31.77754211 288.13422108 C32.43754211 288.13422108 33.09754211 288.13422108 33.77754211 288.13422108 C33.77754211 287.47422108 33.77754211 286.81422108 33.77754211 286.13422108 C34.33441711 285.90734608 34.89129211 285.68047108 35.46504211 285.44672108 C39.74066088 283.02001853 42.9167103 279.70171735 44.77754211 275.13422108 C45.43754211 275.13422108 46.09754211 275.13422108 46.77754211 275.13422108 C48.41429719 273.51622606 48.41429719 273.51622606 50.09004211 271.44672108 C52.83534417 268.17086626 55.72855803 265.12456191 58.77754211 262.13422108 C62.05358332 258.9102912 65.32294361 255.67971117 68.59004211 252.44672108 C69.47369446 251.57982655 70.3573468 250.71293201 71.26777649 249.81976795 C72.10244446 248.9915453 72.93711243 248.16332264 73.79707336 247.31000233 C74.56124573 246.5563036 75.32541809 245.80260487 76.11274719 245.02606678 C77.99774923 243.30398867 77.99774923 243.30398867 77.77754211 241.13422108 C78.43754211 241.13422108 79.09754211 241.13422108 79.77754211 241.13422108 C79.77754211 240.47422108 79.77754211 239.81422108 79.77754211 239.13422108 C80.43754211 239.13422108 81.09754211 239.13422108 81.77754211 239.13422108 C81.77754211 238.47422108 81.77754211 237.81422108 81.77754211 237.13422108 C82.76754211 236.80422108 83.75754211 236.47422108 84.77754211 236.13422108 C84.77754211 235.47422108 84.77754211 234.81422108 84.77754211 234.13422108 C85.43754211 234.13422108 86.09754211 234.13422108 86.77754211 234.13422108 C89.44793267 230.12863524 88.98025025 226.67728093 88.88691711 222.03656483 C88.86804772 220.12495604 88.85052802 218.21333358 88.83418274 216.30170155 C88.81786804 214.79020527 88.81786804 214.79020527 88.80122375 213.24817371 C88.73707665 204.81332589 88.86096888 196.37835433 88.98506165 187.94452381 C89.0137321 185.7525519 89.03470985 183.56046773 89.04853821 181.36835194 C89.06990682 178.14525294 89.11639271 174.92336352 89.16816711 171.70062733 C89.16939575 170.725658 89.17062439 169.75068867 89.17189026 168.74617481 C89.33883376 161.01830219 91.33511983 157.57664336 96.77754211 152.13422108 C96.77754211 151.47422108 96.77754211 150.81422108 96.77754211 150.13422108 C98.09754211 149.47422108 99.41754211 148.81422108 100.77754211 148.13422108 C100.77754211 147.47422108 100.77754211 146.81422108 100.77754211 146.13422108 C101.43754211 146.13422108 102.09754211 146.13422108 102.77754211 146.13422108 C102.77754211 145.47422108 102.77754211 144.81422108 102.77754211 144.13422108 C103.43754211 144.13422108 104.09754211 144.13422108 104.77754211 144.13422108 C106.44420878 142.80088774 106.44420878 142.80088774 107.77754211 141.13422108 C107.77754211 140.47422108 107.77754211 139.81422108 107.77754211 139.13422108 C108.43754211 139.13422108 109.09754211 139.13422108 109.77754211 139.13422108 C109.77754211 138.47422108 109.77754211 137.81422108 109.77754211 137.13422108 C110.43754211 137.13422108 111.09754211 137.13422108 111.77754211 137.13422108 C111.77754211 136.47422108 111.77754211 135.81422108 111.77754211 135.13422108 C112.43754211 135.13422108 113.09754211 135.13422108 113.77754211 135.13422108 C113.77754211 134.47422108 113.77754211 133.81422108 113.77754211 133.13422108 C114.43754211 133.13422108 115.09754211 133.13422108 115.77754211 133.13422108 C117.51447369 131.3790016 117.51447369 131.3790016 119.27754211 129.19672108 C122.5751252 125.23542954 122.5751252 125.23542954 124.77754211 124.13422108 C124.77754211 123.47422108 124.77754211 122.81422108 124.77754211 122.13422108 C125.43754211 122.13422108 126.09754211 122.13422108 126.77754211 122.13422108 C128.37813505 120.51329515 128.37813505 120.51329515 130.02754211 118.44672108 C133.02075805 114.9154684 136.21813567 112.10039311 139.77754211 109.13422108 C141.65887759 107.09874257 143.46819729 105.016625 145.26191711 102.90375233 C146.77754211 101.13422108 146.77754211 101.13422108 148.77754211 99.13422108 C148.94508593 96.57211586 148.94508593 96.57211586 148.77754211 93.63422108 C148.62175928 82.78134998 150.82795924 72.93804217 158.15254211 64.58343983 C167.36293111 56.36936695 176.85335339 55.45599392 188.65498352 55.93744373 C192.89474053 56.33050149 196.1870213 57.97661453 199.77754211 60.13422108 C201.4394895 60.81256695 203.10353115 61.48621683 204.77754211 62.13422108 C204.77754211 62.79422108 204.77754211 63.45422108 204.77754211 64.13422108 C205.43754211 64.13422108 206.09754211 64.13422108 206.77754211 64.13422108 C207.05469055 64.69238514 207.33183899 65.2505492 207.61738586 65.82562733 C208.40968663 67.40222582 209.21499735 68.97233624 210.03144836 70.53656483 C210.4632843 71.37316639 210.89512024 72.20976795 211.34004211 73.07172108 C211.99166321 74.32275623 211.99166321 74.32275623 212.65644836 75.59906483 C216.36069728 83.97557196 215.47504404 93.47921531 212.64472961 101.97015858 C211.61413777 104.54199588 210.29589371 106.82054245 208.77754211 109.13422108 C208.77754211 109.79422108 208.77754211 110.45422108 208.77754211 111.13422108 C208.11754211 111.13422108 207.45754211 111.13422108 206.77754211 111.13422108 C206.05566711 111.87672108 205.33379211 112.61922108 204.59004211 113.38422108 C198.26885707 119.56493534 191.49088481 121.83496122 182.84004211 122.38422108 C179.12206527 122.28926293 175.65058263 121.57262344 172.05097961 120.66937733 C170.92562805 120.40447498 170.92562805 120.40447498 169.77754211 120.13422108 C168.85126007 119.88229496 167.92497803 119.63036884 166.97062683 119.3708086 C162.77266154 119.05976574 161.62161704 120.15773558 158.41474915 122.81366444 C157.91658534 123.22212258 157.41842154 123.63058073 156.90516186 124.0514164 C155.25994175 125.41855868 153.64533379 126.81563091 152.03535461 128.22406483 C151.47713705 128.70950008 150.91891949 129.19493534 150.34378624 129.69508076 C146.11374709 133.40024604 141.99217414 137.21267478 137.90254211 141.07172108 C137.30514095 141.63091362 136.70773979 142.19010616 136.09223557 142.76624393 C121.27677181 156.72175561 110.24584452 168.88666536 109.2245636 189.89595509 C109.16216105 202.06286399 110.47929449 214.19520735 112.77754211 226.13422108 C114.04340149 226.1574242 115.30926086 226.18062733 116.61347961 226.20453358 C117.32552551 226.21758533 118.03757141 226.23063709 118.77119446 226.24408436 C124.37114936 225.93744288 128.23303376 221.00845114 131.77754211 217.13422108 C131.77754211 216.47422108 131.77754211 215.81422108 131.77754211 215.13422108 C132.43754211 215.13422108 133.09754211 215.13422108 133.77754211 215.13422108 C133.77754211 214.47422108 133.77754211 213.81422108 133.77754211 213.13422108 C134.43754211 213.13422108 135.09754211 213.13422108 135.77754211 213.13422108 C137.488629 211.5131914 139.15007517 209.83918645 140.77754211 208.13422108 C141.54066711 207.41234608 142.30379211 206.69047108 143.09004211 205.94672108 C145.00468162 204.30299835 145.00468162 204.30299835 144.77754211 202.13422108 C145.43754211 202.13422108 146.09754211 202.13422108 146.77754211 202.13422108 C146.77754211 201.47422108 146.77754211 200.81422108 146.77754211 200.13422108 C147.43754211 200.13422108 148.09754211 200.13422108 148.77754211 200.13422108 C150.14364337 198.78044143 150.14364337 198.78044143 151.59394836 196.93890858 C154.86946152 193.08506395 158.33362375 189.50420698 161.92988586 185.95453358 C162.75282639 185.14009785 162.75282639 185.14009785 163.59239197 184.30920887 C165.88446132 182.04421333 168.18065821 179.78348323 170.48091125 177.5267992 C172.17654397 175.86117977 173.86605512 174.18954521 175.55488586 172.51703358 C176.34221352 171.74989536 176.34221352 171.74989536 177.14544678 170.96725941 C178.3944937 169.72704279 179.59156728 168.43488213 180.77754211 167.13422108 C180.77754211 166.47422108 180.77754211 165.81422108 180.77754211 165.13422108 C181.31379211 164.90734608 181.85004211 164.68047108 182.40254211 164.44672108 C184.50341031 163.28571497 186.08457191 162.1134311 187.90254211 160.57172108 C191.67307107 157.37496827 193.2251517 157.00606293 198.05342102 156.92889881 C199.15441132 156.90895359 200.25540161 156.88900837 201.38975525 156.86845875 C203.17885818 156.84339001 203.17885818 156.84339001 205.00410461 156.81781483 C206.22205719 156.79703373 207.44000977 156.77625263 208.69487 156.7548418 C212.59736832 156.68929524 216.49993562 156.63043752 220.40254211 156.57172108 C223.04317434 156.52854072 225.6837995 156.4849266 228.32441711 156.4408617 C234.80871854 156.33360864 241.29308906 156.23185178 247.77754211 156.13422108 C247.894531 141.53912035 247.9826061 126.94408198 248.03660297 112.34860706 C248.0623452 105.57109335 248.09741854 98.79387158 248.15473938 92.0165453 C248.21004534 85.47430999 248.23897663 78.93226387 248.25192833 72.38980579 C248.26115664 69.89555562 248.27917745 67.40132176 248.3061924 64.90720081 C248.34256497 61.40959488 248.34748374 57.91323615 248.34516907 54.41547108 C248.36314545 53.38759983 248.38112183 52.35972858 248.39964294 51.30070972 C248.35371607 44.87407661 247.29661265 39.95342197 242.77754211 35.13422108 C242.11754211 35.13422108 241.45754211 35.13422108 240.77754211 35.13422108 C240.77754211 34.47422108 240.77754211 33.81422108 240.77754211 33.13422108 C234.58419089 29.53707598 230.11280387 28.55542242 223.01029968 28.63301563 C222.05622998 28.62748124 221.10216027 28.62194684 220.11917937 28.61624473 C216.93781135 28.60268439 213.75723413 28.6175826 210.57588196 28.63251209 C208.28889636 28.6287273 206.00191305 28.62322595 203.7149353 28.61613941 C197.51469299 28.60219015 191.31472834 28.61335043 185.11450148 28.62985063 C178.62438207 28.64370937 172.13427865 28.63724023 165.64414978 28.63371754 C154.74781222 28.63101646 143.8515874 28.64439573 132.95527649 28.66766834 C121.74983125 28.69159842 110.54453175 28.69866748 99.33906555 28.68817616 C85.82390815 28.67554495 72.30886266 28.67806051 58.79370499 28.69383526 C53.63513744 28.69959499 48.47661865 28.69951249 43.31805038 28.69476986 C37.245746 28.69000008 31.17364347 28.70010205 25.10137749 28.72172451 C22.87211856 28.727292 20.64284024 28.72775804 18.41357994 28.72277164 C15.37243455 28.71682192 12.33190697 28.72931834 9.29081726 28.74654102 C8.40716031 28.74053098 7.52350337 28.73452093 6.61306894 28.72832876 C-1.10563482 28.80790598 -6.20078311 31.08245917 -11.22245789 37.13422108 Z M170.77754211 82.13422108 C168.91144397 85.62238914 168.28948562 88.48074485 169.42207336 92.31781483 C171.23059864 96.24469242 173.00418837 98.87566757 176.77754211 101.13422108 C181.26244072 101.87805792 185.47298822 101.63383746 189.71504211 100.00922108 C193.37128348 96.68536529 194.60763254 93.49349767 195.21504211 88.63422108 C194.59097987 83.64172313 192.38501285 80.92029967 189.09004211 77.25922108 C181.92329833 73.77269707 175.44958652 75.96607256 170.77754211 82.13422108 Z M44.77754211 86.13422108 C44.44754211 86.46422108 44.11754211 86.79422108 43.77754211 87.13422108 C43.39947024 91.06616861 43.43476991 93.47724101 45.27754211 97.00922108 C48.62625188 99.85562438 51.42338763 100.44585042 55.77754211 100.13422108 C59.39844968 98.55991344 60.57009495 97.44539182 62.77754211 94.13422108 C63.36123655 90.71883964 63.36123655 90.71883964 62.77754211 87.13422108 C60.46480769 84.23702698 60.46480769 84.23702698 57.77754211 82.13422108 C57.44754211 81.80422108 57.11754211 81.47422108 56.77754211 81.13422108 C50.76078325 80.43997967 48.61269931 81.5094727 44.77754211 86.13422108 Z M206.61679077 180.94258595 C200.94929986 180.8163549 197.773298 183.40696278 193.79878235 187.17303944 C191.52361308 189.40440113 189.30380077 191.68575049 187.08613586 193.97406483 C185.8899175 195.18013849 184.69206022 196.38458864 183.49264526 197.58748341 C180.99185189 200.10351136 178.50451307 202.63184325 176.02729797 205.17108631 C172.84659198 208.43128186 169.64440674 211.66925399 166.43340969 214.89959335 C163.37301755 217.97988423 160.3226579 221.07002494 157.27363586 224.16156483 C156.68933744 224.75265474 156.10503902 225.34374466 155.50303459 225.95274639 C153.86036108 227.61847869 152.22490734 229.29095021 150.5917511 230.96600819 C150.10095062 231.46218647 149.61015015 231.95836475 149.10447693 232.46957874 C146.51005326 234.8674842 146.51005326 234.8674842 145.77754211 238.13422108 C145.11754211 238.13422108 144.45754211 238.13422108 143.77754211 238.13422108 C143.77754211 238.79422108 143.77754211 239.45422108 143.77754211 240.13422108 C143.11754211 240.13422108 142.45754211 240.13422108 141.77754211 240.13422108 C141.22066711 240.87672108 140.66379211 241.61922108 140.09004211 242.38422108 C136.87187061 246.21123584 133.45975161 248.80719773 128.44673157 249.41840076 C125.01050435 249.47924886 121.59378197 249.41955086 118.16035461 249.27093983 C113.20720525 249.26906669 113.20720525 249.26906669 108.97846985 251.58197498 C107.83448184 252.91898014 106.73473243 254.29457662 105.67158508 255.69672108 C103.47799065 258.51972273 101.05491806 260.93867876 98.50019836 263.43890858 C97.11284485 264.80789295 97.11284485 264.80789295 95.69746399 266.20453358 C94.25518606 267.62176938 92.81130422 269.03730724 91.3651886 270.45062733 C89.94759408 271.83821109 88.53628306 273.23220526 87.12519836 274.62640858 C86.28996643 275.44480213 85.4547345 276.26319569 84.5941925 277.10638905 C82.55512255 278.92873678 82.55512255 278.92873678 82.77754211 281.13422108 C80.79754211 282.12422108 80.79754211 282.12422108 78.77754211 283.13422108 C78.77754211 283.79422108 78.77754211 284.45422108 78.77754211 285.13422108 C78.11754211 285.13422108 77.45754211 285.13422108 76.77754211 285.13422108 C76.77754211 285.79422108 76.77754211 286.45422108 76.77754211 287.13422108 C76.11754211 287.13422108 75.45754211 287.13422108 74.77754211 287.13422108 C73.11087545 288.46755441 73.11087545 288.46755441 71.77754211 290.13422108 C71.77754211 290.79422108 71.77754211 291.45422108 71.77754211 292.13422108 C71.11754211 292.13422108 70.45754211 292.13422108 69.77754211 292.13422108 C69.77754211 292.79422108 69.77754211 293.45422108 69.77754211 294.13422108 C69.11754211 294.13422108 68.45754211 294.13422108 67.77754211 294.13422108 C66.13287472 296.5974882 66.13287472 296.5974882 64.77754211 299.13422108 C86.41342992 299.22771145 108.04928435 299.29822338 129.68533325 299.34146976 C139.73160052 299.3620846 149.77774219 299.39018462 159.82392883 299.43597889 C168.58139697 299.47587963 177.33877413 299.50166173 186.09633064 299.51057506 C190.73232919 299.51578431 195.3680675 299.52800551 200.00398254 299.5571413 C204.37063149 299.58436157 208.73691386 299.59265275 213.1036396 299.5866518 C214.70318153 299.58774909 216.30273615 299.59566366 217.90220451 299.61104298 C227.80364168 299.70155012 234.81890941 299.43170275 242.59004211 292.69672108 C247.65317902 286.76561785 248.22146873 282.72069368 248.20991516 275.111516 C248.22010681 274.1061681 248.23029846 273.1008202 248.24079895 272.06500721 C248.27094806 268.7481782 248.28019803 265.43163791 248.28926086 262.11468983 C248.30610609 259.81254077 248.32425611 257.51040091 248.34365845 255.20827198 C248.39118134 249.15354762 248.42097608 243.09886059 248.44709778 237.04401112 C248.47689159 230.86371965 248.52342602 224.68355683 248.56855774 218.5033617 C248.65461703 206.38038208 248.72195079 194.25737601 248.77754211 182.13422108 C244.68826202 181.98957674 240.59890753 181.84726588 236.50947571 181.70697498 C235.1227355 181.65908986 233.7360159 181.61060338 232.34931946 181.56146717 C221.67830272 181.11887236 221.67830272 181.11887236 211.00286865 181.09648609 C208.77754211 181.13422108 208.77754211 181.13422108 206.61679077 180.94258595 Z M41.77754211 315.13422108 C40.27158103 316.58639783 38.77292107 318.04614969 37.27754211 319.50922108 C36.44222961 320.32133045 35.60691711 321.13343983 34.74629211 321.97015858 C32.55322925 323.89318698 32.55322925 323.89318698 32.77754211 326.13422108 C32.11754211 326.13422108 31.45754211 326.13422108 30.77754211 326.13422108 C29.14078703 327.7522161 29.14078703 327.7522161 27.46504211 329.82172108 C25.34109527 332.33224402 23.22252868 334.74245529 20.84004211 337.00922108 C18.54538366 338.87985807 18.54538366 338.87985807 18.77754211 341.13422108 C18.11754211 341.13422108 17.45754211 341.13422108 16.77754211 341.13422108 C15.14078703 342.7522161 15.14078703 342.7522161 13.46504211 344.82172108 C11.34109527 347.33224402 9.22252868 349.74245529 6.84004211 352.00922108 C4.54538366 353.87985807 4.54538366 353.87985807 4.77754211 356.13422108 C4.11754211 356.13422108 3.45754211 356.13422108 2.77754211 356.13422108 C0.51541776 358.3993533 0.51541776 358.3993533 -1.22245789 361.13422108 C-0.89245789 362.12422108 -0.56245789 363.11422108 -0.22245789 364.13422108 C7.36754211 364.13422108 14.95754211 364.13422108 22.77754211 364.13422108 C19.17409384 381.33249694 19.17409384 381.33249694 16.65254211 388.19672108 C15.72204821 391.32052203 15.62321634 393.89337987 15.77754211 397.13422108 C19.04055422 396.04655038 19.6559414 395.38355395 21.77754211 392.82172108 C24.02385529 390.15996074 26.30142353 387.54898032 28.67988586 385.00531483 C29.18068665 384.46882313 29.68148743 383.93233143 30.19746399 383.37958241 C31.2018406 382.30718093 32.20961314 381.23794898 33.22090149 380.17206287 C35.94234197 377.58666176 35.94234197 377.58666176 36.77754211 374.13422108 C37.43754211 374.13422108 38.09754211 374.13422108 38.77754211 374.13422108 C38.77754211 373.47422108 38.77754211 372.81422108 38.77754211 372.13422108 C39.43754211 372.13422108 40.09754211 372.13422108 40.77754211 372.13422108 C40.77754211 371.47422108 40.77754211 370.81422108 40.77754211 370.13422108 C41.43754211 370.13422108 42.09754211 370.13422108 42.77754211 370.13422108 C44.25270533 368.47613763 45.65825512 366.75576061 47.02754211 365.00922108 C49.6641485 361.69536039 52.25424527 358.53590117 55.34004211 355.63422108 C58.12659218 353.35815758 58.12659218 353.35815758 57.77754211 350.13422108 C50.18754211 349.80422108 42.59754211 349.47422108 34.77754211 349.13422108 C37.01623392 339.06010793 37.01623392 339.06010793 38.32051086 334.80218983 C38.72366516 333.45157459 38.72366516 333.45157459 39.13496399 332.0736742 C39.69472896 330.21788868 40.25995803 328.36374366 40.83027649 326.5111742 C41.09517883 325.61720936 41.36008118 324.72324451 41.63301086 323.80218983 C41.99882263 322.59985706 41.99882263 322.59985706 42.37202454 321.37323475 C42.81243194 318.94158133 42.55461931 317.45682215 41.77754211 315.13422108 Z " fill="#23D850" transform="translate(134.2224578857422,41.86577892303467)"/>
<path d="M0 0 C5.43134794 4.06881255 10.31373141 9.07586819 12.2578125 15.69140625 C13.80959374 33.82559395 13.80959374 33.82559395 8.2578125 40.69140625 C7.76023437 41.31273437 7.26265625 41.9340625 6.75 42.57421875 C0.83984764 49.14410905 -6.42339144 52.22025239 -15.19140625 52.79296875 C-23.85800544 52.44789742 -31.07587776 48.73890328 -36.9296875 42.44140625 C-43.010708 34.87604216 -43.59136063 27.22367361 -42.7421875 17.69140625 C-41.39928038 10.46874364 -36.75975846 4.60183866 -30.87109375 0.3359375 C-21.62536404 -5.17173375 -9.32513543 -5.4011923 0 0 Z M-21.7421875 19.69140625 C-22.94581334 23.38252551 -23.08637041 24.98739576 -21.3671875 28.50390625 C-19.92278029 30.55946708 -19.92278029 30.55946708 -18.7421875 31.69140625 C-14.92207474 32.05179425 -12.58534665 32.23189288 -9.3046875 30.12890625 C-7.12219078 26.72421137 -7.10484288 24.65710613 -7.7421875 20.69140625 C-10.16665874 17.98985258 -11.72018738 16.86589407 -15.3046875 16.25390625 C-18.3243683 16.79590024 -19.6425099 17.44175167 -21.7421875 19.69140625 Z " fill="#23D750" transform="translate(348.7421875,266.30859375)"/>
<path d="M0 0 C0.33 0 0.66 0 1 0 C1.76173392 4.3164922 2.16063604 7.74433453 1 12 C0.34 12 -0.32 12 -1 12 C-0.99907821 13.17429691 -0.99815641 14.34859383 -0.99720669 15.55847549 C-0.97552286 43.4686944 -0.9590465 71.37891264 -0.94893467 99.28913821 C-0.94768405 102.72856611 -0.94638972 106.167994 -0.94506836 109.60742188 C-0.94480605 110.29211555 -0.94454374 110.97680922 -0.94427348 111.68225119 C-0.93992876 122.75130699 -0.93204781 133.82035757 -0.9228472 144.88941029 C-0.91347732 156.2573929 -0.90801213 167.62537165 -0.90591151 178.99335837 C-0.90460974 185.37430314 -0.90155766 191.75523609 -0.89426994 198.13617706 C-0.88746019 204.14758104 -0.88539311 210.15896836 -0.88689232 216.17037582 C-0.88661822 218.37131465 -0.88464259 220.57225406 -0.88079453 222.77318954 C-0.84529282 244.13448904 -0.84529282 244.13448904 -2 254 C-2.33 254 -2.66 254 -3 254 C-3.06843198 222.50840826 -3.12152602 191.01683766 -3.15319599 159.52518895 C-3.15694813 155.80764537 -3.16083109 152.09010195 -3.16479492 148.37255859 C-3.16558185 147.63245999 -3.16636878 146.89236139 -3.16717956 146.12983556 C-3.18023488 134.14492599 -3.20388942 122.16005956 -3.23145839 110.17517559 C-3.25950908 97.87835437 -3.27617555 85.58155575 -3.28226548 73.28470385 C-3.28638263 65.69635922 -3.29938814 58.10813656 -3.3237494 50.51982947 C-3.34147598 44.70194272 -3.34336646 38.88411863 -3.33932304 33.06620407 C-3.34014958 30.67890674 -3.34613291 28.29160487 -3.35761642 25.90433502 C-3.37251331 22.64824119 -3.36896349 19.3926718 -3.36076355 16.13656616 C-3.36950207 15.18908803 -3.3782406 14.2416099 -3.38724393 13.26542032 C-3.35178861 8.06668958 -2.83458253 4.54020705 0 0 Z " fill="#34C657" transform="translate(94,74)"/>
<path d="M0 0 C0.98071472 0.00007553 1.96142944 0.00015106 2.97186279 0.00022888 C4.02303284 0.00539017 5.07420288 0.01055145 6.15722656 0.01586914 C7.23917297 0.01728409 8.32111938 0.01869904 9.43585205 0.02015686 C12.88988007 0.02575221 16.34384315 0.03830389 19.79785156 0.05102539 C22.14029854 0.05604099 24.48274654 0.06060379 26.82519531 0.06469727 C32.56610287 0.07572012 38.30697257 0.09245365 44.04785156 0.11352539 C44.22476422 13.47384296 44.39072377 26.8342471 44.54262733 40.19487381 C44.61350488 46.3984716 44.68818177 52.60197555 44.77148438 58.80541992 C44.85170855 64.78995572 44.92202727 70.77453283 44.98542404 76.75926971 C45.0113853 79.04469861 45.04094037 81.33008955 45.07411575 83.61542511 C45.11990642 86.81170658 45.15301859 90.00788328 45.18310547 93.2043457 C45.19964676 94.15309067 45.21618805 95.10183563 45.23323059 96.07933044 C45.23889542 96.95148697 45.24456024 97.82364349 45.25039673 98.722229 C45.25961466 99.47809925 45.26883259 100.2339695 45.27832985 101.0127449 C45.0150015 103.41294954 44.23957353 105.03079125 43.04785156 107.11352539 C42.38785156 107.11352539 41.72785156 107.11352539 41.04785156 107.11352539 C41.04785156 108.10352539 41.04785156 109.09352539 41.04785156 110.11352539 C40.38785156 110.11352539 39.72785156 110.11352539 39.04785156 110.11352539 C39.53347816 109.17611008 39.53347816 109.17611008 40.02891541 108.21975708 C41.43968124 103.91903076 41.34792484 99.91307026 41.35083008 95.41381836 C41.36348907 93.95691589 41.36348907 93.95691589 41.37640381 92.47058105 C41.40215872 89.26561995 41.41431589 86.06075088 41.42675781 82.85571289 C41.44293315 80.62801383 41.46011318 78.40032185 41.47825623 76.17263794 C41.52393094 70.3114143 41.55874437 64.45018121 41.5904541 58.58886719 C41.64234366 49.19972214 41.70741137 39.81068116 41.77866936 30.42166519 C41.80153044 27.13836847 41.81778229 23.85508504 41.83338928 20.57174683 C41.84679362 18.56597751 41.86040822 16.56020958 41.87426758 14.55444336 C41.87688095 13.63801056 41.87949432 12.72157776 41.88218689 11.77737427 C41.89253464 10.51990387 41.89253464 10.51990387 41.90309143 9.23703003 C41.9088738 8.14476766 41.9088738 8.14476766 41.91477299 7.03043938 C42.04785156 5.11352539 42.04785156 5.11352539 43.04785156 2.11352539 C37.51603516 2.08865039 31.98425194 2.07058304 26.45239258 2.05859375 C24.57380607 2.05359107 22.69522341 2.04678683 20.81665039 2.03808594 C18.10334317 2.02584112 15.3900878 2.02025628 12.67675781 2.01586914 C11.84825821 2.01070786 11.01975861 2.00554657 10.16615295 2.00022888 C0.43610754 1.70019424 0.43610754 1.70019424 -8.51464844 4.67602539 C-8.98902344 5.15040039 -9.46339844 5.62477539 -9.95214844 6.11352539 C-9.62214844 4.46352539 -9.29214844 2.81352539 -8.95214844 1.11352539 C-5.89587738 0.22239346 -3.17871381 -0.00819256 0 0 Z " fill="#1F622D" transform="translate(339.9521484375,221.886474609375)"/>
<path d="M0 0 C0.66 0.33 1.32 0.66 2 1 C1.93875403 12.10954607 1.86162243 23.21885789 1.76428509 34.3281498 C1.71958347 39.48681701 1.68032677 44.64540528 1.65356445 49.80419922 C1.62752956 54.78399146 1.58712557 59.76347989 1.53681374 64.74308395 C1.52014633 66.64160759 1.50863127 68.54018377 1.50238609 70.43877029 C1.49274369 73.10094193 1.46468281 75.76233657 1.43237305 78.42431641 C1.43380814 79.20690826 1.43524323 79.98950012 1.4367218 80.79580688 C1.29817686 88.88282527 -2.36678528 94.42082092 -8 100 C-9.94456607 101.50362138 -11.88196641 102.73926572 -14 104 C-13.6875 102.0625 -13.6875 102.0625 -13 100 C-11.515 99.505 -11.515 99.505 -10 99 C-10 98.01 -10 97.02 -10 96 C-9.01 96 -8.02 96 -7 96 C-6.67 94.68 -6.34 93.36 -6 92 C-5.34 92 -4.68 92 -4 92 C-4 91.01 -4 90.02 -4 89 C-3.34 89 -2.68 89 -2 89 C-2.00523682 88.29093506 -2.01047363 87.58187012 -2.01586914 86.85131836 C-2.03703356 83.54672176 -2.04978286 80.2421395 -2.0625 76.9375 C-2.07087891 75.82310547 -2.07925781 74.70871094 -2.08789062 73.56054688 C-2.10456063 67.74271464 -1.96833795 61.98962826 -1.53125 56.1875 C-0.72693542 45.16189573 -0.63790107 34.1123697 -0.4375 23.0625 C-0.394203 20.81835312 -0.3505856 18.57421241 -0.30664062 16.33007812 C-0.20073657 10.88678416 -0.09877489 5.44342776 0 0 Z " fill="#2EB34F" transform="translate(199,160)"/>
<path d="M0 0 C0.66 0 1.32 0 2 0 C2.01030746 0.94689697 2.02061493 1.89379395 2.03123474 2.86938477 C2.12919913 11.81436871 2.23195377 20.75928665 2.33933926 29.7041626 C2.39438825 34.30226362 2.44777829 38.90037118 2.49731445 43.49853516 C2.54522529 47.94006559 2.59757562 52.38152398 2.65294075 56.82296753 C2.6732439 58.51331781 2.69197587 60.20368775 2.70907402 61.89407349 C2.73338691 64.2706 2.76340141 66.64699377 2.79467773 69.0234375 C2.8004332 69.71468216 2.80618866 70.40592682 2.81211853 71.11811829 C2.88198387 75.820767 3.35302604 80.3499418 4 85 C3.34 85 2.68 85 2 85 C-0.06159005 77.30412215 -0.35703197 69.99524617 -0.44921875 62.05078125 C-0.47054165 60.70711767 -0.49251193 59.36346423 -0.51509094 58.01982117 C-0.56025009 55.21354025 -0.59908659 52.40726824 -0.63305664 49.60083008 C-0.67638578 46.0453094 -0.73320096 42.49016778 -0.7946043 38.9349184 C-0.84135359 36.16104806 -0.88188613 33.38711262 -0.92057228 30.61311913 C-0.94829029 28.67809785 -0.98013896 26.7431371 -1.01213074 24.80818176 C-1.10597042 16.47612581 -0.71820128 8.30033566 0 0 Z " fill="#32BD53" transform="translate(91,329)"/>
<path d="M0 0 C1.03125 0.04833984 2.0625 0.09667969 3.125 0.14648438 C4.20523438 0.20255859 5.28546875 0.25863281 6.3984375 0.31640625 C7.48640625 0.36861328 8.574375 0.42082031 9.6953125 0.47460938 C12.3882956 0.604534 15.08093086 0.73950787 17.7734375 0.87890625 C17.7734375 1.20890625 17.7734375 1.53890625 17.7734375 1.87890625 C9.1934375 2.20890625 0.6134375 2.53890625 -8.2265625 2.87890625 C-8.2265625 3.53890625 -8.2265625 4.19890625 -8.2265625 4.87890625 C-8.8865625 5.20890625 -9.5465625 5.53890625 -10.2265625 5.87890625 C-10.5565625 6.86890625 -10.8865625 7.85890625 -11.2265625 8.87890625 C-11.8865625 8.87890625 -12.5465625 8.87890625 -13.2265625 8.87890625 C-13.2265625 9.53890625 -13.2265625 10.19890625 -13.2265625 10.87890625 C-14.2165625 11.20890625 -15.2065625 11.53890625 -16.2265625 11.87890625 C-16.5565625 12.86890625 -16.8865625 13.85890625 -17.2265625 14.87890625 C-19.1640625 17.06640625 -19.1640625 17.06640625 -21.2265625 18.87890625 C-21.8865625 18.87890625 -22.5465625 18.87890625 -23.2265625 18.87890625 C-23.3503125 19.80703125 -23.3503125 19.80703125 -23.4765625 20.75390625 C-24.2265625 22.87890625 -24.2265625 22.87890625 -26.2265625 24.00390625 C-26.8865625 24.29265625 -27.5465625 24.58140625 -28.2265625 24.87890625 C-28.5565625 25.53890625 -28.8865625 26.19890625 -29.2265625 26.87890625 C-30.2165625 27.20890625 -31.2065625 27.53890625 -32.2265625 27.87890625 C-33.46187417 29.66840253 -33.46187417 29.66840253 -34.4140625 31.81640625 C-34.75824219 32.52667969 -35.10242188 33.23695313 -35.45703125 33.96875 C-36.35112212 35.84486921 -36.35112212 35.84486921 -36.2265625 37.87890625 C-36.8865625 37.87890625 -37.5465625 37.87890625 -38.2265625 37.87890625 C-38.2265625 38.53890625 -38.2265625 39.19890625 -38.2265625 39.87890625 C-39.8765625 39.87890625 -41.5265625 39.87890625 -43.2265625 39.87890625 C-42.82487063 34.98758645 -40.44428244 32.56718882 -37.0546875 29.31640625 C-36.53525574 28.80263428 -36.01582397 28.2888623 -35.48065186 27.75952148 C-33.8218058 26.12298728 -32.1496255 24.50089072 -30.4765625 22.87890625 C-29.36626957 21.78869447 -28.25688448 20.6975573 -27.1484375 19.60546875 C-25.09834894 17.58794317 -23.04303107 15.57608559 -20.98144531 13.5703125 C-19.13602098 11.76740947 -17.30166796 9.95310793 -15.47827148 8.12792969 C-6.99434888 -0.3458744 -6.99434888 -0.3458744 0 0 Z " fill="#259A3E" transform="translate(332.2265625,198.12109375)"/>
<path d="M0 0 C0.33 0.66 0.66 1.32 1 2 C1.99 2 2.98 2 4 2 C3.67 5.3 3.34 8.6 3 12 C2.34 12 1.68 12 1 12 C1 10.02 1 8.04 1 6 C-0.31554021 7.28857013 -1.62734097 8.58095891 -2.9375 9.875 C-3.66839844 10.59429687 -4.39929688 11.31359375 -5.15234375 12.0546875 C-7.05667999 13.87027192 -7.05667999 13.87027192 -8 16 C-8.66 16 -9.32 16 -10 16 C-10.38671875 16.87398438 -10.38671875 16.87398438 -10.78125 17.765625 C-12.09834017 20.1802903 -13.55088384 21.81740177 -15.5 23.75 C-16.41265625 24.67039062 -16.41265625 24.67039062 -17.34375 25.609375 C-19 27 -19 27 -21 27 C-20.67 24.69 -20.34 22.38 -20 20 C-19.071875 19.7525 -18.14375 19.505 -17.1875 19.25 C-13.83541675 17.93545755 -12.8122197 17.02036616 -11 14 C-11.66 14 -12.32 14 -13 14 C-12.67 12.68 -12.34 11.36 -12 10 C-10.35 10.33 -8.7 10.66 -7 11 C-7 10.34 -7 9.68 -7 9 C-6.34 9 -5.68 9 -5 9 C-5.33 7.02 -5.66 5.04 -6 3 C-5.34 3 -4.68 3 -4 3 C-4 3.66 -4 4.32 -4 5 C-3.01 5 -2.02 5 -1 5 C-0.67 3.35 -0.34 1.7 0 0 Z " fill="#27B84B" transform="translate(175,352)"/>
<path d="M0 0 C0.66 0.33 1.32 0.66 2 1 C1.67 2.65 1.34 4.3 1 6 C0.01 6 -0.98 6 -2 6 C-2 6.99 -2 7.98 -2 9 C-2.66 9 -3.32 9 -4 9 C-4.33 9.99 -4.66 10.98 -5 12 C-5.66 11.67 -6.32 11.34 -7 11 C-7.0825 11.928125 -7.165 12.85625 -7.25 13.8125 C-8 17 -8 17 -10.01275635 18.40827942 C-12.18729812 19.81749568 -12.18729812 19.81749568 -12.51898193 22.14506531 C-12.52786438 22.97335342 -12.53674683 23.80164154 -12.54589844 24.6550293 C-12.56561707 25.59577805 -12.58533569 26.53652679 -12.60565186 27.50578308 C-12.60688049 28.51836685 -12.60810913 29.53095062 -12.609375 30.57421875 C-12.62591125 31.61318802 -12.64244751 32.65215729 -12.65948486 33.72261047 C-12.70810857 37.04429958 -12.72936814 40.36553042 -12.75 43.6875 C-12.77814758 45.93817428 -12.80807329 48.18882707 -12.83984375 50.43945312 C-12.9138711 55.95955182 -12.96542926 61.47952087 -13 67 C-13.66 66.67 -14.32 66.34 -15 66 C-14.95830241 59.13107071 -14.88594801 52.26294981 -14.79248047 45.39453125 C-14.76429071 43.05899355 -14.7430663 40.7233608 -14.72900391 38.38769531 C-14.70754754 35.02619841 -14.66088094 31.66584193 -14.609375 28.3046875 C-14.60814636 27.26384003 -14.60691772 26.22299255 -14.60565186 25.15060425 C-14.48383568 19.09295568 -13.95356855 15.6556646 -10 11 C-9.34 10.13375 -8.68 9.2675 -8 8.375 C-6.09238842 6.10971125 -4.20186766 3.9816809 -2 2 C-1.34 2 -0.68 2 0 2 C0 1.34 0 0.68 0 0 Z " fill="#289D43" transform="translate(237,186)"/>
<path d="M0 0 C0 0.99 0 1.98 0 3 C-0.66 3.66 -1.32 4.32 -2 5 C-2 5.99 -2 6.98 -2 8 C-3.609375 10.6640625 -3.609375 10.6640625 -5.75 13.625 C-6.44609375 14.60726563 -7.1421875 15.58953125 -7.859375 16.6015625 C-10.08682695 19.09728422 -10.83407963 19.50116801 -14 20 C-14.99 21.0209375 -14.99 21.0209375 -16 22.0625 C-18 24 -18 24 -22 24 C-22 23.34 -22 22.68 -22 22 C-21.34 22 -20.68 22 -20 22 C-19.61328125 21.12601562 -19.61328125 21.12601562 -19.21875 20.234375 C-17.90165983 17.8197097 -16.44911616 16.18259823 -14.5 14.25 C-13.8915625 13.63640625 -13.283125 13.0228125 -12.65625 12.390625 C-11 11 -11 11 -9 11 C-8.74476563 10.41734375 -8.48953125 9.8346875 -8.2265625 9.234375 C-6.88258913 6.78611777 -5.38189704 5.18256752 -3.375 3.25 C-2.74335938 2.63640625 -2.11171875 2.0228125 -1.4609375 1.390625 C-0.73777344 0.70226562 -0.73777344 0.70226562 0 0 Z " fill="#26B244" transform="translate(147,267)"/>
<path d="M0 0 C0.99 0.33 1.98 0.66 3 1 C3.05020245 6.26121702 3.08609045 11.52228846 3.10986328 16.78369141 C3.11979494 18.56594274 3.1333448 20.34817834 3.15087891 22.13037109 C3.26079878 33.60729866 2.76931387 44.64607154 1 56 C0.67 56 0.34 56 0 56 C0 37.52 0 19.04 0 0 Z " fill="#34BF58" transform="translate(245,212)"/>
<path d="M0 0 C0.66 0 1.32 0 2 0 C2 1.32 2 2.64 2 4 C1.34 4 0.68 4 0 4 C0 37 0 70 0 104 C-0.33 104 -0.66 104 -1 104 C-1.023131 90.73539664 -1.04091897 77.47079805 -1.05181217 64.20617867 C-1.05703933 58.04743871 -1.06413398 51.88871251 -1.07543945 45.72998047 C-1.08627422 39.79075866 -1.0922781 33.85155011 -1.09487724 27.91231918 C-1.09673042 25.64202541 -1.100349 23.3717324 -1.10573006 21.10144424 C-1.11294828 17.93105732 -1.11399061 14.7607258 -1.11352539 11.59033203 C-1.11712067 10.64374725 -1.12071594 9.69716248 -1.12442017 8.72189331 C-1.1230455 7.86090027 -1.12167084 6.99990723 -1.12025452 6.11282349 C-1.12117631 5.362484 -1.1220981 4.61214451 -1.12304783 3.83906746 C-1 2 -1 2 0 0 Z " fill="#39A652" transform="translate(92,78)"/>
<path d="M0 0 C0.98071472 0.00007553 1.96142944 0.00015106 2.97186279 0.00022888 C4.02303284 0.00539017 5.07420288 0.01055145 6.15722656 0.01586914 C7.23917297 0.01728409 8.32111938 0.01869904 9.43585205 0.02015686 C12.88988007 0.02575221 16.34384315 0.03830389 19.79785156 0.05102539 C22.14029854 0.05604099 24.48274654 0.06060379 26.82519531 0.06469727 C32.56610287 0.07572012 38.30697257 0.09245365 44.04785156 0.11352539 C44.04785156 0.77352539 44.04785156 1.43352539 44.04785156 2.11352539 C42.85297119 2.10828857 41.65809082 2.10305176 40.42700195 2.09765625 C35.95972453 2.07944589 31.49245033 2.06803517 27.02514648 2.05859375 C25.09805752 2.05359 23.17097231 2.04678494 21.24389648 2.03808594 C18.4610908 2.02584591 15.67833567 2.02025735 12.89550781 2.01586914 C12.04513443 2.01070786 11.19476105 2.00554657 10.31861877 2.00022888 C0.51110429 1.68802613 0.51110429 1.68802613 -8.51464844 4.67602539 C-8.98902344 5.15040039 -9.46339844 5.62477539 -9.95214844 6.11352539 C-9.62214844 4.46352539 -9.29214844 2.81352539 -8.95214844 1.11352539 C-5.89587738 0.22239346 -3.17871381 -0.00819256 0 0 Z " fill="#277A3B" transform="translate(339.9521484375,221.886474609375)"/>
<path d="M0 0 C0.55945313 0.3609375 1.11890625 0.721875 1.6953125 1.09375 C1.6953125 2.08375 1.6953125 3.07375 1.6953125 4.09375 C-1.68492267 4.09375 -4.13937687 3.21919378 -7.3046875 2.09375 C-7.3046875 0.77375 -7.3046875 -0.54625 -7.3046875 -1.90625 C-9.91047616 -1.81929042 -12.5128154 -1.71243592 -15.1171875 -1.59375 C-15.85517578 -1.57119141 -16.59316406 -1.54863281 -17.35351562 -1.52539062 C-21.53842306 -1.41505167 -21.53842306 -1.41505167 -25.0546875 0.59375 C-25.4671875 1.08875 -25.8796875 1.58375 -26.3046875 2.09375 C-28.97787608 2.76332496 -31.54293787 2.86737708 -34.3046875 3.09375 C-25.89947986 -7.06254256 -10.4912167 -6.07208684 0 0 Z " fill="#32B94F" transform="translate(349.3046875,266.90625)"/>
<path d="M0 0 C2.475 0.495 2.475 0.495 5 1 C3.9332605 1.82226074 3.9332605 1.82226074 2.8449707 2.66113281 C-0.11584735 5.09523879 -2.82778706 7.70102304 -5.51953125 10.421875 C-6.27468269 11.17914886 -6.27468269 11.17914886 -7.04508972 11.95172119 C-8.63661073 13.54879468 -10.22459984 15.14932724 -11.8125 16.75 C-12.89755402 17.84007517 -13.98283826 18.92992123 -15.06835938 20.01953125 C-17.71490847 22.67704625 -20.35829796 25.3376671 -23 28 C-24 25 -24 25 -23.0625 22.8125 C-22.5365625 21.9153125 -22.5365625 21.9153125 -22 21 C-20.68 21 -19.36 21 -18 21 C-17.67 20.01 -17.34 19.02 -17 18 C-16.34 18 -15.68 18 -15 18 C-14.67 16.35 -14.34 14.7 -14 13 C-12.02 12.34 -10.04 11.68 -8 11 C-8 9.68 -8 8.36 -8 7 C-7.05125 6.773125 -6.1025 6.54625 -5.125 6.3125 C-1.80676612 5.30916286 -1.80676612 5.30916286 -0.625 2.375 C-0.315625 1.199375 -0.315625 1.199375 0 0 Z " fill="#26A645" transform="translate(296,159)"/>
<path d="M0 0 C1 2 1 2 0.5 3.9375 C-0.23602403 6.17665424 -0.23602403 6.17665424 1 9 C-1.31 9.33 -3.62 9.66 -6 10 C-6.33 10.99 -6.66 11.98 -7 13 C-8.59375 14.31640625 -8.59375 14.31640625 -10.5 15.5625 C-13.25536594 17.31619395 -13.25536594 17.31619395 -15 20 C-15.66 20 -16.32 20 -17 20 C-17 20.66 -17 21.32 -17 22 C-17.99 22 -18.98 22 -20 22 C-20 21.34 -20 20.68 -20 20 C-19.34 20 -18.68 20 -18 20 C-18 19.34 -18 18.68 -18 18 C-17.34 18 -16.68 18 -16 18 C-15.773125 17.443125 -15.54625 16.88625 -15.3125 16.3125 C-13.62449964 13.33840412 -11.53323483 11.27991135 -9 9 C-8.34 9 -7.68 9 -7 9 C-7 8.34 -7 7.68 -7 7 C-6.34 7 -5.68 7 -5 7 C-4.731875 6.401875 -4.46375 5.80375 -4.1875 5.1875 C-3.01506533 3.02775192 -1.80630718 1.64209744 0 0 Z " fill="#269642" transform="translate(266,157)"/>
<path d="M0 0 C5.49895013 5.6885691 7.13405489 12.76785238 7.375 20.5 C7.15913084 27.74703597 5.62052852 34.31817361 1 40 C0.3125 37.6875 0.3125 37.6875 0 35 C1.375 33.4375 1.375 33.4375 3 32 C5.27484702 25.72508642 5.19239672 15.58239713 3.10546875 9.3125 C2.13647071 7.50461672 1.07502579 5.74691691 0 4 C0 2.68 0 1.36 0 0 Z " fill="#2EAC4A" transform="translate(343,110)"/>
<path d="M0 0 C0.103125 0.639375 0.20625 1.27875 0.3125 1.9375 C0.539375 2.618125 0.76625 3.29875 1 4 C1.99 4.33 2.98 4.66 4 5 C4.33 5.99 4.66 6.98 5 8 C4.01 8.495 4.01 8.495 3 9 C3.61022291 14.79012933 3.61022291 14.79012933 6 20 C6.66 20.33 7.32 20.66 8 21 C8.625 23.0625 8.625 23.0625 9 25 C8.01 25 7.02 25 6 25 C4.6484375 23.390625 4.6484375 23.390625 3.375 21.25 C2.94960938 20.55390625 2.52421875 19.8578125 2.0859375 19.140625 C-0.10455849 14.82266888 -0.11067832 11.06783245 -0.0625 6.25 C-0.05347656 5.07953125 -0.04445313 3.9090625 -0.03515625 2.703125 C-0.02355469 1.81109375 -0.01195312 0.9190625 0 0 Z " fill="#279843" transform="translate(306,284)"/>
<path d="M0 0 C2.475 0.99 2.475 0.99 5 2 C5 3.65 5 5.3 5 7 C5.804375 7.268125 6.60875 7.53625 7.4375 7.8125 C8.283125 8.204375 9.12875 8.59625 10 9 C10.33 9.99 10.66 10.98 11 12 C10.34 12.66 9.68 13.32 9 14 C8.34 12.68 7.68 11.36 7 10 C6.34 10 5.68 10 5 10 C5 9.34 5 8.68 5 8 C4.113125 7.7525 3.22625 7.505 2.3125 7.25 C-1.10427135 5.96065232 -3.2797748 4.40019871 -6 2 C-4.02 2 -2.04 2 0 2 C0 1.34 0 0.68 0 0 Z " fill="#29C552" transform="translate(370,67)"/>
<path d="M0 0 C3.17311044 0.49579851 6.01871129 1.34249207 9 2.5 C14.03790513 4.42820384 17.65629224 5.37409628 23 4 C23 4.66 23 5.32 23 6 C23.99 6.33 24.98 6.66 26 7 C17.29235133 8.5377337 9.93203982 7.71789172 2.375 2.875 C1.59125 2.25625 0.8075 1.6375 0 1 C0 0.67 0 0.34 0 0 Z " fill="#28A644" transform="translate(315,311)"/>
<path d="M0 0 C2.875 -0.125 2.875 -0.125 6 0 C6.66 0.66 7.32 1.32 8 2 C6.625 4 6.625 4 5 6 C4.34 6 3.68 6 3 6 C3 6.66 3 7.32 3 8 C2.34 8 1.68 8 1 8 C0.731875 8.61875 0.46375 9.2375 0.1875 9.875 C-1 12 -1 12 -4 14 C-4 12.35 -4 10.7 -4 9 C-3.34 9 -2.68 9 -2 9 C-2 8.34 -2 7.68 -2 7 C-1.01 7 -0.02 7 1 7 C1 5.68 1 4.36 1 3 C0.34 3 -0.32 3 -1 3 C-0.67 2.01 -0.34 1.02 0 0 Z " fill="#27D152" transform="translate(275,274)"/>
<path d="M0 0 C0.33 0.99 0.66 1.98 1 3 C-2.74890616 10.21664436 -7.51619573 16.1371468 -14 21 C-14 19.68 -14 18.36 -14 17 C-13.01 17 -12.02 17 -11 17 C-11 16.01 -11 15.02 -11 14 C-10.34 14 -9.68 14 -9 14 C-9 13.01 -9 12.02 -9 11 C-8.01 11 -7.02 11 -6 11 C-6 9.35 -6 7.7 -6 6 C-5.34 6 -4.68 6 -4 6 C-4 5.34 -4 4.68 -4 4 C-3.34 4 -2.68 4 -2 4 C-2 3.01 -2 2.02 -2 1 C-1.34 0.67 -0.68 0.34 0 0 Z " fill="#2AB14C" transform="translate(223,419)"/>
<path d="M0 0 C0.66 0 1.32 0 2 0 C2 1.65 2 3.3 2 5 C5.96 5 9.92 5 14 5 C14 5.66 14 6.32 14 7 C16.97 7 19.94 7 23 7 C23 7.33 23 7.66 23 8 C15.41 8 7.82 8 0 8 C-0.92538169 4.29847322 -1.08174162 3.36541838 0 0 Z " fill="#3BCB5F" transform="translate(169,384)"/>
<path d="M0 0 C0.99 0.33 1.98 0.66 3 1 C1.41332422 4.90285767 -1.13350481 7.33520982 -4.125 10.25 C-5.03507813 11.14203125 -5.94515625 12.0340625 -6.8828125 12.953125 C-7.58148438 13.62859375 -8.28015625 14.3040625 -9 15 C-9.33 14.01 -9.66 13.02 -10 12 C-9.67 11.34 -9.34 10.68 -9 10 C-8.64386903 8.33805547 -8.30791692 6.671549 -8 5 C-5.03 5.495 -5.03 5.495 -2 6 C-2 5.34 -2 4.68 -2 4 C-1.34 4 -0.68 4 0 4 C-0.33 3.01 -0.66 2.02 -1 1 C-0.67 0.67 -0.34 0.34 0 0 Z " fill="#2AAD4C" transform="translate(258,196)"/>
<path d="M0 0 C1.98 0 3.96 0 6 0 C6.36419791 4.73457279 5.37214077 8.17146145 3.80078125 12.54296875 C2.47476734 16.61156753 1.74661746 20.79259102 1 25 C-0.67812742 22.45554687 -1.05113345 21.32837993 -0.57421875 18.265625 C-0.28160156 17.27046875 0.01101562 16.2753125 0.3125 15.25 C1.63885872 10.46102338 2.52494667 5.94055465 3 1 C2.01 0.67 1.02 0.34 0 0 Z " fill="#2CA349" transform="translate(151,406)"/>
<path d="M0 0 C8.54869091 1.9470988 17.97184904 5.45777356 23 13 C17.48876404 12.38764045 17.48876404 12.38764045 15.1875 10.5625 C14 9 14 9 13 7 C11.33638883 6.50091665 9.66974515 6.00938021 7.98828125 5.57421875 C4.85773392 4.67011176 1.97007285 3.33350209 -1 2 C-0.67 1.34 -0.34 0.68 0 0 Z " fill="#2B9F45" transform="translate(373,43)"/>
<path d="M0 0 C1.4606285 2.64738916 2 3.89448334 2 7 C0.9171875 7.061875 0.9171875 7.061875 -0.1875 7.125 C-3.29398277 7.81120263 -3.29398277 7.81120263 -5.4375 10.9375 C-8.21811917 14.26067901 -9.85797957 15.03673943 -14 16 C-12.8829081 12.98385187 -11.3874224 11.35491331 -8.9375 9.375 C-5.99175287 7.32880603 -5.99175287 7.32880603 -5 5 C-4.34 5 -3.68 5 -3 5 C-3 4.34 -3 3.68 -3 3 C-2.34 3 -1.68 3 -1 3 C-0.67 2.01 -0.34 1.02 0 0 Z " fill="#27AF48" transform="translate(284,239)"/>
<path d="M0 0 C1.03125 0.04833984 2.0625 0.09667969 3.125 0.14648438 C4.74535156 0.2305957 4.74535156 0.2305957 6.3984375 0.31640625 C7.48640625 0.36861328 8.574375 0.42082031 9.6953125 0.47460938 C12.3882956 0.604534 15.08093086 0.73950787 17.7734375 0.87890625 C17.7734375 1.20890625 17.7734375 1.53890625 17.7734375 1.87890625 C9.1934375 2.20890625 0.6134375 2.53890625 -8.2265625 2.87890625 C-8.2265625 3.53890625 -8.2265625 4.19890625 -8.2265625 4.87890625 C-9.2165625 5.37390625 -9.2165625 5.37390625 -10.2265625 5.87890625 C-10.5565625 6.86890625 -10.8865625 7.85890625 -11.2265625 8.87890625 C-11.8865625 8.87890625 -12.5465625 8.87890625 -13.2265625 8.87890625 C-13.2265625 9.53890625 -13.2265625 10.19890625 -13.2265625 10.87890625 C-14.2165625 10.87890625 -15.2065625 10.87890625 -16.2265625 10.87890625 C-14.85966696 7.72821203 -13.36998365 5.86998851 -10.7265625 3.69140625 C-10.118125 3.18222656 -9.5096875 2.67304688 -8.8828125 2.1484375 C-5.76194845 -0.24373423 -3.87010335 -0.19137874 0 0 Z " fill="#23B644" transform="translate(332.2265625,198.12109375)"/>
<path d="M0 0 C1.32 0 2.64 0 4 0 C2.125 4.75 2.125 4.75 1 7 C0.27530518 6.84152588 -0.44938965 6.68305176 -1.19604492 6.51977539 C-3.78951662 6.03901777 -6.2319784 5.80242678 -8.86328125 5.68359375 C-9.74951172 5.64169922 -10.63574219 5.59980469 -11.54882812 5.55664062 C-12.46083984 5.51732422 -13.37285156 5.47800781 -14.3125 5.4375 C-15.70952148 5.37272461 -15.70952148 5.37272461 -17.13476562 5.30664062 C-19.42304454 5.20102775 -21.71142372 5.09892248 -24 5 C-24 4.67 -24 4.34 -24 4 C-23.06933716 3.97812622 -23.06933716 3.97812622 -22.11987305 3.95581055 C-19.30845367 3.88133412 -16.49822251 3.78467436 -13.6875 3.6875 C-12.71103516 3.66494141 -11.73457031 3.64238281 -10.72851562 3.61914062 C-9.79072266 3.58369141 -8.85292969 3.54824219 -7.88671875 3.51171875 C-6.59060669 3.47244263 -6.59060669 3.47244263 -5.26831055 3.43237305 C-2.54559005 2.91338284 -1.89571169 1.92646854 0 0 Z " fill="#1A9030" transform="translate(160,337)"/>
<path d="M0 0 C-0.309375 0.556875 -0.61875 1.11375 -0.9375 1.6875 C-2.05761821 4.12540433 -2.56037364 6.36224186 -3 9 C-3.66 9 -4.32 9 -5 9 C-5 9.66 -5 10.32 -5 11 C-6.65 11 -8.3 11 -10 11 C-9.72712269 6.36108575 -7.70642674 4.2649533 -4.5703125 1.13671875 C-3 0 -3 0 0 0 Z " fill="#2CD654" transform="translate(299,227)"/>
<path d="M0 0 C0.66 0 1.32 0 2 0 C1.67 0.99 1.34 1.98 1 3 C0.34 3 -0.32 3 -1 3 C-1.061875 4.216875 -1.12375 5.43375 -1.1875 6.6875 C-1.72840559 11.17383464 -3.45616799 13.14764741 -7 16 C-7.66 16.33 -8.32 16.66 -9 17 C-9.33 16.01 -9.66 15.02 -10 14 C-7.7971351 9.59427019 -5.3281653 5.66098183 -2 2 C-1.34 2 -0.68 2 0 2 C0 1.34 0 0.68 0 0 Z " fill="#2CA445" transform="translate(106,54)"/>
<path d="M0 0 C0.66 0.33 1.32 0.66 2 1 C0.25 4.875 0.25 4.875 -2 6 C-2.268125 6.94875 -2.53625 7.8975 -2.8125 8.875 C-4 12 -4 12 -6.375 13.9375 C-9.19975164 15.08085185 -10.22856087 15.12910483 -13 14 C-11.38405168 11.95880212 -9.7143618 9.95927063 -8 8 C-7.34 8 -6.68 8 -6 8 C-6 7.34 -6 6.68 -6 6 C-4.37550757 4.29220027 -2.70779973 2.62449243 -1 1 C-0.67 0.67 -0.34 0.34 0 0 Z " fill="#2EC650" transform="translate(174,322)"/>
<path d="M0 0 C0.66 0.99 1.32 1.98 2 3 C1.67 3.99 1.34 4.98 1 6 C0.93062938 8.22818441 0.91542916 10.45834524 0.9375 12.6875 C0.95103516 14.45673828 0.95103516 14.45673828 0.96484375 16.26171875 C0.97644531 17.16535156 0.98804688 18.06898438 1 19 C1.66 19 2.32 19 3 19 C3 20.65 3 22.3 3 24 C2.34 24.33 1.68 24.66 1 25 C-2.07336954 15.90794846 -2.60037463 9.26383463 0 0 Z " fill="#2B873B" transform="translate(158,121)"/>
<path d="M0 0 C0.66 0.33 1.32 0.66 2 1 C2 1.99 2 2.98 2 4 C1.34 4 0.68 4 0 4 C-0.33 4.99 -0.66 5.98 -1 7 C-1.66 7 -2.32 7 -3 7 C-3 7.66 -3 8.32 -3 9 C-3.66 9 -4.32 9 -5 9 C-5 9.66 -5 10.32 -5 11 C-5.66 11 -6.32 11 -7 11 C-7.66 12.32 -8.32 13.64 -9 15 C-9.66 15 -10.32 15 -11 15 C-10.67 13.68 -10.34 12.36 -10 11 C-9.34 11 -8.68 11 -8 11 C-8 10.01 -8 9.02 -8 8 C-7.34 8 -6.68 8 -6 8 C-5.34 6.35 -4.68 4.7 -4 3 C-3.01 3.33 -2.02 3.66 -1 4 C-0.67 2.68 -0.34 1.36 0 0 Z " fill="#27A146" transform="translate(209,325)"/>
<path d="M0 0 C0.66 0 1.32 0 2 0 C0.38989473 4.07376031 -2.53822271 6.76507069 -5.625 9.75 C-6.140625 10.25660156 -6.65625 10.76320313 -7.1875 11.28515625 C-8.45383339 12.52803902 -9.7263144 13.76465276 -11 15 C-11.33 13.68 -11.66 12.36 -12 11 C-11.34 11 -10.68 11 -10 11 C-9.67 9.68 -9.34 8.36 -9 7 C-7.68 7 -6.36 7 -5 7 C-5 5.35 -5 3.7 -5 2 C-3.68 2.33 -2.36 2.66 -1 3 C-0.67 2.01 -0.34 1.02 0 0 Z " fill="#2EB54F" transform="translate(295,260)"/>
<path d="M0 0 C0.66 0 1.32 0 2 0 C2 1.32 2 2.64 2 4 C1.34 4 0.68 4 0 4 C0 16.87 0 29.74 0 43 C-0.33 43 -0.66 43 -1 43 C-1.02467332 37.19759432 -1.04284724 31.39521902 -1.05493164 25.59277344 C-1.0599681 23.61783313 -1.06679751 21.64289657 -1.07543945 19.66796875 C-1.08753508 16.83332395 -1.0932351 13.99872834 -1.09765625 11.1640625 C-1.10281754 10.27756012 -1.10797882 9.39105774 -1.11329651 8.47769165 C-1.11387171 2.22774341 -1.11387171 2.22774341 0 0 Z " fill="#33A04D" transform="translate(92,78)"/>
<path d="M0 0 C-0.2642487 5.37305699 -0.2642487 5.37305699 -1 8 C-3.5625 10 -3.5625 10 -6 11 C-6 10.34 -6 9.68 -6 9 C-7.32 9.33 -8.64 9.66 -10 10 C-8.625 7.5 -8.625 7.5 -7 5 C-6.34 5 -5.68 5 -5 5 C-5 4.34 -5 3.68 -5 3 C-4.34 3 -3.68 3 -3 3 C-3 2.34 -3 1.68 -3 1 C-1 0 -1 0 0 0 Z " fill="#27B447" transform="translate(219,278)"/>
<path d="M0 0 C0 0.66 0 1.32 0 2 C0.99 2.33 1.98 2.66 3 3 C2.01 3.495 2.01 3.495 1 4 C0.01 3.34 -0.98 2.68 -2 2 C-5.75583279 1.32037311 -9.46662143 1.12979149 -12.8515625 3.05078125 C-14.66626839 4.52045399 -14.66626839 4.52045399 -17 7 C-17.66 7.66 -18.32 8.32 -19 9 C-19 7.02 -19 5.04 -19 3 C-17.68 3 -16.36 3 -15 3 C-15 2.01 -15 1.02 -15 0 C-13.25093341 -0.19601608 -11.50068154 -0.38147403 -9.75 -0.5625 C-8.77546875 -0.66691406 -7.8009375 -0.77132812 -6.796875 -0.87890625 C-4.2368648 -0.98974468 -2.41851841 -0.77738092 0 0 Z " fill="#279E43" transform="translate(323,117)"/>
<path d="M0 0 C4.24404412 3.88026891 7.10917547 8.04254346 10 13 C9.01 13.99 8.02 14.98 7 16 C5.23537317 12.91190305 5 11.76687864 5 8 C3.68 7.67 2.36 7.34 1 7 C0.67 4.69 0.34 2.38 0 0 Z " fill="#2AA948" transform="translate(396,56)"/>
<path d="M0 0 C1.32 0.33 2.64 0.66 4 1 C4 1.66 4 2.32 4 3 C6.97 3 9.94 3 13 3 C8.96076287 5.69282475 6.04463848 6.13300939 1.25 6.0625 C0.45078125 6.05347656 -0.3484375 6.04445313 -1.171875 6.03515625 C-1.77515625 6.02355469 -2.3784375 6.01195312 -3 6 C-3 5.34 -3 4.68 -3 4 C-2.01 3.34 -1.02 2.68 0 2 C0 1.34 0 0.68 0 0 Z " fill="#26B048" transform="translate(175,450)"/>
<path d="M0 0 C0.66 0 1.32 0 2 0 C0.56438314 3.18706942 -1.20266329 5.62169105 -3.5 8.25 C-4.1084375 8.95640625 -4.716875 9.6628125 -5.34375 10.390625 C-7 12 -7 12 -9 12 C-9 12.66 -9 13.32 -9 14 C-9.66 14 -10.32 14 -11 14 C-11 14.66 -11 15.32 -11 16 C-11.66 16 -12.32 16 -13 16 C-12.625 14.0625 -12.625 14.0625 -12 12 C-11.34 11.67 -10.68 11.34 -10 11 C-9.67 10.01 -9.34 9.02 -9 8 C-8.195625 7.690625 -7.39125 7.38125 -6.5625 7.0625 C-3.85842507 6.23391841 -3.85842507 6.23391841 -2.6875 3.875 C-2.460625 3.25625 -2.23375 2.6375 -2 2 C-1.34 2 -0.68 2 0 2 C0 1.34 0 0.68 0 0 Z " fill="#2AA349" transform="translate(157,289)"/>
<path d="M0 0 C0.99 0.33 1.98 0.66 3 1 C0.27076097 7.45092862 -4.16496407 11.47183874 -10 15 C-9.6875 13.0625 -9.6875 13.0625 -9 11 C-8.01 10.67 -7.02 10.34 -6 10 C-6 9.01 -6 8.02 -6 7 C-5.01 7 -4.02 7 -3 7 C-2.67 5.68 -2.34 4.36 -2 3 C-1.34 3 -0.68 3 0 3 C0 2.01 0 1.02 0 0 Z " fill="#27A346" transform="translate(195,249)"/>
<path d="M0 0 C1.65 0 3.3 0 5 0 C1.4010486 3.81706966 -2.38491627 7.42998892 -7 10 C-7.99 10 -8.98 10 -10 10 C-10 9.34 -10 8.68 -10 8 C-9.34 7.67 -8.68 7.34 -8 7 C-7.67 6.01 -7.34 5.02 -7 4 C-5.35 4.33 -3.7 4.66 -2 5 C-2 4.34 -2 3.68 -2 3 C-1.34 3 -0.68 3 0 3 C0 2.01 0 1.02 0 0 Z " fill="#28A94C" transform="translate(204,440)"/>
<path d="M0 0 C0.66 0 1.32 0 2 0 C1.36836781 2.94761689 0.37665891 5.32766212 -1 8 C-1.28875 8.86625 -1.5775 9.7325 -1.875 10.625 C-3.18909471 13.39919994 -4.17369103 13.96368671 -7 15 C-7 13.68 -7 12.36 -7 11 C-6.34 10.67 -5.68 10.34 -5 10 C-4.64587656 8.67203709 -4.31478446 7.33783393 -4 6 C-3.34 5.01 -2.68 4.02 -2 3 C-1.34 3 -0.68 3 0 3 C0 2.01 0 1.02 0 0 Z " fill="#27D953" transform="translate(135,397)"/>
<path d="M0 0 C0.66 1.98 1.32 3.96 2 6 C-1.3 9.3 -4.6 12.6 -8 16 C-8.33 15.01 -8.66 14.02 -9 13 C-8.34 13 -7.68 13 -7 13 C-6.67 12.01 -6.34 11.02 -6 10 C-5.34 10 -4.68 10 -4 10 C-3.34 7.36 -2.68 4.72 -2 2 C-2.66 1.67 -3.32 1.34 -4 1 C-2 0 -2 0 0 0 Z " fill="#26C04D" transform="translate(317,234)"/>
<path d="M0 0 C0.33 0.66 0.66 1.32 1 2 C1.99 2 2.98 2 4 2 C3.67 5.3 3.34 8.6 3 12 C2.34 12 1.68 12 1 12 C1 10.02 1 8.04 1 6 C0.01 6.66 -0.98 7.32 -2 8 C-2 7.34 -2 6.68 -2 6 C-2.99 6 -3.98 6 -5 6 C-5.33 5.01 -5.66 4.02 -6 3 C-5.34 3 -4.68 3 -4 3 C-4 3.66 -4 4.32 -4 5 C-3.01 5 -2.02 5 -1 5 C-0.67 3.35 -0.34 1.7 0 0 Z " fill="#28B247" transform="translate(175,352)"/>
<path d="M0 0 C1 2 1 2 0.5 3.9375 C-0.23602403 6.17665424 -0.23602403 6.17665424 1 9 C-5.625 10.125 -5.625 10.125 -9 9 C-8.34 9 -7.68 9 -7 9 C-7 8.34 -7 7.68 -7 7 C-6.34 7 -5.68 7 -5 7 C-4.731875 6.401875 -4.46375 5.80375 -4.1875 5.1875 C-3.01506533 3.02775192 -1.80630718 1.64209744 0 0 Z " fill="#20C249" transform="translate(266,157)"/>
<path d="M0 0 C2.64 0 5.28 0 8 0 C6.4169423 4.2742558 3.49431596 6.26531794 0 9 C0 6.03 0 3.06 0 0 Z " fill="#27B44B" transform="translate(299,250)"/>
<path d="M0 0 C0.33 0 0.66 0 1 0 C1.33 7.26 1.66 14.52 2 22 C0.35 22.99 -1.3 23.98 -3 25 C-3.66 24.67 -4.32 24.34 -5 24 C-4.34386719 23.45859375 -3.68773437 22.9171875 -3.01171875 22.359375 C-0.48339921 19.39412257 -0.59922487 18.07903254 -0.8125 14.25 C-0.98721279 9.33394365 -0.74704191 4.85577244 0 0 Z " fill="#289A3E" transform="translate(283,121)"/>
<path d="M0 0 C0.33 0 0.66 0 1 0 C1.05416741 2.72943537 1.09375225 5.45778564 1.125 8.1875 C1.15013672 9.34088867 1.15013672 9.34088867 1.17578125 10.51757812 C1.21266851 14.8149434 0.9958504 18.07901831 -1 22 C-1.33 22 -1.66 22 -2 22 C-1.85895309 19.08302989 -1.71235186 16.1665198 -1.5625 13.25 C-1.50352539 12.0125 -1.50352539 12.0125 -1.44335938 10.75 C-1.40146484 9.95078125 -1.35957031 9.1515625 -1.31640625 8.328125 C-1.27974854 7.5949707 -1.24309082 6.86181641 -1.20532227 6.10644531 C-0.99885215 3.98822395 -0.56867914 2.0480544 0 0 Z " fill="#269A45" transform="translate(360,282)"/>
<path d="M0 0 C0 0.33 0 0.66 0 1 C-1.1446875 1.1546875 -1.1446875 1.1546875 -2.3125 1.3125 C-5.01737525 1.7343816 -5.01737525 1.7343816 -6.3125 3.5 C-9.10866253 5.98547781 -12.34281293 5.70023057 -16 6 C-11.97115039 1.13180672 -6.24917557 -2.05051073 0 0 Z " fill="#299E42" transform="translate(331,264)"/>
<path d="M0 0 C3.57885399 1.19295133 4.18134909 2.24467062 6.25 5.3125 C6.79140625 6.09238281 7.3328125 6.87226562 7.890625 7.67578125 C9 10 9 10 8.671875 12.29296875 C8.45015625 12.85628906 8.2284375 13.41960937 8 14 C7.34 13.67 6.68 13.34 6 13 C5.71125 12.030625 5.4225 11.06125 5.125 10.0625 C4.3110709 6.89943043 4.3110709 6.89943043 1.875 5.625 C1.25625 5.41875 0.6375 5.2125 0 5 C0 3.35 0 1.7 0 0 Z " fill="#2BA64B" transform="translate(208,110)"/>
<path d="M0 0 C3.85147359 1.28382453 4.8755173 2.55687286 7 6 C7.33247898 8.76213303 7.18969502 11.20199852 7 14 C2.98831406 11.99415703 1.39460381 7.07653421 0 3 C0 2.01 0 1.02 0 0 Z " fill="#34BF56" transform="translate(95,416)"/>
<path d="M0 0 C1.32 0.33 2.64 0.66 4 1 C2.59928507 6.29158974 -0.85487245 8.77478044 -5 12 C-5 10.35 -5 8.7 -5 7 C-4.0409375 6.6596875 -4.0409375 6.6596875 -3.0625 6.3125 C-0.72806339 5.14749104 -0.72806339 5.14749104 -0.25 2.375 C-0.1675 1.59125 -0.085 0.8075 0 0 Z " fill="#2EB554" transform="translate(211,145)"/>
<path d="M0 0 C0 3.20395416 -0.74335022 5.09399739 -2 8 C-2.99 8 -3.98 8 -5 8 C-5 8.66 -5 9.32 -5 10 C-6.65 10.33 -8.3 10.66 -10 11 C-8.38405168 8.95880212 -6.7143618 6.95927063 -5 5 C-4.34 5 -3.68 5 -3 5 C-2.690625 4.360625 -2.38125 3.72125 -2.0625 3.0625 C-1 1 -1 1 0 0 Z " fill="#27AD49" transform="translate(277,146)"/>
<path d="M0 0 C0.66 0.33 1.32 0.66 2 1 C1.030625 1.61875 0.06125 2.2375 -0.9375 2.875 C-4.02835362 4.65678846 -4.02835362 4.65678846 -5 7 C-7.93704456 9.0095568 -9.39222485 10 -13 10 C-4.84931507 1.61643836 -4.84931507 1.61643836 0 0 Z " fill="#2EA348" transform="translate(176,103)"/>
<path d="M0 0 C1.98 0 3.96 0 6 0 C4.04297985 1.3046801 2.06417543 2.57742367 0.0625 3.8125 C-2.93732032 5.9552288 -4.85420456 8.02889862 -7 11 C-7 9.35 -7 7.7 -7 6 C-6.34 6 -5.68 6 -5 6 C-4.34 4.68 -3.68 3.36 -3 2 C-2.01 2 -1.02 2 0 2 C0 1.34 0 0.68 0 0 Z " fill="#2B9D4A" transform="translate(128,71)"/>
<path d="M0 0 C0.99 0.33 1.98 0.66 3 1 C2.2575 2.11375 2.2575 2.11375 1.5 3.25 C-0.31923475 6.06318188 -0.31923475 6.06318188 0 10 C-1.32 9.67 -2.64 9.34 -4 9 C-3.125 4.25 -3.125 4.25 -2 2 C-1.34 2 -0.68 2 0 2 C0 1.34 0 0.68 0 0 Z " fill="#29AA48" transform="translate(121,325)"/>
<path d="M0 0 C0.66 0 1.32 0 2 0 C0.59155282 3.21524305 -1.10344786 5.32183868 -3.625 7.75 C-4.57246094 8.67039063 -4.57246094 8.67039063 -5.5390625 9.609375 C-6.02117187 10.06828125 -6.50328125 10.5271875 -7 11 C-7.33 10.01 -7.66 9.02 -8 8 C-7.34 8 -6.68 8 -6 8 C-6 7.01 -6 6.02 -6 5 C-5.34 5 -4.68 5 -4 5 C-3.67 3.68 -3.34 2.36 -3 1 C-2.34 1 -1.68 1 -1 1 C-0.67 0.67 -0.34 0.34 0 0 Z " fill="#259C42" transform="translate(327,228)"/>
<path d="M0 0 C2 3 2 3 2 4.875 C0.44273106 8.18419649 -2.11369949 9.78921663 -5 12 C-4.67 10.68 -4.34 9.36 -4 8 C-3.34 8 -2.68 8 -2 8 C-2.33 7.01 -2.66 6.02 -3 5 C-1.5625 2.3125 -1.5625 2.3125 0 0 Z " fill="#25B44A" transform="translate(147,381)"/>
<path d="M0 0 C0.33 1.32 0.66 2.64 1 4 C1.99 4.33 2.98 4.66 4 5 C4.33 5.99 4.66 6.98 5 8 C4.01 8.495 4.01 8.495 3 9 C2.34786708 11.02463255 2.34786708 11.02463255 2 13 C1.34 13 0.68 13 0 13 C0 8.71 0 4.42 0 0 Z " fill="#22B544" transform="translate(306,284)"/>
<path d="M0 0 C0.33 0.66 0.66 1.32 1 2 C2.32 1.67 3.64 1.34 5 1 C4.3125 2.9375 4.3125 2.9375 3 5 C0.375 5.75 0.375 5.75 -2 6 C-2 5.34 -2 4.68 -2 4 C-2.66 4 -3.32 4 -4 4 C-4 3.34 -4 2.68 -4 2 C-2.68 1.34 -1.36 0.68 0 0 Z " fill="#2AC854" transform="translate(201,154)"/>
<path d="M0 0 C0.66 0.33 1.32 0.66 2 1 C2 1.66 2 2.32 2 3 C0.7934375 4.0828125 0.7934375 4.0828125 -0.4375 5.1875 C-3.47854071 8.52522761 -3.73954147 10.57220493 -4 15 C-4.33 15 -4.66 15 -5 15 C-5.05437607 13.41705218 -5.09296271 11.83355744 -5.125 10.25 C-5.14820313 9.36828125 -5.17140625 8.4865625 -5.1953125 7.578125 C-4.98720489 4.83110453 -4.54477419 3.27112497 -3 1 C-2.01 0.67 -1.02 0.34 0 0 Z " fill="#26A543" transform="translate(182,121)"/>
<path d="M0 0 C0.33 0.66 0.66 1.32 1 2 C2.65 1.67 4.3 1.34 6 1 C5.6875 2.875 5.6875 2.875 5 5 C4.01 5.66 3.02 6.32 2 7 C1.67 6.01 1.34 5.02 1 4 C0.01 5.485 0.01 5.485 -1 7 C-1.66 7 -2.32 7 -3 7 C-1.125 1.125 -1.125 1.125 0 0 Z " fill="#27BE48" transform="translate(162,114)"/>
<path d="M0 0 C0 0.66 0 1.32 0 2 C-1.3921875 2.680625 -1.3921875 2.680625 -2.8125 3.375 C-6.03921389 4.9421633 -6.03921389 4.9421633 -9 7 C-11.1875 6.625 -11.1875 6.625 -13 6 C-11.40089132 4.99193149 -9.79551738 3.99379615 -8.1875 3 C-7.29417969 2.443125 -6.40085937 1.88625 -5.48046875 1.3125 C-3 0 -3 0 0 0 Z " fill="#2A9040" transform="translate(123,45)"/>
<path d="M0 0 C2.76276177 0.52268466 5.3260876 1.10869587 8 2 C8 2.99 8 3.98 8 5 C8.99 5.33 9.98 5.66 11 6 C10.34 6.66 9.68 7.32 9 8 C7.82780457 7.21654285 6.66236332 6.42297164 5.5 5.625 C4.8503125 5.18414062 4.200625 4.74328125 3.53125 4.2890625 C3.0259375 3.86367188 2.520625 3.43828125 2 3 C2 2.34 2 1.68 2 1 C1.34 0.67 0.68 0.34 0 0 Z " fill="#27A047" transform="translate(108,438)"/>
<path d="M0 0 C1.0326802 2.78823655 1.04509293 3.8677274 0.0625 6.75 C-0.288125 7.4925 -0.63875 8.235 -1 9 C-1.99 9 -2.98 9 -4 9 C-4.33 10.32 -4.66 11.64 -5 13 C-5.33 12.34 -5.66 11.68 -6 11 C-5.29296875 9.16015625 -5.29296875 9.16015625 -4.1875 7.0625 C-3.83042969 6.37285156 -3.47335937 5.68320313 -3.10546875 4.97265625 C-2.15010989 3.26786394 -1.08401354 1.6260203 0 0 Z " fill="#26A043" transform="translate(290,108)"/>
<path d="M0 0 C-0.99 0.66 -1.98 1.32 -3 2 C-3.50584474 4.16463326 -3.50584474 4.16463326 -3.5625 6.5625 C-3.69140625 9.00390625 -3.69140625 9.00390625 -4 11 C-4.99 11.495 -4.99 11.495 -6 12 C-6 8.04 -6 4.08 -6 0 C-3.50907189 -1.24546405 -2.58919267 -0.7767578 0 0 Z " fill="#249C41" transform="translate(331,284)"/>
<path d="M0 0 C0.66 0 1.32 0 2 0 C2.48951049 6.36363636 2.48951049 6.36363636 0.125 9.4375 C-2 11 -2 11 -4 11 C-4 10.34 -4 9.68 -4 9 C-3.34 9 -2.68 9 -2 9 C-1.34 6.03 -0.68 3.06 0 0 Z " fill="#29AF49" transform="translate(223,267)"/>
<path d="M0 0 C1.65 0.33 3.3 0.66 5 1 C4.29875 1.556875 3.5975 2.11375 2.875 2.6875 C-0.11344261 5.09124732 -3.05940238 7.53810432 -6 10 C-5.6875 8.0625 -5.6875 8.0625 -5 6 C-4.01 5.67 -3.02 5.34 -2 5 C-0.78130071 2.49552484 -0.78130071 2.49552484 0 0 Z " fill="#23903D" transform="translate(296,159)"/>
<path d="M0 0 C1.65 0 3.3 0 5 0 C3.625 2 3.625 2 2 4 C1.34 4 0.68 4 0 4 C-0.66 5.32 -1.32 6.64 -2 8 C-2.33 8 -2.66 8 -3 8 C-3 6.35 -3 4.7 -3 3 C-2.01 3 -1.02 3 0 3 C0 2.01 0 1.02 0 0 Z " fill="#249A44" transform="translate(240,293)"/>
<path d="M0 0 C-0.804375 0.45375 -1.60875 0.9075 -2.4375 1.375 C-5.08856572 2.74725665 -5.08856572 2.74725665 -6 5 C-7.97888961 5.72693904 -9.97954558 6.39816251 -12 7 C-11.09515208 5.84481082 -10.1755794 4.70114594 -9.25 3.5625 C-8.73953125 2.92441406 -8.2290625 2.28632813 -7.703125 1.62890625 C-5.18201853 -0.78233549 -3.18772335 -1.59386167 0 0 Z " fill="#27A642" transform="translate(309,220)"/>
<path d="M0 0 C2 1 2 1 3 3 C-3.625 7 -3.625 7 -7 7 C-7 6.01 -7 5.02 -7 4 C-3.535 3.505 -3.535 3.505 0 3 C0 2.01 0 1.02 0 0 Z " fill="#29A745" transform="translate(333,156)"/>
<path d="M0 0 C2 2 2 2 2.125 5.625 C2.08375 6.73875 2.0425 7.8525 2 9 C-0.04119788 7.38405168 -2.04072937 5.7143618 -4 4 C-4 3.34 -4 2.68 -4 2 C-2.68 2 -1.36 2 0 2 C0 1.34 0 0.68 0 0 Z " fill="#2CBE52" transform="translate(174,154)"/>
<path d="M0 0 C1.76462683 3.08809695 2 4.23312136 2 8 C-0.31 8 -2.62 8 -5 8 C-4.67 7.34 -4.34 6.68 -4 6 C-3.34 6 -2.68 6 -2 6 C-1.34 4.02 -0.68 2.04 0 0 Z " fill="#22B243" transform="translate(328,134)"/>
<path d="M0 0 C0.33 0 0.66 0 1 0 C1.375 2.25 1.375 2.25 1 5 C-3.97297297 9 -3.97297297 9 -7 9 C-7 8.34 -7 7.68 -7 7 C-6.34 7 -5.68 7 -5 7 C-5 6.34 -5 5.68 -5 5 C-4.34 5 -3.68 5 -3 5 C-3 4.34 -3 3.68 -3 3 C-2.34 3 -1.68 3 -1 3 C-0.67 2.01 -0.34 1.02 0 0 Z " fill="#2AA143" transform="translate(178,409)"/>
<path d="M0 0 C2.38564077 0.57584432 4.66682784 1.22227595 7 2 C7 2.99 7 3.98 7 5 C4.69 5.33 2.38 5.66 0 6 C0.185625 5.38125 0.37125 4.7625 0.5625 4.125 C1.23686176 1.95839822 1.23686176 1.95839822 0 0 Z " fill="#24B547" transform="translate(370,361)"/>
<path d="M0 0 C0 3.39593478 -0.52165948 4.06619881 -2.5 6.6875 C-2.9640625 7.31011719 -3.428125 7.93273437 -3.90625 8.57421875 C-4.2671875 9.04472656 -4.628125 9.51523437 -5 10 C-5.33 8.68 -5.66 7.36 -6 6 C-5.34 6 -4.68 6 -4 6 C-3.67 4.35 -3.34 2.7 -3 1 C-2.01 0.67 -1.02 0.34 0 0 Z " fill="#299E49" transform="translate(404,341)"/>
<path d="M0 0 C0.33 0.99 0.66 1.98 1 3 C-0.28965176 4.37562854 -1.62689293 5.70766393 -3 7 C-3.66 7 -4.32 7 -5 7 C-5 7.66 -5 8.32 -5 9 C-5.99 9.33 -6.98 9.66 -8 10 C-8 9.34 -8 8.68 -8 8 C-7.34 8 -6.68 8 -6 8 C-5.7525 7.4225 -5.505 6.845 -5.25 6.25 C-3.83316683 3.6997003 -2.12372463 1.98214299 0 0 Z " fill="#228937" transform="translate(187,309)"/>
<path d="M0 0 C1.32 0.66 2.64 1.32 4 2 C2.35 3.98 0.7 5.96 -1 8 C-1.99 7.67 -2.98 7.34 -4 7 C-2.68 4.69 -1.36 2.38 0 0 Z " fill="#31C256" transform="translate(140,304)"/>
<path d="M0 0 C1.32 0.33 2.64 0.66 4 1 C1.36 3.64 -1.28 6.28 -4 9 C-4.33 7.68 -4.66 6.36 -5 5 C-3.68 4.67 -2.36 4.34 -1 4 C-0.67 2.68 -0.34 1.36 0 0 Z " fill="#28A646" transform="translate(173,272)"/>
<path d="M0 0 C0.33 0.66 0.66 1.32 1 2 C-2.32307692 7.78461538 -2.32307692 7.78461538 -5.75 8.875 C-6.4925 8.91625 -7.235 8.9575 -8 9 C-6.625 7 -6.625 7 -5 5 C-4.34 5 -3.68 5 -3 5 C-2.690625 4.360625 -2.38125 3.72125 -2.0625 3.0625 C-1 1 -1 1 0 0 Z " fill="#228E3C" transform="translate(156,258)"/>
<path d="M0 0 C0.66 0 1.32 0 2 0 C1.45660208 4.56454251 0.20536179 7.9728176 -2 12 C-2.66 10.68 -3.32 9.36 -4 8 C-3.2884375 7.13375 -3.2884375 7.13375 -2.5625 6.25 C-1.0515133 4.07417916 -0.45963849 2.57397552 0 0 Z " fill="#249F44" transform="translate(347,138)"/>
<path d="M0 0 C0 0.66 0 1.32 0 2 C-1.32 2 -2.64 2 -4 2 C-4.33 2.66 -4.66 3.32 -5 4 C-6.32 3.67 -7.64 3.34 -9 3 C-9 2.01 -9 1.02 -9 0 C-5.52176885 -1.15941038 -3.54104422 -0.70820884 0 0 Z " fill="#2CD858" transform="translate(127,443)"/>
<path d="M0 0 C0 3.38023517 -0.87455622 5.83468937 -2 9 C-3.65 8.67 -5.3 8.34 -7 8 C-6.02133662 6.85373678 -5.04205413 5.70800212 -4.0625 4.5625 C-3.51722656 3.92441406 -2.97195313 3.28632813 -2.41015625 2.62890625 C-1.63204305 1.73008851 -0.84063472 0.84063472 0 0 Z " fill="#239538" transform="translate(296,227)"/>
<path d="M0 0 C0.33 0 0.66 0 1 0 C1 1.98 1 3.96 1 6 C1.66 6 2.32 6 3 6 C3 7.65 3 9.3 3 11 C2.01 11.495 2.01 11.495 1 12 C0.63597631 10.56496445 0.28413409 9.12683494 -0.0625 7.6875 C-0.25972656 6.88699219 -0.45695313 6.08648437 -0.66015625 5.26171875 C-1 3 -1 3 0 0 Z " fill="#2CA647" transform="translate(158,134)"/>
<path d="M0 0 C0.33 0 0.66 0 1 0 C1 1.98 1 3.96 1 6 C3.97 6.33 6.94 6.66 10 7 C10 7.33 10 7.66 10 8 C6.7 8 3.4 8 0 8 C-0.92538169 4.29847322 -1.08174162 3.36541838 0 0 Z " fill="#1D762F" transform="translate(169,384)"/>
<path d="M0 0 C0.33 0.66 0.66 1.32 1 2 C0.0625 4.625 0.0625 4.625 -1 7 C-1.66 6.67 -2.32 6.34 -3 6 C-3 5.34 -3 4.68 -3 4 C-4.32 4 -5.64 4 -7 4 C-7 3.34 -7 2.68 -7 2 C-4.69 1.34 -2.38 0.68 0 0 Z " fill="#33D559" transform="translate(339,297)"/>
<path d="M0 0 C-1.15173355 2.46800047 -2.04783565 4.04783565 -4 6 C-5.32 6 -6.64 6 -8 6 C-8 5.34 -8 4.68 -8 4 C-7.34 4 -6.68 4 -6 4 C-6 3.34 -6 2.68 -6 2 C-2.25 0 -2.25 0 0 0 Z " fill="#2CBF4E" transform="translate(133,285)"/>
<path d="M0 0 C0.99 0 1.98 0 3 0 C4.06775224 1.96466413 5.06553465 3.96855359 6 6 C5.67 6.66 5.34 7.32 5 8 C3 7 3 7 2 4 C1.01 3.67 0.02 3.34 -1 3 C-0.67 2.01 -0.34 1.02 0 0 Z " fill="#31B34F" transform="translate(354,274)"/>
<path d="M0 0 C0.66 0.33 1.32 0.66 2 1 C2.25 3.8125 2.25 3.8125 2 7 C0 8.875 0 8.875 -2 10 C-1.85950482 8.52031676 -1.71245174 7.04125484 -1.5625 5.5625 C-1.48128906 4.73878906 -1.40007812 3.91507813 -1.31640625 3.06640625 C-1 1 -1 1 0 0 Z " fill="#27B94D" transform="translate(250,201)"/>
<path d="M0 0 C1.32 0.33 2.64 0.66 4 1 C5.47075246 5.41225737 6.36884358 8.48281619 5 13 C4.67 13 4.34 13 4 13 C3.87882812 12.39671875 3.75765625 11.7934375 3.6328125 11.171875 C3.46523438 10.37265625 3.29765625 9.5734375 3.125 8.75 C2.96257812 7.96109375 2.80015625 7.1721875 2.6328125 6.359375 C2.00849925 4.03168856 1.15161458 2.10968048 0 0 Z " fill="#2A9E4A" transform="translate(325,121)"/>
<path d="M0 0 C3.37462715 0.54723683 5.08235 1.0549 8 3 C7.34 4.32 6.68 5.64 6 7 C5.34 5.68 4.68 4.36 4 3 C3.34 3 2.68 3 2 3 C2 2.34 2 1.68 2 1 C1.34 0.67 0.68 0.34 0 0 Z " fill="#27A148" transform="translate(373,74)"/>
<path d="M0 0 C6.15234375 -0.09765625 6.15234375 -0.09765625 8 0 C8.33 0.33 8.66 0.66 9 1 C11.32817964 1.36760731 13.6618385 1.70241581 16 2 C16 2.33 16 2.66 16 3 C10.22192976 3.2358396 5.48675196 2.86783046 0 1 C0 0.67 0 0.34 0 0 Z " fill="#25933E" transform="translate(132,453)"/>
<path d="M0 0 C1.32 0.66 2.64 1.32 4 2 C4 2.66 4 3.32 4 4 C2.02 4.99 2.02 4.99 0 6 C-0.99 5.01 -1.98 4.02 -3 3 C-2.34 3 -1.68 3 -1 3 C-0.67 2.01 -0.34 1.02 0 0 Z " fill="#21BF46" transform="translate(123,444)"/>
<path d="M0 0 C0.66 0 1.32 0 2 0 C2 1.65 2 3.3 2 5 C2.66 5.33 3.32 5.66 4 6 C3.01 6.99 2.02 7.98 1 9 C-0.61949011 6.42786866 -1.04408751 5.32330841 -0.625 2.25 C-0.41875 1.5075 -0.2125 0.765 0 0 Z " fill="#2DC04C" transform="translate(171,377)"/>
<path d="M0 0 C0.33 0 0.66 0 1 0 C0.22095672 10.55808656 0.22095672 10.55808656 -2 15 C-2.33 15 -2.66 15 -3 15 C-2.5547115 9.72684667 -1.91626837 4.98229776 0 0 Z " fill="#24923B" transform="translate(409,324)"/>
<path d="M0 0 C0 0.66 0 1.32 0 2 C-0.99 2.495 -0.99 2.495 -2 3 C-2.33 3.99 -2.66 4.98 -3 6 C-3.66 6 -4.32 6 -5 6 C-5 6.66 -5 7.32 -5 8 C-5.99 8 -6.98 8 -8 8 C-6.48291727 4.46014029 -4.24676932 0 0 0 Z " fill="#36BC56" transform="translate(324,201)"/>
<path d="M0 0 C0.99 0 1.98 0 3 0 C2.6875 2.375 2.6875 2.375 2 5 C1.01 5.66 0.02 6.32 -1 7 C-2 4 -2 4 -1.0625 1.8125 C-0.5365625 0.9153125 -0.5365625 0.9153125 0 0 Z " fill="#2ABA4F" transform="translate(98,64)"/>
<path d="M0 0 C3.3 0.99 6.6 1.98 10 3 C10 3.66 10 4.32 10 5 C6.1936543 4.32829194 2.64793184 3.27253436 -1 2 C-0.67 1.34 -0.34 0.68 0 0 Z " fill="#30AB4D" transform="translate(373,43)"/>
<path d="M0 0 C0.99 0 1.98 0 3 0 C2.60196439 2.88575819 2.20990931 3.82189513 -0.0625 5.75 C-0.701875 6.1625 -1.34125 6.575 -2 7 C-2 5.35 -2 3.7 -2 2 C-1.34 2 -0.68 2 0 2 C0 1.34 0 0.68 0 0 Z " fill="#24953F" transform="translate(273,281)"/>
<path d="M0 0 C3.96 0 7.92 0 12 0 C12 0.33 12 0.66 12 1 C11.39671875 1.03738281 10.7934375 1.07476562 10.171875 1.11328125 C4.00632228 1.56253341 4.00632228 1.56253341 -1 5 C-0.67 3.35 -0.34 1.7 0 0 Z " fill="#176926" transform="translate(331,223)"/>
<path d="M0 0 C0.99 0.33 1.98 0.66 3 1 C2.67 1.99 2.34 2.98 2 4 C1.34 4 0.68 4 0 4 C-0.268125 4.639375 -0.53625 5.27875 -0.8125 5.9375 C-2 8 -2 8 -5 9 C-4.34 7.68 -3.68 6.36 -3 5 C-2.34 5 -1.68 5 -1 5 C-0.67 3.35 -0.34 1.7 0 0 Z " fill="#2A9341" transform="translate(341,149)"/>
<path d="M0 0 C0.33 0.99 0.66 1.98 1 3 C0.01 4.485 0.01 4.485 -1 6 C-1.99 6 -2.98 6 -4 6 C-4 6.66 -4 7.32 -4 8 C-4.66 7.67 -5.32 7.34 -6 7 C-4.02 4.69 -2.04 2.38 0 0 Z " fill="#2BA341" transform="translate(169,419)"/>
<path d="M0 0 C0.33 0.99 0.66 1.98 1 3 C-0.875 6.1875 -0.875 6.1875 -3 9 C-3.33 9 -3.66 9 -4 9 C-4 7.35 -4 5.7 -4 4 C-3.34 4 -2.68 4 -2 4 C-2 3.01 -2 2.02 -2 1 C-1.34 0.67 -0.68 0.34 0 0 Z " fill="#229540" transform="translate(223,419)"/>
<path d="M0 0 C2.97 0 5.94 0 9 0 C9 0.66 9 1.32 9 2 C6.36 2.33 3.72 2.66 1 3 C0.67 2.01 0.34 1.02 0 0 Z " fill="#2BD657" transform="translate(136,407)"/>
<path d="M0 0 C0.66 0.33 1.32 0.66 2 1 C0.71700242 3.86207152 -0.530636 6.0245088 -3 8 C-3.99 8 -4.98 8 -6 8 C-6 6 -6 6 -3.5625 3.4375 C-2.716875 2.633125 -1.87125 1.82875 -1 1 C-0.67 0.67 -0.34 0.34 0 0 Z " fill="#2CA248" transform="translate(174,322)"/>
<path d="M0 0 C0.99 0.33 1.98 0.66 3 1 C3 2.65 3 4.3 3 6 C2.01 6 1.02 6 0 6 C0 5.34 0 4.68 0 4 C-0.66 4 -1.32 4 -2 4 C-2 2 -2 2 0 0 Z " fill="#28D559" transform="translate(350,305)"/>
<path d="M0 0 C0.99 0 1.98 0 3 0 C3.33 1.32 3.66 2.64 4 4 C2.68 4.99 1.36 5.98 0 7 C-1.125 2.25 -1.125 2.25 0 0 Z " fill="#28C74B" transform="translate(225,199)"/>
<path d="M0 0 C4.46839215 -0.21278058 7.82262526 0.40861915 12 2 C12 2.66 12 3.32 12 4 C3.42857143 3.28571429 3.42857143 3.28571429 0 0 Z " fill="#35C65C" transform="translate(298,159)"/>
<path d="M0 0 C0 0.66 0 1.32 0 2 C-3.96 3.98 -3.96 3.98 -8 6 C-7.67 4.68 -7.34 3.36 -7 2 C-4.55683729 0.74709605 -2.75474605 0 0 0 Z " fill="#2BA549" transform="translate(392,356)"/>
<path d="M0 0 C0.66 0 1.32 0 2 0 C0.60667426 3.36720387 -0.9789286 4.9859524 -4 7 C-4 5.35 -4 3.7 -4 2 C-2.68 2 -1.36 2 0 2 C0 1.34 0 0.68 0 0 Z " fill="#28AD4B" transform="translate(164,282)"/>
<path d="M0 0 C0.99 0.33 1.98 0.66 3 1 C0.69 3.31 -1.62 5.62 -4 8 C-4.33 7.01 -4.66 6.02 -5 5 C-4.34 5 -3.68 5 -3 5 C-2.67 4.01 -2.34 3.02 -2 2 C-1.34 2 -0.68 2 0 2 C0 1.34 0 0.68 0 0 Z " fill="#249041" transform="translate(313,242)"/>
<path d="M0 0 C0.99 0 1.98 0 3 0 C5.1875 3 5.1875 3 7 6 C4 6 4 6 1.8125 4.125 C0 2 0 2 0 0 Z " fill="#2CA64F" transform="translate(162,149)"/>
<path d="M0 0 C-0.3125 1.9375 -0.3125 1.9375 -1 4 C-1.99 4.33 -2.98 4.66 -4 5 C-4.66 3.68 -5.32 2.36 -6 1 C-3.92446352 0.4465236 -2.15634036 0 0 0 Z " fill="#32D559" transform="translate(310,98)"/>
<path d="M0 0 C0.66 0 1.32 0 2 0 C2.66 1.65 3.32 3.3 4 5 C2.02 5.99 2.02 5.99 0 7 C-0.38133299 5.0085944 -0.71325582 3.00720923 -1 1 C-0.67 0.67 -0.34 0.34 0 0 Z " fill="#32C154" transform="translate(402,65)"/>
<path d="M0 0 C0.66 1.65 1.32 3.3 2 5 C-0.31 4.34 -2.62 3.68 -5 3 C-2.25 0 -2.25 0 0 0 Z " fill="#27A240" transform="translate(130,448)"/>
<path d="M0 0 C0.66 0 1.32 0 2 0 C1.37315423 2.92528027 0.51695295 5.41225673 -1 8 C-1.99 8.495 -1.99 8.495 -3 9 C-3 7.35 -3 5.7 -3 4 C-2.01 3.67 -1.02 3.34 0 3 C0 2.01 0 1.02 0 0 Z " fill="#2CA64B" transform="translate(135,397)"/>
<path d="M0 0 C0 0.99 0 1.98 0 3 C-0.99 3 -1.98 3 -3 3 C-3.66 4.32 -4.32 5.64 -5 7 C-5.66 6.34 -6.32 5.68 -7 5 C-2.25 0 -2.25 0 0 0 Z " fill="#2CA747" transform="translate(193,395)"/>
<path d="M0 0 C0.66 0.99 1.32 1.98 2 3 C0.1875 4.5625 0.1875 4.5625 -2 6 C-2.99 5.67 -3.98 5.34 -5 5 C-3.35 3.35 -1.7 1.7 0 0 Z " fill="#28B149" transform="translate(199,297)"/>
<path d="M0 0 C0 0.66 0 1.32 0 2 C-3.3 1.67 -6.6 1.34 -10 1 C-10 0.67 -10 0.34 -10 0 C-6.33694766 -0.74926071 -3.57644848 -1.2380014 0 0 Z " fill="#28A647" transform="translate(341,282)"/>
<path d="M0 0 C0.99 0 1.98 0 3 0 C2.67 1.65 2.34 3.3 2 5 C1.34 5 0.68 5 0 5 C-0.33 5.66 -0.66 6.32 -1 7 C-1.66 6.01 -2.32 5.02 -3 4 C-2.01 4 -1.02 4 0 4 C-0.33 3.01 -0.66 2.02 -1 1 C-0.67 0.67 -0.34 0.34 0 0 Z " fill="#1FC342" transform="translate(341,280)"/>
<path d="M0 0 C0 1.32 0 2.64 0 4 C-0.66 4 -1.32 4 -2 4 C-2 4.66 -2 5.32 -2 6 C-2.66 6 -3.32 6 -4 6 C-4 4.35 -4 2.7 -4 1 C-2 0 -2 0 0 0 Z " fill="#27B34A" transform="translate(280,276)"/>
<path d="M0 0 C0.99 0 1.98 0 3 0 C2.875 1.875 2.875 1.875 2 4 C-1.0625 5.25 -1.0625 5.25 -4 6 C-2.1875 3 -2.1875 3 0 0 Z " fill="#2FD257" transform="translate(148,267)"/>
<path d="M0 0 C0.33 0.66 0.66 1.32 1 2 C0.3125 4.0625 0.3125 4.0625 -1 6 C-3.125 6.75 -3.125 6.75 -5 7 C-3.70700306 4.11562221 -2.34058637 2.12780579 0 0 Z " fill="#1E8636" transform="translate(266,157)"/>
<path d="M0 0 C1.65 0 3.3 0 5 0 C5 2.64 5 5.28 5 8 C2.2175651 6.60878255 1.44789935 4.69835788 0 2 C0 1.34 0 0.68 0 0 Z " fill="#22913F" transform="translate(97,422)"/>
<path d="M0 0 C0.33 0.66 0.66 1.32 1 2 C1.66 2.33 2.32 2.66 3 3 C2.01 3.33 1.02 3.66 0 4 C-0.33 4.66 -0.66 5.32 -1 6 C-1 5.34 -1 4.68 -1 4 C-1.66 4 -2.32 4 -3 4 C-2.67 3.01 -2.34 2.02 -2 1 C-1.34 0.67 -0.68 0.34 0 0 Z " fill="#2ED754" transform="translate(184,404)"/>
<path d="M0 0 C0.66 0 1.32 0 2 0 C1.34 1.98 0.68 3.96 0 6 C-0.99 6 -1.98 6 -3 6 C-1.125 1.125 -1.125 1.125 0 0 Z " fill="#32CC56" transform="translate(178,319)"/>
<path d="M0 0 C0 0.66 0 1.32 0 2 C-0.66 2 -1.32 2 -2 2 C-2.33 2.99 -2.66 3.98 -3 5 C-3.99 5.33 -4.98 5.66 -6 6 C-6 4.68 -6 3.36 -6 2 C-2.25 0 -2.25 0 0 0 Z " fill="#2EA04A" transform="translate(135,314)"/>
<path d="M0 0 C0.33 0.99 0.66 1.98 1 3 C0 5 0 5 -3.0625 6.125 C-4.031875 6.41375 -5.00125 6.7025 -6 7 C-4.02 4.69 -2.04 2.38 0 0 Z " fill="#1E7C31" transform="translate(134,280)"/>
<path d="M0 0 C0.66 0 1.32 0 2 0 C2 0.66 2 1.32 2 2 C1.34 2 0.68 2 0 2 C0 1.34 0 0.68 0 0 Z M-2 2 C-1.34 2 -0.68 2 0 2 C0 3.65 0 5.3 0 7 C-0.99 7.33 -1.98 7.66 -3 8 C-2.67 6.02 -2.34 4.04 -2 2 Z " fill="#2FCE56" transform="translate(271,281)"/>
<path d="M0 0 C0.66 0 1.32 0 2 0 C0.60667426 3.36720387 -0.9789286 4.9859524 -4 7 C-4 5.68 -4 4.36 -4 3 C-3.01 3 -2.02 3 -1 3 C-0.67 2.01 -0.34 1.02 0 0 Z " fill="#2BA848" transform="translate(181,265)"/>
<path d="M0 0 C0.33 0.99 0.66 1.98 1 3 C-0.4375 5.6875 -0.4375 5.6875 -2 8 C-2.33 7.34 -2.66 6.68 -3 6 C-3.66 5.67 -4.32 5.34 -5 5 C-4.01 4.67 -3.02 4.34 -2 4 C-0.79117904 1.99983534 -0.79117904 1.99983534 0 0 Z " fill="#239E3C" transform="translate(168,246)"/>
<path d="M0 0 C0.99 0.33 1.98 0.66 3 1 C1.63016497 4.16115776 1.0109362 4.9927092 -2 7 C-2 6.01 -2 5.02 -2 4 C-1.34 4 -0.68 4 0 4 C-0.33 3.01 -0.66 2.02 -1 1 C-0.67 0.67 -0.34 0.34 0 0 Z " fill="#24A646" transform="translate(258,196)"/>
<path d="M0 0 C1.32 0.33 2.64 0.66 4 1 C2.25 5.875 2.25 5.875 0 7 C0 4.69 0 2.38 0 0 Z " fill="#209940" transform="translate(211,145)"/>
<path d="M0 0 C1.32 0.33 2.64 0.66 4 1 C2.68 2.32 1.36 3.64 0 5 C-0.66 4.67 -1.32 4.34 -2 4 C-1.34 2.68 -0.68 1.36 0 0 Z " fill="#30D055" transform="translate(109,52)"/>
<path d="" fill="#000000" transform="translate(0,0)"/>
<path d="" fill="#000000" transform="translate(0,0)"/>
<path d="" fill="#000000" transform="translate(0,0)"/>
<path d="" fill="#000000" transform="translate(0,0)"/>
<path d="" fill="#000000" transform="translate(0,0)"/>
<path d="" fill="#000000" transform="translate(0,0)"/>
<path d="" fill="#000000" transform="translate(0,0)"/>
<path d="" fill="#000000" transform="translate(0,0)"/>
<path d="" fill="#000000" transform="translate(0,0)"/>
<path d="" fill="#000000" transform="translate(0,0)"/>
<path d="" fill="#000000" transform="translate(0,0)"/>
<path d="" fill="#000000" transform="translate(0,0)"/>
<path d="" fill="#000000" transform="translate(0,0)"/>
<path d="" fill="#000000" transform="translate(0,0)"/>
<path d="" fill="#000000" transform="translate(0,0)"/>
<path d="" fill="#000000" transform="translate(0,0)"/>
<path d="" fill="#000000" transform="translate(0,0)"/>
<path d="" fill="#000000" transform="translate(0,0)"/>
<path d="" fill="#000000" transform="translate(0,0)"/>
<path d="" fill="#000000" transform="translate(0,0)"/>
<path d="" fill="#000000" transform="translate(0,0)"/>
<path d="" fill="#000000" transform="translate(0,0)"/>
<path d="" fill="#000000" transform="translate(0,0)"/>
<path d="" fill="#000000" transform="translate(0,0)"/>
<path d="" fill="#000000" transform="translate(0,0)"/>
<path d="" fill="#000000" transform="translate(0,0)"/>
<path d="" fill="#000000" transform="translate(0,0)"/>
<path d="" fill="#000000" transform="translate(0,0)"/>
<path d="" fill="#000000" transform="translate(0,0)"/>
<path d="" fill="#000000" transform="translate(0,0)"/>
<path d="" fill="#000000" transform="translate(0,0)"/>
<path d="" fill="#000000" transform="translate(0,0)"/>
<path d="" fill="#000000" transform="translate(0,0)"/>
<path d="" fill="#000000" transform="translate(0,0)"/>
<path d="" fill="#000000" transform="translate(0,0)"/>
<path d="" fill="#000000" transform="translate(0,0)"/>
<path d="" fill="#000000" transform="translate(0,0)"/>
<path d="" fill="#000000" transform="translate(0,0)"/>
<path d="" fill="#000000" transform="translate(0,0)"/>
<path d="" fill="#000000" transform="translate(0,0)"/>
<path d="" fill="#000000" transform="translate(0,0)"/>
<path d="" fill="#000000" transform="translate(0,0)"/>
<path d="" fill="#000000" transform="translate(0,0)"/>
<path d="" fill="#000000" transform="translate(0,0)"/>
<path d="" fill="#000000" transform="translate(0,0)"/>
<path d="" fill="#000000" transform="translate(0,0)"/>
<path d="" fill="#000000" transform="translate(0,0)"/>
<path d="" fill="#000000" transform="translate(0,0)"/>
</svg>
