<?xml version="1.0" encoding="UTF-8"?>
<svg xmlns="http://www.w3.org/2000/svg" xmlns:xlink="http://www.w3.org/1999/xlink" width="1000px" height="1000px" viewBox="0 0 1000 1000" version="1.1">
<g id="surface1">
<path style=" stroke:none;fill-rule:nonzero;fill:rgb(13.725491%,84.705883%,31.37255%);fill-opacity:1;" d="M 268.445312 83.730469 C 270.125 83.722656 271.804688 83.714844 273.535156 83.703125 C 275.371094 83.703125 277.207031 83.707031 279.097656 83.707031 C 281.058594 83.699219 283.015625 83.691406 285.03125 83.683594 C 291.613281 83.660156 298.191406 83.652344 304.773438 83.644531 C 309.484375 83.632812 314.195312 83.621094 318.90625 83.605469 C 333.058594 83.566406 347.210938 83.546875 361.363281 83.527344 C 368.035156 83.519531 374.703125 83.507812 381.375 83.5 C 403.566406 83.464844 425.757812 83.4375 447.949219 83.421875 C 453.703125 83.417969 459.460938 83.414062 465.21875 83.410156 C 467.363281 83.410156 467.363281 83.410156 469.554688 83.40625 C 492.707031 83.390625 515.859375 83.339844 539.011719 83.273438 C 562.804688 83.207031 586.597656 83.171875 610.394531 83.164062 C 623.742188 83.160156 637.09375 83.144531 650.441406 83.09375 C 663.011719 83.046875 675.578125 83.039062 688.144531 83.058594 C 692.75 83.058594 697.351562 83.046875 701.953125 83.019531 C 737.140625 82.820312 766.257812 85.257812 793.09375 110.859375 C 822.265625 142.226562 823.191406 176.105469 822.972656 216.96875 C 822.976562 221.648438 822.984375 226.328125 822.996094 231.011719 C 823.015625 243.644531 822.984375 256.273438 822.941406 268.90625 C 822.910156 280.8125 822.914062 292.722656 822.914062 304.628906 C 822.917969 328.214844 822.882812 351.800781 822.824219 375.386719 C 822.765625 398.230469 822.738281 421.074219 822.742188 443.914062 C 822.742188 445.324219 822.742188 446.734375 822.742188 448.183594 C 822.742188 449.589844 822.742188 450.996094 822.742188 452.445312 C 822.746094 479.847656 822.71875 507.25 822.679688 534.652344 C 822.671875 542.527344 822.667969 550.402344 822.667969 558.277344 C 822.664062 570.660156 822.640625 583.042969 822.597656 595.425781 C 822.585938 599.960938 822.582031 604.5 822.585938 609.035156 C 822.585938 615.238281 822.5625 621.445312 822.535156 627.648438 C 822.542969 629.429688 822.546875 631.210938 822.554688 633.046875 C 822.382812 655.328125 816.929688 672.640625 806 692 C 805.261719 693.34375 804.523438 694.6875 803.765625 696.070312 C 791.460938 715.789062 765.179688 729.773438 743.070312 735.148438 C 732.300781 736.957031 721.367188 736.515625 710.480469 736.453125 C 707.71875 736.453125 704.957031 736.453125 702.199219 736.457031 C 694.746094 736.457031 687.289062 736.433594 679.835938 736.40625 C 672.03125 736.378906 664.226562 736.378906 656.421875 736.375 C 641.664062 736.359375 626.902344 736.328125 612.140625 736.289062 C 595.328125 736.242188 578.515625 736.222656 561.703125 736.203125 C 527.136719 736.160156 492.566406 736.089844 458 736 C 458.324219 737.542969 458.648438 739.089844 458.980469 740.679688 C 466.902344 782.0625 459.242188 827.761719 436.023438 862.664062 C 416.652344 888.355469 390.359375 906.566406 358.5 912.625 C 310.496094 918.71875 264.726562 914.765625 224.773438 885.976562 C 222.410156 884.007812 222.410156 884.007812 220 882 C 220 880.679688 220 879.359375 220 878 C 218.679688 878 217.359375 878 216 878 C 216 876.679688 216 875.359375 216 874 C 214.679688 874 213.359375 874 212 874 C 189.273438 848.488281 181.519531 818.945312 181.171875 785.5625 C 181.132812 783.179688 181.097656 780.800781 181.054688 778.347656 C 180.957031 771.851562 180.871094 765.355469 180.800781 758.859375 C 180.753906 754.734375 180.695312 750.609375 180.640625 746.488281 C 179.816406 686.972656 179.769531 627.457031 179.9375 567.9375 C 179.960938 559.4375 179.984375 550.941406 180.003906 542.445312 C 180.0625 518.699219 180.125 494.953125 180.203125 471.210938 C 180.207031 469.722656 180.214844 468.230469 180.21875 466.699219 C 180.222656 465.207031 180.230469 463.714844 180.234375 462.179688 C 180.242188 459.160156 180.253906 456.140625 180.265625 453.121094 C 180.269531 451.625 180.273438 450.128906 180.28125 448.585938 C 180.359375 424.042969 180.40625 399.5 180.4375 374.953125 C 180.472656 349.484375 180.535156 324.011719 180.628906 298.539062 C 180.679688 284.339844 180.71875 270.144531 180.722656 255.949219 C 180.726562 242.695312 180.773438 229.441406 180.847656 216.1875 C 180.867188 211.34375 180.871094 206.496094 180.863281 201.652344 C 180.855469 195.027344 180.894531 188.40625 180.949219 181.78125 C 180.933594 179.882812 180.921875 177.984375 180.90625 176.027344 C 181.152344 157.632812 187.003906 141.304688 197 125.875 C 198.132812 124.078125 199.269531 122.28125 200.4375 120.429688 C 204.0625 115.921875 206.667969 114.070312 212 112 C 212 110.679688 212 109.359375 212 108 C 227.421875 94.679688 247.660156 83.78125 268.445312 83.730469 Z M 246 158 C 232.519531 176.152344 234.65625 196.792969 234.863281 218.273438 C 234.867188 222.355469 234.867188 226.4375 234.859375 230.519531 C 234.859375 241.554688 234.917969 252.589844 234.984375 263.625 C 235.046875 275.175781 235.054688 286.726562 235.066406 298.277344 C 235.097656 320.128906 235.179688 341.976562 235.28125 363.828125 C 235.390625 388.714844 235.445312 413.597656 235.496094 438.484375 C 235.601562 489.65625 235.777344 540.828125 236 592 C 241.074219 589.289062 241.074219 589.289062 246 586 C 246 584.679688 246 583.359375 246 582 C 247.320312 582 248.640625 582 250 582 C 250 580.679688 250 579.359375 250 578 C 251.320312 578 252.640625 578 254 578 C 257.273438 574.765625 257.273438 574.765625 260.625 570.625 C 266.121094 564.066406 271.902344 558.007812 278 552 C 279.960938 550.042969 281.917969 548.085938 283.875 546.125 C 338 492 338 492 341.03125 489.460938 C 347.3125 483.9375 349.769531 481.074219 351.5625 472.652344 C 351.652344 469.886719 351.675781 467.121094 351.648438 464.355469 C 351.679688 462.835938 351.710938 461.316406 351.742188 459.75 C 351.824219 454.75 351.820312 449.757812 351.804688 444.757812 C 351.828125 441.265625 351.855469 437.773438 351.882812 434.28125 C 351.925781 426.972656 351.925781 419.667969 351.894531 412.359375 C 351.859375 403.011719 351.960938 393.675781 352.101562 384.328125 C 352.1875 377.121094 352.195312 369.914062 352.175781 362.707031 C 352.179688 359.261719 352.210938 355.816406 352.269531 352.375 C 353.167969 333.589844 353.167969 333.589844 346.082031 316.964844 C 341.546875 313.460938 336.972656 310.816406 332 308 C 320.070312 295.722656 315.054688 281.851562 313.25 265 C 314.847656 250.074219 319.234375 238.089844 328 226 C 328 224.679688 328 223.359375 328 222 C 329.113281 221.503906 330.226562 221.011719 331.375 220.5 C 336.246094 218.054688 336.246094 218.054688 340.875 214 C 353.804688 203.910156 370.675781 202.964844 386.617188 204.421875 C 403.390625 208 416.046875 216.253906 425.617188 230.265625 C 426.402344 231.496094 427.191406 232.730469 428 234 C 429.320312 235.980469 430.640625 237.960938 432 240 C 438.257812 260.160156 437.605469 276.878906 428 296 C 423.203125 302.996094 418.039062 309.675781 410.589844 313.960938 C 406.5625 316.351562 403.296875 318.660156 400 322 C 398.59375 328.265625 398.15625 332.480469 398.324219 338.734375 C 398.308594 340.394531 398.296875 342.054688 398.285156 343.761719 C 398.261719 349.238281 398.335938 354.707031 398.40625 360.179688 C 398.402344 363.992188 398.390625 367.804688 398.375 371.621094 C 398.34375 381.652344 398.390625 391.6875 398.460938 401.71875 C 398.5625 417.773438 398.558594 433.824219 398.527344 449.875 C 398.53125 455.476562 398.574219 461.074219 398.625 466.671875 C 398.632812 470.117188 398.636719 473.5625 398.644531 477.007812 C 398.667969 478.558594 398.691406 480.105469 398.71875 481.703125 C 398.675781 494.550781 395.5625 502.355469 386.625 511.5 C 385.097656 512.984375 383.574219 514.46875 382 516 C 382 517.320312 382 518.640625 382 520 C 380.257812 520.769531 380.257812 520.769531 378.480469 521.550781 C 373.554688 524.242188 370.269531 527.222656 366.300781 531.183594 C 364.816406 532.652344 363.335938 534.121094 361.8125 535.632812 C 360.234375 537.21875 358.65625 538.804688 357.03125 540.4375 C 355.398438 542.066406 353.769531 543.691406 352.089844 545.367188 C 348.648438 548.808594 345.210938 552.25 341.78125 555.699219 C 336.507812 560.992188 331.210938 566.265625 325.914062 571.539062 C 322.578125 574.878906 319.242188 578.21875 315.90625 581.5625 C 314.3125 583.148438 312.71875 584.734375 311.078125 586.367188 C 309.621094 587.835938 308.164062 589.304688 306.667969 590.816406 C 304.730469 592.757812 304.730469 592.757812 302.753906 594.738281 C 299.570312 597.796875 299.570312 597.796875 300 602 C 298.679688 602 297.359375 602 296 602 C 296 603.320312 296 604.640625 296 606 C 294.679688 606 293.359375 606 292 606 C 292 607.320312 292 608.640625 292 610 C 290.207031 610.804688 290.207031 610.804688 288.375 611.625 C 284.003906 614 281.171875 616.191406 278 620 C 278 621.320312 278 622.640625 278 624 C 276.679688 624 275.359375 624 274 624 C 274 625.320312 274 626.640625 274 628 C 272.679688 628 271.359375 628 270 628 C 270 629.320312 270 630.640625 270 632 C 268.679688 632 267.359375 632 266 632 C 256.582031 640.585938 248.398438 650.433594 240 660 C 243.636719 666.609375 246.730469 671.265625 253 675.5 C 254.175781 676.316406 255.351562 677.128906 256.5625 677.96875 C 271.597656 686.851562 297.347656 684.640625 314 682 C 322.4375 678.402344 327.804688 672.074219 332 664 C 332 662.679688 332 661.359375 332 660 C 333.320312 660 334.640625 660 336 660 C 336 658.679688 336 657.359375 336 656 C 337.113281 655.546875 338.226562 655.09375 339.375 654.625 C 347.925781 649.773438 354.277344 643.136719 358 634 C 359.320312 634 360.640625 634 362 634 C 365.273438 630.765625 365.273438 630.765625 368.625 626.625 C 374.117188 620.074219 379.902344 613.980469 386 608 C 392.550781 601.550781 399.089844 595.089844 405.625 588.625 C 407.390625 586.890625 409.160156 585.15625 410.980469 583.371094 C 412.648438 581.714844 414.320312 580.058594 416.039062 578.351562 C 417.566406 576.84375 419.097656 575.335938 420.671875 573.785156 C 424.441406 570.339844 424.441406 570.339844 424 566 C 425.320312 566 426.640625 566 428 566 C 428 564.679688 428 563.359375 428 562 C 429.320312 562 430.640625 562 432 562 C 432 560.679688 432 559.359375 432 558 C 433.980469 557.339844 435.960938 556.679688 438 556 C 438 554.679688 438 553.359375 438 552 C 439.320312 552 440.640625 552 442 552 C 447.339844 543.988281 446.40625 537.085938 446.21875 527.804688 C 446.179688 523.980469 446.144531 520.160156 446.113281 516.335938 C 446.082031 513.3125 446.082031 513.3125 446.046875 510.226562 C 445.917969 493.359375 446.167969 476.488281 446.414062 459.621094 C 446.472656 455.238281 446.515625 450.851562 446.542969 446.46875 C 446.585938 440.023438 446.675781 433.578125 446.78125 427.132812 C 446.785156 425.183594 446.785156 423.234375 446.789062 421.222656 C 447.121094 405.769531 451.113281 398.886719 462 388 C 462 386.679688 462 385.359375 462 384 C 464.640625 382.679688 467.28125 381.359375 470 380 C 470 378.679688 470 377.359375 470 376 C 471.320312 376 472.640625 376 474 376 C 474 374.679688 474 373.359375 474 372 C 475.320312 372 476.640625 372 478 372 C 481.332031 369.332031 481.332031 369.332031 484 366 C 484 364.679688 484 363.359375 484 362 C 485.320312 362 486.640625 362 488 362 C 488 360.679688 488 359.359375 488 358 C 489.320312 358 490.640625 358 492 358 C 492 356.679688 492 355.359375 492 354 C 493.320312 354 494.640625 354 496 354 C 496 352.679688 496 351.359375 496 350 C 497.320312 350 498.640625 350 500 350 C 503.472656 346.488281 503.472656 346.488281 507 342.125 C 513.59375 334.203125 513.59375 334.203125 518 332 C 518 330.679688 518 329.359375 518 328 C 519.320312 328 520.640625 328 522 328 C 525.203125 324.757812 525.203125 324.757812 528.5 320.625 C 534.488281 313.5625 540.882812 307.933594 548 302 C 551.761719 297.929688 555.382812 293.765625 558.96875 289.539062 C 562 286 562 286 566 282 C 566.335938 276.875 566.335938 276.875 566 271 C 565.6875 249.292969 570.101562 229.609375 584.75 212.898438 C 603.171875 196.46875 622.152344 194.644531 645.753906 195.605469 C 654.234375 196.390625 660.820312 199.683594 668 204 C 671.324219 205.355469 674.652344 206.703125 678 208 C 678 209.320312 678 210.640625 678 212 C 679.320312 212 680.640625 212 682 212 C 682.554688 213.117188 683.109375 214.234375 683.679688 215.382812 C 685.265625 218.535156 686.875 221.675781 688.507812 224.804688 C 689.371094 226.476562 690.234375 228.152344 691.125 229.875 C 692.429688 232.378906 692.429688 232.378906 693.757812 234.929688 C 701.167969 251.683594 699.394531 270.691406 693.734375 287.671875 C 691.671875 292.816406 689.035156 297.371094 686 302 C 686 303.320312 686 304.640625 686 306 C 684.679688 306 683.359375 306 682 306 C 680.554688 307.484375 679.113281 308.96875 677.625 310.5 C 664.984375 322.863281 651.425781 327.402344 634.125 328.5 C 626.6875 328.308594 619.746094 326.875 612.546875 325.070312 C 610.296875 324.539062 610.296875 324.539062 608 324 C 606.148438 323.496094 604.292969 322.992188 602.386719 322.472656 C 593.992188 321.851562 591.6875 324.046875 585.273438 329.359375 C 584.277344 330.175781 583.28125 330.992188 582.253906 331.835938 C 578.964844 334.570312 575.734375 337.363281 572.515625 340.179688 C 571.398438 341.152344 570.28125 342.121094 569.132812 343.121094 C 560.671875 350.53125 552.429688 358.15625 544.25 365.875 C 543.054688 366.992188 541.859375 368.113281 540.628906 369.265625 C 511 397.175781 488.9375 421.503906 486.894531 463.523438 C 486.769531 487.855469 489.402344 512.121094 494 536 C 496.53125 536.046875 499.0625 536.09375 501.671875 536.140625 C 503.097656 536.167969 504.519531 536.191406 505.988281 536.21875 C 517.1875 535.605469 524.910156 525.75 532 518 C 532 516.679688 532 515.359375 532 514 C 533.320312 514 534.640625 514 536 514 C 536 512.679688 536 511.359375 536 510 C 537.320312 510 538.640625 510 540 510 C 543.421875 506.757812 546.746094 503.410156 550 500 C 551.527344 498.554688 553.050781 497.113281 554.625 495.625 C 558.453125 492.335938 558.453125 492.335938 558 488 C 559.320312 488 560.640625 488 562 488 C 562 486.679688 562 485.359375 562 484 C 563.320312 484 564.640625 484 566 484 C 568.730469 481.292969 568.730469 481.292969 571.632812 477.609375 C 578.183594 469.902344 585.113281 462.738281 592.304688 455.640625 C 593.949219 454.011719 593.949219 454.011719 595.628906 452.351562 C 600.214844 447.820312 604.804688 443.296875 609.40625 438.785156 C 612.796875 435.453125 616.175781 432.109375 619.554688 428.765625 C 621.128906 427.230469 621.128906 427.230469 622.734375 425.667969 C 625.234375 423.1875 627.628906 420.601562 630 418 C 630 416.679688 630 415.359375 630 414 C 631.074219 413.546875 632.144531 413.09375 633.25 412.625 C 637.453125 410.304688 640.613281 407.957031 644.25 404.875 C 651.792969 398.480469 654.894531 397.742188 664.550781 397.589844 C 666.753906 397.550781 668.957031 397.507812 671.222656 397.46875 C 674.800781 397.417969 674.800781 397.417969 678.453125 397.367188 C 680.890625 397.324219 683.324219 397.285156 685.835938 397.242188 C 693.640625 397.109375 701.445312 396.992188 709.25 396.875 C 714.53125 396.789062 719.8125 396.703125 725.09375 396.613281 C 738.0625 396.398438 751.03125 396.195312 764 396 C 764.234375 366.808594 764.410156 337.621094 764.519531 308.429688 C 764.570312 294.875 764.640625 281.320312 764.753906 267.765625 C 764.863281 254.679688 764.921875 241.597656 764.949219 228.511719 C 764.96875 223.523438 765.003906 218.535156 765.058594 213.546875 C 765.128906 206.550781 765.140625 199.558594 765.136719 192.5625 C 765.171875 190.507812 765.207031 188.449219 765.246094 186.332031 C 765.152344 173.480469 763.039062 163.636719 754 154 C 752.679688 154 751.359375 154 750 154 C 750 152.679688 750 151.359375 750 150 C 737.613281 142.804688 728.671875 140.84375 714.464844 140.996094 C 712.558594 140.988281 710.648438 140.976562 708.683594 140.964844 C 702.320312 140.9375 695.960938 140.964844 689.597656 140.996094 C 685.023438 140.988281 680.449219 140.976562 675.875 140.964844 C 663.472656 140.9375 651.074219 140.957031 638.675781 140.992188 C 625.695312 141.019531 612.714844 141.007812 599.734375 141 C 577.941406 140.992188 556.148438 141.019531 534.355469 141.066406 C 511.945312 141.113281 489.535156 141.128906 467.121094 141.109375 C 440.09375 141.082031 413.0625 141.085938 386.03125 141.121094 C 375.714844 141.128906 365.398438 141.128906 355.082031 141.121094 C 342.9375 141.113281 330.792969 141.132812 318.648438 141.175781 C 314.1875 141.1875 309.730469 141.1875 305.273438 141.175781 C 299.191406 141.164062 293.109375 141.191406 287.027344 141.226562 C 285.257812 141.210938 283.492188 141.199219 281.671875 141.1875 C 266.234375 141.347656 256.042969 145.894531 246 158 Z M 610 248 C 606.269531 254.976562 605.023438 260.691406 607.289062 268.367188 C 610.90625 276.222656 614.453125 281.484375 622 286 C 630.96875 287.488281 639.390625 287 647.875 283.75 C 655.1875 277.101562 657.660156 270.71875 658.875 261 C 657.625 251.015625 653.214844 245.570312 646.625 238.25 C 632.292969 231.277344 619.34375 235.664062 610 248 Z M 358 256 C 357.339844 256.660156 356.679688 257.320312 356 258 C 355.242188 265.863281 355.316406 270.6875 359 277.75 C 365.699219 283.441406 371.292969 284.625 380 284 C 387.242188 280.851562 389.585938 278.621094 394 272 C 395.167969 265.167969 395.167969 265.167969 394 258 C 389.375 252.207031 389.375 252.207031 384 248 C 383.339844 247.339844 382.679688 246.679688 382 246 C 369.964844 244.613281 365.671875 246.75 358 256 Z M 681.679688 445.617188 C 670.34375 445.363281 663.992188 450.546875 656.042969 458.078125 C 651.492188 462.539062 647.050781 467.101562 642.617188 471.679688 C 640.226562 474.09375 637.828125 476.5 635.429688 478.90625 C 630.429688 483.9375 625.453125 488.996094 620.5 494.074219 C 614.136719 500.59375 607.734375 507.070312 601.3125 513.53125 C 595.191406 519.691406 589.089844 525.871094 582.992188 532.054688 C 581.824219 533.238281 580.65625 534.417969 579.449219 535.636719 C 576.164062 538.96875 572.894531 542.3125 569.628906 545.664062 C 568.648438 546.65625 567.664062 547.648438 566.652344 548.671875 C 561.464844 553.464844 561.464844 553.464844 560 560 C 558.679688 560 557.359375 560 556 560 C 556 561.320312 556 562.640625 556 564 C 554.679688 564 553.359375 564 552 564 C 550.886719 565.484375 549.773438 566.96875 548.625 568.5 C 542.1875 576.152344 535.363281 581.347656 525.339844 582.570312 C 518.464844 582.691406 511.632812 582.570312 504.765625 582.273438 C 494.859375 582.269531 494.859375 582.269531 486.402344 586.894531 C 484.113281 589.570312 481.914062 592.320312 479.789062 595.125 C 475.402344 600.769531 470.554688 605.609375 465.445312 610.609375 C 462.671875 613.347656 462.671875 613.347656 459.839844 616.140625 C 456.957031 618.976562 454.066406 621.804688 451.175781 624.632812 C 448.339844 627.40625 445.515625 630.195312 442.695312 632.984375 C 441.023438 634.621094 439.355469 636.257812 437.632812 637.945312 C 433.554688 641.589844 433.554688 641.589844 434 646 C 430.039062 647.980469 430.039062 647.980469 426 650 C 426 651.320312 426 652.640625 426 654 C 424.679688 654 423.359375 654 422 654 C 422 655.320312 422 656.640625 422 658 C 420.679688 658 419.359375 658 418 658 C 414.667969 660.667969 414.667969 660.667969 412 664 C 412 665.320312 412 666.640625 412 668 C 410.679688 668 409.359375 668 408 668 C 408 669.320312 408 670.640625 408 672 C 406.679688 672 405.359375 672 404 672 C 400.710938 676.925781 400.710938 676.925781 398 682 C 441.273438 682.1875 484.542969 682.328125 527.816406 682.414062 C 547.90625 682.457031 568 682.511719 588.09375 682.605469 C 605.609375 682.683594 623.121094 682.734375 640.636719 682.753906 C 649.910156 682.761719 659.179688 682.789062 668.453125 682.847656 C 677.1875 682.898438 685.917969 682.917969 694.652344 682.90625 C 697.851562 682.90625 701.050781 682.921875 704.25 682.953125 C 724.050781 683.132812 738.082031 682.59375 753.625 669.125 C 763.75 657.261719 764.886719 649.171875 764.863281 633.953125 C 764.886719 631.945312 764.90625 629.933594 764.925781 627.863281 C 764.988281 621.226562 765.003906 614.59375 765.023438 607.960938 C 765.058594 603.355469 765.09375 598.753906 765.132812 594.148438 C 765.226562 582.039062 765.285156 569.929688 765.339844 557.820312 C 765.398438 545.460938 765.492188 533.097656 765.582031 520.738281 C 765.753906 496.492188 765.890625 472.246094 766 448 C 757.820312 447.710938 749.644531 447.425781 741.464844 447.144531 C 738.691406 447.050781 735.917969 446.953125 733.144531 446.855469 C 711.800781 445.96875 711.800781 445.96875 690.449219 445.925781 C 686 446 686 446 681.679688 445.617188 Z M 352 714 C 348.988281 716.90625 345.992188 719.824219 343 722.75 C 341.328125 724.375 339.660156 726 337.9375 727.671875 C 333.550781 731.519531 333.550781 731.519531 334 736 C 332.679688 736 331.359375 736 330 736 C 326.726562 739.234375 326.726562 739.234375 323.375 743.375 C 319.128906 748.394531 314.890625 753.214844 310.125 757.75 C 305.535156 761.492188 305.535156 761.492188 306 766 C 304.679688 766 303.359375 766 302 766 C 298.726562 769.234375 298.726562 769.234375 295.375 773.375 C 291.128906 778.394531 286.890625 783.214844 282.125 787.75 C 277.535156 791.492188 277.535156 791.492188 278 796 C 276.679688 796 275.359375 796 274 796 C 269.476562 800.53125 269.476562 800.53125 266 806 C 266.660156 807.980469 267.320312 809.960938 268 812 C 283.179688 812 298.359375 812 314 812 C 306.792969 846.398438 306.792969 846.398438 301.75 860.125 C 299.890625 866.371094 299.691406 871.519531 300 878 C 306.527344 875.824219 307.757812 874.5 312 869.375 C 316.492188 864.050781 321.046875 858.828125 325.804688 853.742188 C 326.804688 852.667969 327.808594 851.597656 328.839844 850.492188 C 330.847656 848.347656 332.863281 846.207031 334.886719 844.074219 C 340.328125 838.90625 340.328125 838.90625 342 832 C 343.320312 832 344.640625 832 346 832 C 346 830.679688 346 829.359375 346 828 C 347.320312 828 348.640625 828 350 828 C 350 826.679688 350 825.359375 350 824 C 351.320312 824 352.640625 824 354 824 C 356.949219 820.683594 359.761719 817.242188 362.5 813.75 C 367.773438 807.121094 372.953125 800.804688 379.125 795 C 384.699219 790.449219 384.699219 790.449219 384 784 C 368.820312 783.339844 353.640625 782.679688 338 782 C 342.476562 761.851562 342.476562 761.851562 345.085938 753.335938 C 345.890625 750.632812 345.890625 750.632812 346.714844 747.878906 C 347.835938 744.167969 348.964844 740.460938 350.105469 736.753906 C 350.636719 734.964844 351.164062 733.179688 351.710938 731.335938 C 352.441406 728.929688 352.441406 728.929688 353.1875 726.476562 C 354.070312 721.613281 353.554688 718.644531 352 714 Z M 352 714 "/>
<path style=" stroke:none;fill-rule:nonzero;fill:rgb(13.725491%,84.313726%,31.37255%);fill-opacity:1;" d="M 697.484375 532.617188 C 708.347656 540.753906 718.113281 550.769531 722 564 C 725.105469 600.269531 725.105469 600.269531 714 614 C 713.003906 615.242188 712.007812 616.484375 710.984375 617.765625 C 699.164062 630.90625 684.636719 637.058594 667.101562 638.203125 C 649.769531 637.511719 635.332031 630.09375 623.625 617.5 C 611.464844 602.371094 610.300781 587.066406 612 568 C 614.6875 553.554688 623.964844 541.820312 635.742188 533.289062 C 654.234375 522.273438 678.835938 521.816406 697.484375 532.617188 Z M 654 572 C 651.59375 579.382812 651.3125 582.59375 654.75 589.625 C 657.640625 593.734375 657.640625 593.734375 660 596 C 667.640625 596.722656 672.3125 597.082031 678.875 592.875 C 683.238281 586.066406 683.273438 581.929688 682 574 C 677.152344 568.597656 674.042969 566.347656 666.875 565.125 C 660.835938 566.210938 658.199219 567.5 654 572 Z M 654 572 "/>
<path style=" stroke:none;fill-rule:nonzero;fill:rgb(20.392157%,77.64706%,34.117648%);fill-opacity:1;" d="M 188 148 C 188.660156 148 189.320312 148 190 148 C 191.523438 156.632812 192.320312 163.488281 190 172 C 188.679688 172 187.359375 172 186 172 C 186 174.347656 186.003906 176.695312 186.003906 179.117188 C 186.050781 234.9375 186.082031 290.757812 186.101562 346.578125 C 186.105469 353.457031 186.105469 360.335938 186.109375 367.214844 C 186.109375 368.585938 186.109375 369.953125 186.113281 371.363281 C 186.121094 393.503906 186.136719 415.640625 186.15625 437.777344 C 186.171875 460.515625 186.183594 483.25 186.1875 505.988281 C 186.191406 518.75 186.195312 531.511719 186.210938 544.273438 C 186.226562 556.296875 186.230469 568.316406 186.226562 580.339844 C 186.226562 584.742188 186.230469 589.144531 186.238281 593.546875 C 186.308594 636.269531 186.308594 636.269531 184 656 C 183.339844 656 182.679688 656 182 656 C 181.863281 593.015625 181.757812 530.035156 181.695312 467.050781 C 181.6875 459.617188 181.679688 452.179688 181.671875 444.746094 C 181.667969 443.265625 181.667969 441.785156 181.664062 440.257812 C 181.640625 416.289062 181.59375 392.320312 181.535156 368.351562 C 181.480469 343.757812 181.449219 319.164062 181.433594 294.570312 C 181.425781 279.394531 181.402344 264.214844 181.351562 249.039062 C 181.316406 237.402344 181.3125 225.769531 181.320312 214.132812 C 181.320312 209.359375 181.308594 204.582031 181.285156 199.808594 C 181.253906 193.296875 181.261719 186.785156 181.277344 180.273438 C 181.261719 178.378906 181.242188 176.484375 181.226562 174.53125 C 181.296875 164.132812 182.332031 157.082031 188 148 Z M 188 148 "/>
<path style=" stroke:none;fill-rule:nonzero;fill:rgb(12.156863%,38.431373%,17.647059%);fill-opacity:1;" d="M 679.90625 443.773438 C 681.867188 443.773438 683.828125 443.773438 685.847656 443.773438 C 687.949219 443.785156 690.050781 443.792969 692.21875 443.804688 C 694.382812 443.808594 696.546875 443.808594 698.777344 443.8125 C 705.683594 443.824219 712.59375 443.847656 719.5 443.875 C 724.183594 443.886719 728.871094 443.894531 733.554688 443.902344 C 745.035156 443.925781 756.519531 443.957031 768 444 C 768.355469 470.71875 768.6875 497.441406 768.988281 524.164062 C 769.132812 536.570312 769.28125 548.976562 769.449219 561.382812 C 769.609375 573.351562 769.75 585.320312 769.875 597.292969 C 769.925781 601.863281 769.984375 606.433594 770.050781 611.003906 C 770.144531 617.394531 770.210938 623.789062 770.269531 630.179688 C 770.304688 632.078125 770.335938 633.976562 770.371094 635.929688 C 770.382812 637.675781 770.394531 639.421875 770.40625 641.21875 C 770.421875 642.730469 770.441406 644.242188 770.460938 645.796875 C 769.933594 650.597656 768.382812 653.835938 766 658 C 764.679688 658 763.359375 658 762 658 C 762 659.980469 762 661.960938 762 664 C 760.679688 664 759.359375 664 758 664 C 758.972656 662.125 758.972656 662.125 759.960938 660.210938 C 762.785156 651.609375 762.601562 643.597656 762.605469 634.601562 C 762.632812 631.6875 762.632812 631.6875 762.65625 628.714844 C 762.707031 622.304688 762.734375 615.894531 762.757812 609.484375 C 762.789062 605.027344 762.824219 600.574219 762.859375 596.117188 C 762.953125 584.394531 763.023438 572.671875 763.085938 560.949219 C 763.1875 542.171875 763.320312 523.394531 763.460938 504.617188 C 763.507812 498.050781 763.539062 491.484375 763.570312 484.917969 C 763.597656 480.90625 763.625 476.894531 763.652344 472.882812 C 763.65625 471.050781 763.664062 469.214844 763.667969 467.328125 C 763.6875 464.8125 763.6875 464.8125 763.710938 462.246094 C 763.722656 460.0625 763.722656 460.0625 763.734375 457.832031 C 764 454 764 454 766 448 C 754.9375 447.949219 743.871094 447.914062 732.808594 447.890625 C 729.050781 447.878906 725.292969 447.867188 721.539062 447.847656 C 716.109375 447.824219 710.683594 447.8125 705.257812 447.804688 C 703.601562 447.792969 701.945312 447.785156 700.238281 447.773438 C 680.777344 447.171875 680.777344 447.171875 662.875 453.125 C 661.925781 454.074219 660.976562 455.023438 660 456 C 660.660156 452.699219 661.320312 449.398438 662 446 C 668.113281 444.21875 673.546875 443.757812 679.90625 443.773438 Z M 679.90625 443.773438 "/>
<path style=" stroke:none;fill-rule:nonzero;fill:rgb(18.039216%,70.19608%,30.980393%);fill-opacity:1;" d="M 398 320 C 399.320312 320.660156 400.640625 321.320312 402 322 C 401.878906 344.21875 401.722656 366.4375 401.527344 388.65625 C 401.4375 398.972656 401.359375 409.289062 401.308594 419.609375 C 401.253906 429.566406 401.175781 439.527344 401.074219 449.484375 C 401.039062 453.285156 401.015625 457.082031 401.003906 460.878906 C 400.984375 466.203125 400.929688 471.523438 400.863281 476.847656 C 400.867188 478.414062 400.871094 479.980469 400.875 481.589844 C 400.597656 497.765625 393.265625 508.839844 382 520 C 378.109375 523.007812 374.234375 525.480469 370 528 C 370.625 524.125 370.625 524.125 372 520 C 374.96875 519.011719 374.96875 519.011719 378 518 C 378 516.019531 378 514.039062 378 512 C 379.980469 512 381.960938 512 384 512 C 384.660156 509.359375 385.320312 506.71875 386 504 C 387.320312 504 388.640625 504 390 504 C 390 502.019531 390 500.039062 390 498 C 391.320312 498 392.640625 498 394 498 C 393.988281 496.582031 393.980469 495.164062 393.96875 493.703125 C 393.925781 487.09375 393.902344 480.484375 393.875 473.875 C 393.859375 471.644531 393.839844 469.417969 393.824219 467.121094 C 393.789062 455.484375 394.0625 443.980469 394.9375 432.375 C 396.546875 410.324219 396.722656 388.226562 397.125 366.125 C 397.210938 361.636719 397.300781 357.148438 397.386719 352.660156 C 397.597656 341.773438 397.800781 330.886719 398 320 Z M 398 320 "/>
<path style=" stroke:none;fill-rule:nonzero;fill:rgb(19.607843%,74.117649%,32.549021%);fill-opacity:1;" d="M 182 658 C 183.320312 658 184.640625 658 186 658 C 186.019531 659.894531 186.042969 661.789062 186.0625 663.738281 C 186.257812 681.628906 186.464844 699.519531 186.679688 717.410156 C 186.789062 726.605469 186.894531 735.800781 186.996094 744.996094 C 187.089844 753.878906 187.195312 762.761719 187.304688 771.644531 C 187.347656 775.027344 187.382812 778.40625 187.417969 781.789062 C 187.464844 786.542969 187.527344 791.292969 187.589844 796.046875 C 187.601562 797.429688 187.613281 798.8125 187.625 800.234375 C 187.765625 809.640625 188.707031 818.699219 190 828 C 188.679688 828 187.359375 828 186 828 C 181.875 812.609375 181.285156 797.992188 181.101562 782.101562 C 181.058594 779.414062 181.015625 776.726562 180.96875 774.039062 C 180.878906 768.425781 180.800781 762.816406 180.734375 757.203125 C 180.648438 750.089844 180.535156 742.980469 180.410156 735.871094 C 180.316406 730.320312 180.234375 724.773438 180.160156 719.226562 C 180.101562 715.355469 180.039062 711.484375 179.976562 707.617188 C 179.789062 690.953125 180.5625 674.601562 182 658 Z M 182 658 "/>
<path style=" stroke:none;fill-rule:nonzero;fill:rgb(14.509805%,60.392159%,24.313726%);fill-opacity:1;" d="M 664.453125 396.242188 C 666.515625 396.339844 668.578125 396.4375 670.703125 396.535156 C 672.863281 396.648438 675.023438 396.757812 677.25 396.875 C 679.425781 396.980469 681.601562 397.082031 683.84375 397.191406 C 689.230469 397.453125 694.613281 397.722656 700 398 C 700 398.660156 700 399.320312 700 400 C 682.839844 400.660156 665.679688 401.320312 648 402 C 648 403.320312 648 404.640625 648 406 C 646.679688 406.660156 645.359375 407.320312 644 408 C 643.339844 409.980469 642.679688 411.960938 642 414 C 640.679688 414 639.359375 414 638 414 C 638 415.320312 638 416.640625 638 418 C 636.019531 418.660156 634.039062 419.320312 632 420 C 631.339844 421.980469 630.679688 423.960938 630 426 C 626.125 430.375 626.125 430.375 622 434 C 620.679688 434 619.359375 434 618 434 C 617.753906 435.855469 617.753906 435.855469 617.5 437.75 C 616 442 616 442 612 444.25 C 610.679688 444.828125 609.359375 445.40625 608 446 C 607.339844 447.320312 606.679688 448.640625 606 450 C 604.019531 450.660156 602.039062 451.320312 600 452 C 597.53125 455.578125 597.53125 455.578125 595.625 459.875 C 594.9375 461.296875 594.25 462.714844 593.539062 464.179688 C 591.75 467.933594 591.75 467.933594 592 472 C 590.679688 472 589.359375 472 588 472 C 588 473.320312 588 474.640625 588 476 C 584.699219 476 581.398438 476 578 476 C 578.804688 466.21875 583.566406 461.375 590.34375 454.875 C 591.382812 453.847656 592.421875 452.820312 593.492188 451.761719 C 596.808594 448.488281 600.152344 445.242188 603.5 442 C 605.71875 439.820312 607.9375 437.636719 610.15625 435.453125 C 614.257812 431.417969 618.367188 427.394531 622.492188 423.382812 C 626.179688 419.777344 629.851562 416.148438 633.496094 412.5 C 650.464844 395.550781 650.464844 395.550781 664.453125 396.242188 Z M 664.453125 396.242188 "/>
<path style=" stroke:none;fill-rule:nonzero;fill:rgb(15.294118%,72.156864%,29.411766%);fill-opacity:1;" d="M 350 704 C 350.660156 705.320312 351.320312 706.640625 352 708 C 353.980469 708 355.960938 708 358 708 C 357.339844 714.601562 356.679688 721.199219 356 728 C 354.679688 728 353.359375 728 352 728 C 352 724.039062 352 720.078125 352 716 C 349.367188 718.578125 346.746094 721.160156 344.125 723.75 C 342.664062 725.1875 341.203125 726.628906 339.695312 728.109375 C 335.886719 731.742188 335.886719 731.742188 334 736 C 332.679688 736 331.359375 736 330 736 C 329.226562 737.746094 329.226562 737.746094 328.4375 739.53125 C 325.804688 744.359375 322.898438 747.636719 319 751.5 C 317.175781 753.339844 317.175781 753.339844 315.3125 755.21875 C 312 758 312 758 308 758 C 308.660156 753.378906 309.320312 748.761719 310 744 C 311.855469 743.503906 313.710938 743.011719 315.625 742.5 C 322.328125 739.871094 324.375 738.039062 328 732 C 326.679688 732 325.359375 732 324 732 C 324.660156 729.359375 325.320312 726.71875 326 724 C 329.300781 724.660156 332.601562 725.320312 336 726 C 336 724.679688 336 723.359375 336 722 C 337.320312 722 338.640625 722 340 722 C 339.339844 718.039062 338.679688 714.078125 338 710 C 339.320312 710 340.640625 710 342 710 C 342 711.320312 342 712.640625 342 714 C 343.980469 714 345.960938 714 348 714 C 348.660156 710.699219 349.320312 707.398438 350 704 Z M 350 704 "/>
<path style=" stroke:none;fill-rule:nonzero;fill:rgb(15.686275%,61.56863%,26.274511%);fill-opacity:1;" d="M 474 372 C 475.320312 372.660156 476.640625 373.320312 478 374 C 477.339844 377.300781 476.679688 380.601562 476 384 C 474.019531 384 472.039062 384 470 384 C 470 385.980469 470 387.960938 470 390 C 468.679688 390 467.359375 390 466 390 C 465.339844 391.980469 464.679688 393.960938 464 396 C 462.679688 395.339844 461.359375 394.679688 460 394 C 459.835938 395.855469 459.671875 397.710938 459.5 399.625 C 458 406 458 406 453.972656 408.816406 C 449.625 411.636719 449.625 411.636719 448.960938 416.289062 C 448.945312 417.945312 448.925781 419.601562 448.90625 421.308594 C 448.867188 423.191406 448.828125 425.074219 448.789062 427.011719 C 448.785156 429.035156 448.785156 431.0625 448.78125 433.148438 C 448.75 435.226562 448.714844 437.304688 448.679688 439.445312 C 448.582031 446.089844 448.542969 452.730469 448.5 459.375 C 448.445312 463.875 448.382812 468.378906 448.320312 472.878906 C 448.171875 483.917969 448.070312 494.960938 448 506 C 446.679688 505.339844 445.359375 504.679688 444 504 C 444.082031 490.261719 444.226562 476.527344 444.414062 462.789062 C 444.472656 458.117188 444.515625 453.445312 444.542969 448.773438 C 444.585938 442.050781 444.679688 435.332031 444.78125 428.609375 C 444.785156 426.527344 444.785156 424.445312 444.789062 422.300781 C 445.03125 410.1875 446.09375 403.3125 454 394 C 455.320312 392.265625 456.640625 390.535156 458 388.75 C 461.816406 384.21875 465.597656 379.964844 470 376 C 471.320312 376 472.640625 376 474 376 C 474 374.679688 474 373.359375 474 372 Z M 474 372 "/>
<path style=" stroke:none;fill-rule:nonzero;fill:rgb(14.901961%,69.803923%,26.666668%);fill-opacity:1;" d="M 294 534 C 294 535.980469 294 537.960938 294 540 C 292.679688 541.320312 291.359375 542.640625 290 544 C 290 545.980469 290 547.960938 290 550 C 286.78125 555.328125 286.78125 555.328125 282.5 561.25 C 281.109375 563.214844 279.714844 565.179688 278.28125 567.203125 C 273.828125 572.195312 272.332031 573.003906 266 574 C 264.019531 576.042969 264.019531 576.042969 262 578.125 C 258 582 258 582 250 582 C 250 580.679688 250 579.359375 250 578 C 251.320312 578 252.640625 578 254 578 C 254.773438 576.253906 254.773438 576.253906 255.5625 574.46875 C 258.195312 569.640625 261.101562 566.363281 265 562.5 C 266.21875 561.273438 267.433594 560.046875 268.6875 558.78125 C 272 556 272 556 276 556 C 276.511719 554.835938 277.019531 553.667969 277.546875 552.46875 C 280.234375 547.570312 283.234375 544.363281 287.25 540.5 C 288.511719 539.273438 289.777344 538.046875 291.078125 536.78125 C 292.523438 535.40625 292.523438 535.40625 294 534 Z M 294 534 "/>
<path style=" stroke:none;fill-rule:nonzero;fill:rgb(20.392157%,74.901962%,34.509805%);fill-opacity:1;" d="M 490 424 C 491.980469 424.660156 493.960938 425.320312 496 426 C 496.101562 436.523438 496.171875 447.042969 496.21875 457.566406 C 496.238281 461.132812 496.265625 464.695312 496.300781 468.261719 C 496.523438 491.214844 495.539062 513.292969 492 536 C 491.339844 536 490.679688 536 490 536 C 490 499.039062 490 462.078125 490 424 Z M 490 424 "/>
<path style=" stroke:none;fill-rule:nonzero;fill:rgb(22.352941%,65.098041%,32.156864%);fill-opacity:1;" d="M 184 156 C 185.320312 156 186.640625 156 188 156 C 188 158.640625 188 161.28125 188 164 C 186.679688 164 185.359375 164 184 164 C 184 230 184 296 184 364 C 183.339844 364 182.679688 364 182 364 C 181.953125 337.472656 181.917969 310.941406 181.894531 284.414062 C 181.886719 272.09375 181.871094 259.777344 181.847656 247.460938 C 181.828125 235.582031 181.816406 223.703125 181.808594 211.824219 C 181.804688 207.285156 181.800781 202.742188 181.789062 198.203125 C 181.773438 191.863281 181.773438 185.519531 181.773438 179.179688 C 181.765625 177.289062 181.757812 175.394531 181.75 173.445312 C 181.753906 171.722656 181.757812 170 181.757812 168.226562 C 181.757812 166.726562 181.753906 165.222656 181.753906 163.679688 C 182 160 182 160 184 156 Z M 184 156 "/>
<path style=" stroke:none;fill-rule:nonzero;fill:rgb(15.294118%,47.843137%,23.137255%);fill-opacity:1;" d="M 679.90625 443.773438 C 681.867188 443.773438 683.828125 443.773438 685.847656 443.773438 C 687.949219 443.785156 690.050781 443.792969 692.21875 443.804688 C 694.382812 443.808594 696.546875 443.808594 698.777344 443.8125 C 705.683594 443.824219 712.59375 443.847656 719.5 443.875 C 724.183594 443.886719 728.871094 443.894531 733.554688 443.902344 C 745.035156 443.925781 756.519531 443.957031 768 444 C 768 445.320312 768 446.640625 768 448 C 765.609375 447.988281 763.21875 447.980469 760.757812 447.96875 C 751.824219 447.933594 742.890625 447.910156 733.953125 447.890625 C 730.101562 447.878906 726.246094 447.867188 722.390625 447.847656 C 716.828125 447.824219 711.261719 447.8125 705.695312 447.804688 C 703.996094 447.792969 702.292969 447.785156 700.542969 447.773438 C 680.925781 447.148438 680.925781 447.148438 662.875 453.125 C 661.925781 454.074219 660.976562 455.023438 660 456 C 660.660156 452.699219 661.320312 449.398438 662 446 C 668.113281 444.21875 673.546875 443.757812 679.90625 443.773438 Z M 679.90625 443.773438 "/>
<path style=" stroke:none;fill-rule:nonzero;fill:rgb(19.607843%,72.549021%,30.980393%);fill-opacity:1;" d="M 698.609375 533.8125 C 699.726562 534.535156 700.847656 535.257812 702 536 C 702 537.980469 702 539.960938 702 542 C 695.238281 542 690.332031 540.25 684 538 C 684 535.359375 684 532.71875 684 530 C 678.789062 530.175781 673.582031 530.386719 668.375 530.625 C 666.898438 530.671875 665.421875 530.714844 663.902344 530.761719 C 655.53125 530.980469 655.53125 530.980469 648.5 535 C 647.675781 535.988281 646.851562 536.980469 646 538 C 640.652344 539.339844 635.523438 539.546875 630 540 C 646.808594 519.6875 677.625 521.667969 698.609375 533.8125 Z M 698.609375 533.8125 "/>
<path style=" stroke:none;fill-rule:nonzero;fill:rgb(14.901961%,65.098041%,27.058825%);fill-opacity:1;" d="M 592 318 C 596.949219 318.988281 596.949219 318.988281 602 320 C 599.867188 321.644531 599.867188 321.644531 597.691406 323.320312 C 591.769531 328.191406 586.34375 333.402344 580.960938 338.84375 C 579.449219 340.359375 579.449219 340.359375 577.910156 341.902344 C 574.726562 345.097656 571.550781 348.296875 568.375 351.5 C 566.203125 353.679688 564.035156 355.859375 561.863281 358.039062 C 556.570312 363.355469 551.285156 368.675781 546 374 C 544 368 544 368 545.875 363.625 C 546.925781 361.832031 546.925781 361.832031 548 360 C 550.640625 360 553.28125 360 556 360 C 556.660156 358.019531 557.320312 356.039062 558 354 C 559.320312 354 560.640625 354 562 354 C 562.660156 350.699219 563.320312 347.398438 564 344 C 567.960938 342.679688 571.921875 341.359375 576 340 C 576 337.359375 576 334.71875 576 332 C 577.898438 331.546875 579.796875 331.09375 581.75 330.625 C 588.386719 328.617188 588.386719 328.617188 590.75 322.75 C 591.367188 320.398438 591.367188 320.398438 592 318 Z M 592 318 "/>
<path style=" stroke:none;fill-rule:nonzero;fill:rgb(14.901961%,58.823532%,25.882354%);fill-opacity:1;" d="M 532 314 C 534 318 534 318 533 321.875 C 531.527344 326.351562 531.527344 326.351562 534 332 C 529.378906 332.660156 524.761719 333.320312 520 334 C 519.339844 335.980469 518.679688 337.960938 518 340 C 514.8125 342.632812 514.8125 342.632812 511 345.125 C 505.488281 348.632812 505.488281 348.632812 502 354 C 500.679688 354 499.359375 354 498 354 C 498 355.320312 498 356.640625 498 358 C 496.019531 358 494.039062 358 492 358 C 492 356.679688 492 355.359375 492 354 C 493.320312 354 494.640625 354 496 354 C 496 352.679688 496 351.359375 496 350 C 497.320312 350 498.640625 350 500 350 C 500.453125 348.886719 500.90625 347.773438 501.375 346.625 C 504.75 340.675781 508.933594 336.558594 514 332 C 515.320312 332 516.640625 332 518 332 C 518 330.679688 518 329.359375 518 328 C 519.320312 328 520.640625 328 522 328 C 522.535156 326.804688 523.074219 325.609375 523.625 324.375 C 525.96875 320.054688 528.386719 317.285156 532 314 Z M 532 314 "/>
<path style=" stroke:none;fill-rule:nonzero;fill:rgb(18.039216%,67.450982%,29.019609%);fill-opacity:1;" d="M 686 220 C 696.996094 231.378906 700.269531 245.535156 700.75 261 C 700.316406 275.492188 697.242188 288.636719 688 300 C 686.625 295.375 686.625 295.375 686 290 C 688.75 286.875 688.75 286.875 692 284 C 696.550781 271.449219 696.386719 251.164062 692.210938 238.625 C 690.273438 235.007812 688.148438 231.492188 686 228 C 686 225.359375 686 222.71875 686 220 Z M 686 220 "/>
<path style=" stroke:none;fill-rule:nonzero;fill:rgb(15.294118%,59.607846%,26.274511%);fill-opacity:1;" d="M 612 568 C 612.207031 569.277344 612.414062 570.558594 612.625 571.875 C 613.078125 573.234375 613.53125 574.597656 614 576 C 615.980469 576.660156 617.960938 577.320312 620 578 C 620.660156 579.980469 621.320312 581.960938 622 584 C 620.019531 584.988281 620.019531 584.988281 618 586 C 619.21875 597.582031 619.21875 597.582031 624 608 C 625.320312 608.660156 626.640625 609.320312 628 610 C 629.25 614.125 629.25 614.125 630 618 C 628.019531 618 626.039062 618 624 618 C 621.296875 614.78125 621.296875 614.78125 618.75 610.5 C 617.898438 609.109375 617.046875 607.714844 616.171875 606.28125 C 611.789062 597.644531 611.777344 590.136719 611.875 580.5 C 611.894531 578.160156 611.910156 575.816406 611.929688 573.40625 C 611.953125 571.621094 611.976562 569.839844 612 568 Z M 612 568 "/>
<path style=" stroke:none;fill-rule:nonzero;fill:rgb(16.078432%,77.254903%,32.156864%);fill-opacity:1;" d="M 740 134 C 744.949219 135.980469 744.949219 135.980469 750 138 C 750 141.300781 750 144.601562 750 148 C 751.609375 148.535156 753.21875 149.074219 754.875 149.625 C 756.566406 150.410156 758.257812 151.191406 760 152 C 760.660156 153.980469 761.320312 155.960938 762 158 C 760.679688 159.320312 759.359375 160.640625 758 162 C 756.679688 159.359375 755.359375 156.71875 754 154 C 752.679688 154 751.359375 154 750 154 C 750 152.679688 750 151.359375 750 150 C 748.226562 149.503906 746.453125 149.011719 744.625 148.5 C 737.792969 145.921875 733.441406 142.800781 728 138 C 731.960938 138 735.921875 138 740 138 C 740 136.679688 740 135.359375 740 134 Z M 740 134 "/>
<path style=" stroke:none;fill-rule:nonzero;fill:rgb(15.686275%,65.098041%,26.666668%);fill-opacity:1;" d="M 630 622 C 636.347656 622.992188 642.039062 624.683594 648 627 C 658.074219 630.855469 665.3125 632.75 676 630 C 676 631.320312 676 632.640625 676 634 C 677.980469 634.660156 679.960938 635.320312 682 636 C 664.585938 639.074219 649.863281 637.4375 634.75 627.75 C 633.183594 626.511719 631.613281 625.273438 630 624 C 630 623.339844 630 622.679688 630 622 Z M 630 622 "/>
<path style=" stroke:none;fill-rule:nonzero;fill:rgb(15.294118%,81.960785%,32.156864%);fill-opacity:1;" d="M 550 548 C 555.75 547.75 555.75 547.75 562 548 C 563.320312 549.320312 564.640625 550.640625 566 552 C 563.25 556 563.25 556 560 560 C 558.679688 560 557.359375 560 556 560 C 556 561.320312 556 562.640625 556 564 C 554.679688 564 553.359375 564 552 564 C 551.464844 565.238281 550.925781 566.476562 550.375 567.75 C 548 572 548 572 542 576 C 542 572.699219 542 569.398438 542 566 C 543.320312 566 544.640625 566 546 566 C 546 564.679688 546 563.359375 546 562 C 547.980469 562 549.960938 562 552 562 C 552 559.359375 552 556.71875 552 554 C 550.679688 554 549.359375 554 548 554 C 548.660156 552.019531 549.320312 550.039062 550 548 Z M 550 548 "/>
<path style=" stroke:none;fill-rule:nonzero;fill:rgb(16.470589%,69.411767%,29.803923%);fill-opacity:1;" d="M 446 838 C 446.660156 839.980469 447.320312 841.960938 448 844 C 440.503906 858.433594 430.96875 870.273438 418 880 C 418 877.359375 418 874.71875 418 872 C 419.980469 872 421.960938 872 424 872 C 424 870.019531 424 868.039062 424 866 C 425.320312 866 426.640625 866 428 866 C 428 864.019531 428 862.039062 428 860 C 429.980469 860 431.960938 860 434 860 C 434 856.699219 434 853.398438 434 850 C 435.320312 850 436.640625 850 438 850 C 438 848.679688 438 847.359375 438 846 C 439.320312 846 440.640625 846 442 846 C 442 844.019531 442 842.039062 442 840 C 443.320312 839.339844 444.640625 838.679688 446 838 Z M 446 838 "/>
<path style=" stroke:none;fill-rule:nonzero;fill:rgb(23.137255%,79.607844%,37.254903%);fill-opacity:1;" d="M 338 768 C 339.320312 768 340.640625 768 342 768 C 342 771.300781 342 774.601562 342 778 C 349.921875 778 357.839844 778 366 778 C 366 779.320312 366 780.640625 366 782 C 371.941406 782 377.878906 782 384 782 C 384 782.660156 384 783.320312 384 784 C 368.820312 784 353.640625 784 338 784 C 336.148438 776.597656 335.835938 774.730469 338 768 Z M 338 768 "/>
<path style=" stroke:none;fill-rule:nonzero;fill:rgb(16.470589%,67.843139%,29.803923%);fill-opacity:1;" d="M 516 392 C 517.980469 392.660156 519.960938 393.320312 522 394 C 518.828125 401.804688 513.734375 406.671875 507.75 412.5 C 505.929688 414.285156 504.109375 416.066406 502.234375 417.90625 C 500.835938 419.257812 499.441406 420.609375 498 422 C 497.339844 420.019531 496.679688 418.039062 496 416 C 496.660156 414.679688 497.320312 413.359375 498 412 C 498.710938 408.675781 499.382812 405.34375 500 402 C 505.941406 402.988281 505.941406 402.988281 512 404 C 512 402.679688 512 401.359375 512 400 C 513.320312 400 514.640625 400 516 400 C 515.339844 398.019531 514.679688 396.039062 514 394 C 514.660156 393.339844 515.320312 392.679688 516 392 Z M 516 392 "/>
<path style=" stroke:none;fill-rule:nonzero;fill:rgb(17.254902%,63.921571%,28.627452%);fill-opacity:1;" d="M 302 812 C 305.960938 812 309.921875 812 314 812 C 314.726562 821.46875 312.746094 828.34375 309.601562 837.085938 C 306.949219 845.222656 305.492188 853.585938 304 862 C 300.644531 856.910156 299.898438 854.65625 300.851562 848.53125 C 301.4375 846.539062 302.023438 844.550781 302.625 842.5 C 305.277344 832.921875 307.050781 823.882812 308 814 C 306.019531 813.339844 304.039062 812.679688 302 812 Z M 302 812 "/>
<path style=" stroke:none;fill-rule:nonzero;fill:rgb(16.862746%,62.352943%,27.058825%);fill-opacity:1;" d="M 746 86 C 763.097656 89.894531 781.945312 96.914062 792 112 C 780.976562 110.773438 780.976562 110.773438 776.375 107.125 C 774 104 774 104 772 100 C 768.671875 99 765.339844 98.019531 761.976562 97.148438 C 755.714844 95.339844 749.941406 92.667969 744 90 C 744.660156 88.679688 745.320312 87.359375 746 86 Z M 746 86 "/>
<path style=" stroke:none;fill-rule:nonzero;fill:rgb(15.294118%,68.627453%,28.235295%);fill-opacity:1;" d="M 568 478 C 570.921875 483.292969 572 485.789062 572 492 C 569.835938 492.125 569.835938 492.125 567.625 492.25 C 561.410156 493.621094 561.410156 493.621094 557.125 499.875 C 551.5625 506.519531 548.285156 508.074219 540 510 C 542.234375 503.96875 545.226562 500.710938 550.125 496.75 C 556.015625 492.65625 556.015625 492.65625 558 488 C 559.320312 488 560.640625 488 562 488 C 562 486.679688 562 485.359375 562 484 C 563.320312 484 564.640625 484 566 484 C 566.660156 482.019531 567.320312 480.039062 568 478 Z M 568 478 "/>
<path style=" stroke:none;fill-rule:nonzero;fill:rgb(13.725491%,71.372551%,26.666668%);fill-opacity:1;" d="M 664.453125 396.242188 C 666.515625 396.339844 668.578125 396.4375 670.703125 396.535156 C 673.945312 396.703125 673.945312 396.703125 677.25 396.875 C 679.425781 396.980469 681.601562 397.082031 683.84375 397.191406 C 689.230469 397.453125 694.613281 397.722656 700 398 C 700 398.660156 700 399.320312 700 400 C 682.839844 400.660156 665.679688 401.320312 648 402 C 648 403.320312 648 404.640625 648 406 C 646.019531 406.988281 646.019531 406.988281 644 408 C 643.339844 409.980469 642.679688 411.960938 642 414 C 640.679688 414 639.359375 414 638 414 C 638 415.320312 638 416.640625 638 418 C 636.019531 418 634.039062 418 632 418 C 634.734375 411.699219 637.714844 407.980469 643 403.625 C 644.21875 402.605469 645.433594 401.589844 646.6875 400.539062 C 652.929688 395.753906 656.714844 395.859375 664.453125 396.242188 Z M 664.453125 396.242188 "/>
<path style=" stroke:none;fill-rule:nonzero;fill:rgb(10.196079%,56.470591%,18.82353%);fill-opacity:1;" d="M 320 674 C 322.640625 674 325.28125 674 328 674 C 324.25 683.5 324.25 683.5 322 688 C 320.550781 687.683594 319.101562 687.367188 317.609375 687.039062 C 312.421875 686.078125 307.535156 685.605469 302.273438 685.367188 C 300.5 685.285156 298.726562 685.199219 296.902344 685.113281 C 295.078125 685.035156 293.253906 684.957031 291.375 684.875 C 288.582031 684.746094 288.582031 684.746094 285.730469 684.613281 C 281.152344 684.402344 276.578125 684.199219 272 684 C 272 683.339844 272 682.679688 272 682 C 273.859375 681.957031 273.859375 681.957031 275.761719 681.910156 C 281.382812 681.761719 287.003906 681.570312 292.625 681.375 C 294.578125 681.328125 296.53125 681.285156 298.542969 681.238281 C 300.417969 681.167969 302.292969 681.097656 304.226562 681.023438 C 306.820312 680.945312 306.820312 680.945312 309.464844 680.863281 C 314.910156 679.828125 316.207031 677.851562 320 674 Z M 320 674 "/>
<path style=" stroke:none;fill-rule:nonzero;fill:rgb(17.254902%,83.92157%,32.941177%);fill-opacity:1;" d="M 598 454 C 597.382812 455.113281 596.761719 456.226562 596.125 457.375 C 593.882812 462.25 592.878906 466.722656 592 472 C 590.679688 472 589.359375 472 588 472 C 588 473.320312 588 474.640625 588 476 C 584.699219 476 581.398438 476 578 476 C 578.546875 466.722656 582.585938 462.53125 588.859375 456.273438 C 592 454 592 454 598 454 Z M 598 454 "/>
<path style=" stroke:none;fill-rule:nonzero;fill:rgb(17.254902%,64.313728%,27.058825%);fill-opacity:1;" d="M 212 108 C 213.320312 108 214.640625 108 216 108 C 215.339844 109.980469 214.679688 111.960938 214 114 C 212.679688 114 211.359375 114 210 114 C 209.875 116.433594 209.753906 118.867188 209.625 121.375 C 208.542969 130.347656 205.085938 134.296875 198 140 C 196.679688 140.660156 195.359375 141.320312 194 142 C 193.339844 140.019531 192.679688 138.039062 192 136 C 196.40625 127.1875 201.34375 119.320312 208 112 C 209.320312 112 210.640625 112 212 112 C 212 110.679688 212 109.359375 212 108 Z M 212 108 "/>
<path style=" stroke:none;fill-rule:nonzero;fill:rgb(18.039216%,77.64706%,31.37255%);fill-opacity:1;" d="M 348 644 C 349.320312 644.660156 350.640625 645.320312 352 646 C 348.5 653.75 348.5 653.75 344 656 C 343.464844 657.898438 342.925781 659.796875 342.375 661.75 C 340 668 340 668 335.25 671.875 C 329.601562 674.160156 327.542969 674.257812 322 672 C 325.230469 667.917969 328.570312 663.917969 332 660 C 333.320312 660 334.640625 660 336 660 C 336 658.679688 336 657.359375 336 656 C 339.25 652.585938 342.585938 649.25 346 646 C 346.660156 645.339844 347.320312 644.679688 348 644 Z M 348 644 "/>
<path style=" stroke:none;fill-rule:nonzero;fill:rgb(16.862746%,52.941179%,23.137255%);fill-opacity:1;" d="M 316 242 C 317.320312 243.980469 318.640625 245.960938 320 248 C 319.339844 249.980469 318.679688 251.960938 318 254 C 317.859375 258.457031 317.832031 262.917969 317.875 267.375 C 317.902344 270.914062 317.902344 270.914062 317.929688 274.523438 C 317.953125 276.332031 317.976562 278.136719 318 280 C 319.320312 280 320.640625 280 322 280 C 322 283.300781 322 286.601562 322 290 C 320.679688 290.660156 319.359375 291.320312 318 292 C 311.851562 273.816406 310.800781 260.527344 316 242 Z M 316 242 "/>
<path style=" stroke:none;fill-rule:nonzero;fill:rgb(15.294118%,63.137257%,27.450982%);fill-opacity:1;" d="M 418 650 C 419.320312 650.660156 420.640625 651.320312 422 652 C 422 653.980469 422 655.960938 422 658 C 420.679688 658 419.359375 658 418 658 C 417.339844 659.980469 416.679688 661.960938 416 664 C 414.679688 664 413.359375 664 412 664 C 412 665.320312 412 666.640625 412 668 C 410.679688 668 409.359375 668 408 668 C 408 669.320312 408 670.640625 408 672 C 406.679688 672 405.359375 672 404 672 C 402.679688 674.640625 401.359375 677.28125 400 680 C 398.679688 680 397.359375 680 396 680 C 396.660156 677.359375 397.320312 674.71875 398 672 C 399.320312 672 400.640625 672 402 672 C 402 670.019531 402 668.039062 402 666 C 403.320312 666 404.640625 666 406 666 C 407.320312 662.699219 408.640625 659.398438 410 656 C 411.980469 656.660156 413.960938 657.320312 416 658 C 416.660156 655.359375 417.320312 652.71875 418 650 Z M 418 650 "/>
<path style=" stroke:none;fill-rule:nonzero;fill:rgb(18.039216%,70.980394%,30.980393%);fill-opacity:1;" d="M 590 520 C 591.320312 520 592.640625 520 594 520 C 590.78125 528.148438 584.921875 533.53125 578.75 539.5 C 577.71875 540.511719 576.6875 541.527344 575.625 542.570312 C 573.09375 545.054688 570.546875 547.53125 568 550 C 567.339844 547.359375 566.679688 544.71875 566 542 C 567.320312 542 568.640625 542 570 542 C 570.660156 539.359375 571.320312 536.71875 572 534 C 574.640625 534 577.28125 534 580 534 C 580 530.699219 580 527.398438 580 524 C 582.640625 524.660156 585.28125 525.320312 588 526 C 588.660156 524.019531 589.320312 522.039062 590 520 Z M 590 520 "/>
<path style=" stroke:none;fill-rule:nonzero;fill:rgb(20%,62.7451%,30.19608%);fill-opacity:1;" d="M 184 156 C 185.320312 156 186.640625 156 188 156 C 188 158.640625 188 161.28125 188 164 C 186.679688 164 185.359375 164 184 164 C 184 189.738281 184 215.480469 184 242 C 183.339844 242 182.679688 242 182 242 C 181.949219 230.394531 181.914062 218.789062 181.890625 207.1875 C 181.878906 203.234375 181.867188 199.285156 181.847656 195.335938 C 181.824219 189.667969 181.8125 183.996094 181.804688 178.328125 C 181.792969 176.554688 181.785156 174.78125 181.773438 172.957031 C 181.773438 160.457031 181.773438 160.457031 184 156 Z M 184 156 "/>
<path style=" stroke:none;fill-rule:nonzero;fill:rgb(15.294118%,70.588237%,27.843139%);fill-opacity:1;" d="M 438 556 C 437.472656 566.746094 437.472656 566.746094 436 572 C 430.875 576 430.875 576 426 578 C 426 576.679688 426 575.359375 426 574 C 423.359375 574.660156 420.71875 575.320312 418 576 C 420.75 571 420.75 571 424 566 C 425.320312 566 426.640625 566 428 566 C 428 564.679688 428 563.359375 428 562 C 429.320312 562 430.640625 562 432 562 C 432 560.679688 432 559.359375 432 558 C 436 556 436 556 438 556 Z M 438 556 "/>
<path style=" stroke:none;fill-rule:nonzero;fill:rgb(15.294118%,61.960787%,26.274511%);fill-opacity:1;" d="M 646 234 C 646 235.320312 646 236.640625 646 238 C 647.980469 238.660156 649.960938 239.320312 652 240 C 650.019531 240.988281 650.019531 240.988281 648 242 C 646.019531 240.679688 644.039062 239.359375 642 238 C 634.488281 236.640625 627.066406 236.257812 620.296875 240.101562 C 616.667969 243.039062 616.667969 243.039062 612 248 C 610.679688 249.320312 609.359375 250.640625 608 252 C 608 248.039062 608 244.078125 608 240 C 610.640625 240 613.28125 240 616 240 C 616 238.019531 616 236.039062 616 234 C 619.5 233.609375 623 233.238281 626.5 232.875 C 628.449219 232.667969 630.398438 232.457031 632.40625 232.242188 C 637.527344 232.019531 641.164062 232.445312 646 234 Z M 646 234 "/>
<path style=" stroke:none;fill-rule:nonzero;fill:rgb(16.470589%,66.274512%,28.235295%);fill-opacity:1;" d="M 792 112 C 800.488281 119.761719 806.21875 128.085938 812 138 C 810.019531 139.980469 808.039062 141.960938 806 144 C 802.472656 137.824219 802 135.535156 802 128 C 799.359375 127.339844 796.71875 126.679688 794 126 C 793.339844 121.378906 792.679688 116.761719 792 112 Z M 792 112 "/>
<path style=" stroke:none;fill-rule:nonzero;fill:rgb(14.901961%,69.01961%,28.235295%);fill-opacity:1;" d="M 350 900 C 352.640625 900.660156 355.28125 901.320312 358 902 C 358 903.320312 358 904.640625 358 906 C 363.941406 906 369.878906 906 376 906 C 367.921875 911.386719 362.089844 912.265625 352.5 912.125 C 350.902344 912.105469 349.304688 912.089844 347.65625 912.070312 C 346.449219 912.046875 345.242188 912.023438 344 912 C 344 910.679688 344 909.359375 344 908 C 345.980469 906.679688 347.960938 905.359375 350 904 C 350 902.679688 350 901.359375 350 900 Z M 350 900 "/>
<path style=" stroke:none;fill-rule:nonzero;fill:rgb(16.470589%,63.921571%,28.627452%);fill-opacity:1;" d="M 314 578 C 315.320312 578 316.640625 578 318 578 C 315.128906 584.375 311.59375 589.242188 307 594.5 C 305.78125 595.914062 304.566406 597.324219 303.3125 598.78125 C 300 602 300 602 296 602 C 296 603.320312 296 604.640625 296 606 C 294.679688 606 293.359375 606 292 606 C 292 607.320312 292 608.640625 292 610 C 290.679688 610 289.359375 610 288 610 C 288.75 606.125 288.75 606.125 290 602 C 291.320312 601.339844 292.640625 600.679688 294 600 C 294.660156 598.019531 295.320312 596.039062 296 594 C 297.609375 593.382812 299.21875 592.761719 300.875 592.125 C 306.28125 590.46875 306.28125 590.46875 308.625 585.75 C 309.078125 584.511719 309.53125 583.273438 310 582 C 311.320312 582 312.640625 582 314 582 C 314 580.679688 314 579.359375 314 578 Z M 314 578 "/>
<path style=" stroke:none;fill-rule:nonzero;fill:rgb(15.294118%,63.921571%,27.450982%);fill-opacity:1;" d="M 390 498 C 391.980469 498.660156 393.960938 499.320312 396 500 C 390.542969 512.902344 381.671875 520.945312 370 528 C 370.625 524.125 370.625 524.125 372 520 C 373.980469 519.339844 375.960938 518.679688 378 518 C 378 516.019531 378 514.039062 378 512 C 379.980469 512 381.960938 512 384 512 C 384.660156 509.359375 385.320312 506.71875 386 504 C 387.320312 504 388.640625 504 390 504 C 390 502.019531 390 500.039062 390 498 Z M 390 498 "/>
<path style=" stroke:none;fill-rule:nonzero;fill:rgb(15.686275%,66.274512%,29.803923%);fill-opacity:1;" d="M 408 880 C 411.300781 880 414.601562 880 418 880 C 410.800781 887.632812 403.230469 894.859375 394 900 C 392.019531 900 390.039062 900 388 900 C 388 898.679688 388 897.359375 388 896 C 389.320312 895.339844 390.640625 894.679688 392 894 C 392.660156 892.019531 393.320312 890.039062 394 888 C 397.300781 888.660156 400.601562 889.320312 404 890 C 404 888.679688 404 887.359375 404 886 C 405.320312 886 406.640625 886 408 886 C 408 884.019531 408 882.039062 408 880 Z M 408 880 "/>
<path style=" stroke:none;fill-rule:nonzero;fill:rgb(15.294118%,85.09804%,32.549021%);fill-opacity:1;" d="M 270 794 C 271.320312 794 272.640625 794 274 794 C 272.738281 799.894531 270.753906 804.65625 268 810 C 267.421875 811.734375 266.84375 813.464844 266.25 815.25 C 263.621094 820.796875 261.652344 821.925781 256 824 C 256 821.359375 256 818.71875 256 816 C 257.320312 815.339844 258.640625 814.679688 260 814 C 260.707031 811.34375 261.371094 808.675781 262 806 C 263.320312 804.019531 264.640625 802.039062 266 800 C 267.320312 800 268.640625 800 270 800 C 270 798.019531 270 796.039062 270 794 Z M 270 794 "/>
<path style=" stroke:none;fill-rule:nonzero;fill:rgb(14.901961%,75.294119%,30.19608%);fill-opacity:1;" d="M 634 468 C 635.320312 471.960938 636.640625 475.921875 638 480 C 631.398438 486.601562 624.800781 493.199219 618 500 C 617.339844 498.019531 616.679688 496.039062 616 494 C 617.320312 494 618.640625 494 620 494 C 620.660156 492.019531 621.320312 490.039062 622 488 C 623.320312 488 624.640625 488 626 488 C 627.320312 482.71875 628.640625 477.441406 630 472 C 628.679688 471.339844 627.359375 470.679688 626 470 C 630 468 630 468 634 468 Z M 634 468 "/>
<path style=" stroke:none;fill-rule:nonzero;fill:rgb(15.686275%,69.803923%,27.843139%);fill-opacity:1;" d="M 350 704 C 350.660156 705.320312 351.320312 706.640625 352 708 C 353.980469 708 355.960938 708 358 708 C 357.339844 714.601562 356.679688 721.199219 356 728 C 354.679688 728 353.359375 728 352 728 C 352 724.039062 352 720.078125 352 716 C 350.019531 717.320312 348.039062 718.640625 346 720 C 346 718.679688 346 717.359375 346 716 C 344.019531 716 342.039062 716 340 716 C 339.339844 714.019531 338.679688 712.039062 338 710 C 339.320312 710 340.640625 710 342 710 C 342 711.320312 342 712.640625 342 714 C 343.980469 714 345.960938 714 348 714 C 348.660156 710.699219 349.320312 707.398438 350 704 Z M 350 704 "/>
<path style=" stroke:none;fill-rule:nonzero;fill:rgb(12.54902%,76.078433%,28.627452%);fill-opacity:1;" d="M 532 314 C 534 318 534 318 533 321.875 C 531.527344 326.351562 531.527344 326.351562 534 332 C 520.75 334.25 520.75 334.25 514 332 C 515.320312 332 516.640625 332 518 332 C 518 330.679688 518 329.359375 518 328 C 519.320312 328 520.640625 328 522 328 C 522.535156 326.804688 523.074219 325.609375 523.625 324.375 C 525.96875 320.054688 528.386719 317.285156 532 314 Z M 532 314 "/>
<path style=" stroke:none;fill-rule:nonzero;fill:rgb(15.294118%,70.588237%,29.411766%);fill-opacity:1;" d="M 598 500 C 603.28125 500 608.558594 500 614 500 C 610.832031 508.546875 604.988281 512.53125 598 518 C 598 512.058594 598 506.121094 598 500 Z M 598 500 "/>
<path style=" stroke:none;fill-rule:nonzero;fill:rgb(15.686275%,60.392159%,24.313726%);fill-opacity:1;" d="M 566 242 C 566.660156 242 567.320312 242 568 242 C 568.660156 256.519531 569.320312 271.039062 570 286 C 566.699219 287.980469 563.398438 289.960938 560 292 C 558.679688 291.339844 557.359375 290.679688 556 290 C 557.3125 288.917969 558.625 287.835938 559.976562 286.71875 C 565.03125 280.789062 564.800781 278.15625 564.375 270.5 C 564.027344 260.667969 564.507812 251.710938 566 242 Z M 566 242 "/>
<path style=" stroke:none;fill-rule:nonzero;fill:rgb(14.901961%,60.392159%,27.058825%);fill-opacity:1;" d="M 720 564 C 720.660156 564 721.320312 564 722 564 C 722.109375 569.457031 722.1875 574.914062 722.25 580.375 C 722.300781 582.683594 722.300781 582.683594 722.351562 585.035156 C 722.425781 593.628906 721.992188 600.15625 718 608 C 717.339844 608 716.679688 608 716 608 C 716.28125 602.167969 716.574219 596.332031 716.875 590.5 C 716.992188 588.023438 716.992188 588.023438 717.113281 585.5 C 717.195312 583.902344 717.28125 582.304688 717.367188 580.65625 C 717.441406 579.191406 717.515625 577.722656 717.589844 576.210938 C 718.003906 571.976562 718.863281 568.097656 720 564 Z M 720 564 "/>
<path style=" stroke:none;fill-rule:nonzero;fill:rgb(16.078432%,61.960787%,25.882354%);fill-opacity:1;" d="M 662 528 C 662 528.660156 662 529.320312 662 530 C 659.710938 530.308594 659.710938 530.308594 657.375 530.625 C 651.964844 531.46875 651.964844 531.46875 649.375 535 C 643.78125 539.972656 637.3125 539.402344 630 540 C 638.058594 530.261719 649.5 523.898438 662 528 Z M 662 528 "/>
<path style=" stroke:none;fill-rule:nonzero;fill:rgb(16.862746%,65.098041%,29.411766%);fill-opacity:1;" d="M 416 220 C 423.15625 222.386719 424.363281 224.488281 428.5 230.625 C 429.582031 232.183594 430.664062 233.746094 431.78125 235.351562 C 434 240 434 240 433.34375 244.585938 C 432.898438 245.710938 432.457031 246.839844 432 248 C 430.679688 247.339844 429.359375 246.679688 428 246 C 427.421875 244.0625 426.84375 242.121094 426.25 240.125 C 424.621094 233.800781 424.621094 233.800781 419.75 231.25 C 418.511719 230.835938 417.273438 230.425781 416 230 C 416 226.699219 416 223.398438 416 220 Z M 416 220 "/>
<path style=" stroke:none;fill-rule:nonzero;fill:rgb(20.392157%,74.901962%,33.725491%);fill-opacity:1;" d="M 190 832 C 197.703125 834.566406 199.75 837.113281 204 844 C 204.664062 849.523438 204.378906 854.402344 204 860 C 195.976562 855.988281 192.789062 846.152344 190 838 C 190 836.019531 190 834.039062 190 832 Z M 190 832 "/>
<path style=" stroke:none;fill-rule:nonzero;fill:rgb(18.039216%,70.980394%,32.941177%);fill-opacity:1;" d="M 422 290 C 424.640625 290.660156 427.28125 291.320312 430 292 C 427.199219 302.582031 420.289062 307.550781 412 314 C 412 310.699219 412 307.398438 412 304 C 413.917969 303.320312 413.917969 303.320312 415.875 302.625 C 420.542969 300.296875 420.542969 300.296875 421.5 294.75 C 421.664062 293.183594 421.828125 291.613281 422 290 Z M 422 290 "/>
<path style=" stroke:none;fill-rule:nonzero;fill:rgb(15.294118%,67.843139%,28.627452%);fill-opacity:1;" d="M 554 292 C 554 298.40625 552.511719 302.1875 550 308 C 548.019531 308 546.039062 308 544 308 C 544 309.320312 544 310.640625 544 312 C 540.699219 312.660156 537.398438 313.320312 534 314 C 537.230469 309.917969 540.570312 305.917969 544 302 C 545.320312 302 546.640625 302 548 302 C 548.617188 300.722656 549.238281 299.441406 549.875 298.125 C 552 294 552 294 554 292 Z M 554 292 "/>
<path style=" stroke:none;fill-rule:nonzero;fill:rgb(18.039216%,63.921571%,28.235295%);fill-opacity:1;" d="M 352 206 C 353.320312 206.660156 354.640625 207.320312 356 208 C 354.0625 209.238281 352.121094 210.476562 350.125 211.75 C 343.941406 215.3125 343.941406 215.3125 342 220 C 336.125 224.019531 333.214844 226 326 226 C 342.300781 209.234375 342.300781 209.234375 352 206 Z M 352 206 "/>
<path style=" stroke:none;fill-rule:nonzero;fill:rgb(16.862746%,61.56863%,29.019609%);fill-opacity:1;" d="M 256 142 C 259.960938 142 263.921875 142 268 142 C 264.085938 144.609375 260.128906 147.15625 256.125 149.625 C 250.125 153.910156 246.292969 158.058594 242 164 C 242 160.699219 242 157.398438 242 154 C 243.320312 154 244.640625 154 246 154 C 247.320312 151.359375 248.640625 148.71875 250 146 C 251.980469 146 253.960938 146 256 146 C 256 144.679688 256 143.359375 256 142 Z M 256 142 "/>
<path style=" stroke:none;fill-rule:nonzero;fill:rgb(16.078432%,66.666669%,28.235295%);fill-opacity:1;" d="M 242 650 C 243.980469 650.660156 245.960938 651.320312 248 652 C 246.515625 654.226562 246.515625 654.226562 245 656.5 C 241.363281 662.125 241.363281 662.125 242 670 C 239.359375 669.339844 236.71875 668.679688 234 668 C 235.75 658.5 235.75 658.5 238 654 C 239.320312 654 240.640625 654 242 654 C 242 652.679688 242 651.359375 242 650 Z M 242 650 "/>
<path style=" stroke:none;fill-rule:nonzero;fill:rgb(14.509805%,61.176473%,25.882354%);fill-opacity:1;" d="M 654 456 C 655.320312 456 656.640625 456 658 456 C 655.183594 462.429688 651.792969 466.644531 646.75 471.5 C 644.855469 473.339844 644.855469 473.339844 642.921875 475.21875 C 641.957031 476.136719 640.992188 477.054688 640 478 C 639.339844 476.019531 638.679688 474.039062 638 472 C 639.320312 472 640.640625 472 642 472 C 642 470.019531 642 468.039062 642 466 C 643.320312 466 644.640625 466 646 466 C 646.660156 463.359375 647.320312 460.71875 648 458 C 649.320312 458 650.640625 458 652 458 C 652.660156 457.339844 653.320312 456.679688 654 456 Z M 654 456 "/>
<path style=" stroke:none;fill-rule:nonzero;fill:rgb(14.509805%,70.588237%,29.019609%);fill-opacity:1;" d="M 294 762 C 298 768 298 768 298 771.75 C 294.886719 778.367188 289.773438 781.578125 284 786 C 284.660156 783.359375 285.320312 780.71875 286 778 C 287.320312 778 288.640625 778 290 778 C 289.339844 776.019531 288.679688 774.039062 288 772 C 290.875 766.625 290.875 766.625 294 762 Z M 294 762 "/>
<path style=" stroke:none;fill-rule:nonzero;fill:rgb(13.333334%,70.980394%,26.666668%);fill-opacity:1;" d="M 612 568 C 612.660156 570.640625 613.320312 573.28125 614 576 C 615.980469 576.660156 617.960938 577.320312 620 578 C 620.660156 579.980469 621.320312 581.960938 622 584 C 620.019531 584.988281 620.019531 584.988281 618 586 C 616.695312 590.050781 616.695312 590.050781 616 594 C 614.679688 594 613.359375 594 612 594 C 612 585.421875 612 576.839844 612 568 Z M 612 568 "/>
<path style=" stroke:none;fill-rule:nonzero;fill:rgb(16.470589%,78.431374%,32.941177%);fill-opacity:1;" d="M 402 308 C 402.660156 309.320312 403.320312 310.640625 404 312 C 406.640625 311.339844 409.28125 310.679688 412 310 C 410.625 313.875 410.625 313.875 408 318 C 402.75 319.5 402.75 319.5 398 320 C 398 318.679688 398 317.359375 398 316 C 396.679688 316 395.359375 316 394 316 C 394 314.679688 394 313.359375 394 312 C 396.640625 310.679688 399.28125 309.359375 402 308 Z M 402 308 "/>
<path style=" stroke:none;fill-rule:nonzero;fill:rgb(14.901961%,64.705884%,26.274511%);fill-opacity:1;" d="M 364 242 C 365.320312 242.660156 366.640625 243.320312 368 244 C 368 245.320312 368 246.640625 368 248 C 365.585938 250.164062 365.585938 250.164062 363.125 252.375 C 357.042969 259.050781 356.519531 263.144531 356 272 C 355.339844 272 354.679688 272 354 272 C 353.890625 268.835938 353.8125 265.667969 353.75 262.5 C 353.703125 260.738281 353.65625 258.972656 353.609375 257.15625 C 354.027344 251.664062 354.910156 248.542969 358 244 C 359.980469 243.339844 361.960938 242.679688 364 242 Z M 364 242 "/>
<path style=" stroke:none;fill-rule:nonzero;fill:rgb(15.294118%,74.509805%,28.235295%);fill-opacity:1;" d="M 324 228 C 324.660156 229.320312 325.320312 230.640625 326 232 C 329.300781 231.339844 332.601562 230.679688 336 230 C 335.375 233.75 335.375 233.75 334 238 C 332.019531 239.320312 330.039062 240.640625 328 242 C 327.339844 240.019531 326.679688 238.039062 326 236 C 324.019531 238.96875 324.019531 238.96875 322 242 C 320.679688 242 319.359375 242 318 242 C 321.75 230.25 321.75 230.25 324 228 Z M 324 228 "/>
<path style=" stroke:none;fill-rule:nonzero;fill:rgb(16.470589%,56.470591%,25.098041%);fill-opacity:1;" d="M 246 90 C 246 91.320312 246 92.640625 246 94 C 243.214844 95.359375 243.214844 95.359375 240.375 96.75 C 233.921875 99.882812 233.921875 99.882812 228 104 C 223.625 103.25 223.625 103.25 220 102 C 223.199219 99.984375 226.410156 97.988281 229.625 96 C 231.410156 94.886719 233.199219 93.773438 235.039062 92.625 C 240 90 240 90 246 90 Z M 246 90 "/>
<path style=" stroke:none;fill-rule:nonzero;fill:rgb(15.294118%,62.7451%,27.843139%);fill-opacity:1;" d="M 216 876 C 221.527344 877.046875 226.652344 878.21875 232 880 C 232 881.980469 232 883.960938 232 886 C 233.980469 886.660156 235.960938 887.320312 238 888 C 236.679688 889.320312 235.359375 890.640625 234 892 C 231.65625 890.433594 229.324219 888.847656 227 887.25 C 225.699219 886.367188 224.402344 885.488281 223.0625 884.578125 C 222.050781 883.726562 221.042969 882.875 220 882 C 220 880.679688 220 879.359375 220 878 C 218.679688 877.339844 217.359375 876.679688 216 876 Z M 216 876 "/>
<path style=" stroke:none;fill-rule:nonzero;fill:rgb(14.901961%,62.7451%,26.274511%);fill-opacity:1;" d="M 580 216 C 582.066406 221.578125 582.089844 223.734375 580.125 229.5 C 579.421875 230.984375 578.722656 232.46875 578 234 C 576.019531 234 574.039062 234 572 234 C 571.339844 236.640625 570.679688 239.28125 570 242 C 569.339844 240.679688 568.679688 239.359375 568 238 C 569.414062 234.320312 569.414062 234.320312 571.625 230.125 C 572.339844 228.746094 573.054688 227.367188 573.789062 225.945312 C 575.699219 222.535156 577.832031 219.253906 580 216 Z M 580 216 "/>
<path style=" stroke:none;fill-rule:nonzero;fill:rgb(14.117648%,61.176473%,25.490198%);fill-opacity:1;" d="M 662 568 C 660.019531 569.320312 658.039062 570.640625 656 572 C 654.988281 576.328125 654.988281 576.328125 654.875 581.125 C 654.617188 586.007812 654.617188 586.007812 654 590 C 652.019531 590.988281 652.019531 590.988281 650 592 C 650 584.078125 650 576.160156 650 568 C 654.980469 565.507812 656.820312 566.445312 662 568 Z M 662 568 "/>
<path style=" stroke:none;fill-rule:nonzero;fill:rgb(16.078432%,68.627453%,28.627452%);fill-opacity:1;" d="M 446 534 C 447.320312 534 448.640625 534 450 534 C 450.980469 546.726562 450.980469 546.726562 446.25 552.875 C 442 556 442 556 438 556 C 438 554.679688 438 553.359375 438 552 C 439.320312 552 440.640625 552 442 552 C 443.320312 546.058594 444.640625 540.121094 446 534 Z M 446 534 "/>
<path style=" stroke:none;fill-rule:nonzero;fill:rgb(13.725491%,56.470591%,23.921569%);fill-opacity:1;" d="M 592 318 C 595.300781 318.660156 598.601562 319.320312 602 320 C 600.597656 321.113281 599.195312 322.226562 597.75 323.375 C 591.773438 328.183594 585.882812 333.078125 580 338 C 580.625 334.125 580.625 334.125 582 330 C 583.980469 329.339844 585.960938 328.679688 588 328 C 590.4375 322.992188 590.4375 322.992188 592 318 Z M 592 318 "/>
<path style=" stroke:none;fill-rule:nonzero;fill:rgb(14.117648%,60.392159%,26.666668%);fill-opacity:1;" d="M 480 586 C 483.300781 586 486.601562 586 490 586 C 487.25 590 487.25 590 484 594 C 482.679688 594 481.359375 594 480 594 C 478.679688 596.640625 477.359375 599.28125 476 602 C 475.339844 602 474.679688 602 474 602 C 474 598.699219 474 595.398438 474 592 C 475.980469 592 477.960938 592 480 592 C 480 590.019531 480 588.039062 480 586 Z M 480 586 "/>
<path style=" stroke:none;fill-rule:nonzero;fill:rgb(15.294118%,65.098041%,25.882354%);fill-opacity:1;" d="M 618 440 C 616.390625 440.90625 614.78125 441.816406 613.125 442.75 C 607.824219 445.496094 607.824219 445.496094 606 450 C 602.042969 451.453125 598.039062 452.796875 594 454 C 595.808594 451.691406 597.648438 449.402344 599.5 447.125 C 600.519531 445.847656 601.542969 444.574219 602.59375 443.257812 C 607.636719 438.433594 611.625 436.8125 618 440 Z M 618 440 "/>
<path style=" stroke:none;fill-rule:nonzero;fill:rgb(16.078432%,65.490198%,27.058825%);fill-opacity:1;" d="M 666 312 C 670 314 670 314 672 318 C 658.75 326 658.75 326 652 326 C 652 324.019531 652 322.039062 652 320 C 658.929688 319.011719 658.929688 319.011719 666 318 C 666 316.019531 666 314.039062 666 312 Z M 666 312 "/>
<path style=" stroke:none;fill-rule:nonzero;fill:rgb(17.254902%,74.509805%,32.156864%);fill-opacity:1;" d="M 348 308 C 352 312 352 312 352.25 319.25 C 352.167969 321.476562 352.085938 323.703125 352 326 C 347.917969 322.769531 343.917969 319.429688 340 316 C 340 314.679688 340 313.359375 340 312 C 342.640625 312 345.28125 312 348 312 C 348 310.679688 348 309.359375 348 308 Z M 348 308 "/>
<path style=" stroke:none;fill-rule:nonzero;fill:rgb(13.333334%,69.803923%,26.274511%);fill-opacity:1;" d="M 656 268 C 659.527344 274.175781 660 276.464844 660 284 C 655.378906 284 650.761719 284 646 284 C 646.660156 282.679688 647.320312 281.359375 648 280 C 649.320312 280 650.640625 280 652 280 C 653.320312 276.039062 654.640625 272.078125 656 268 Z M 656 268 "/>
<path style=" stroke:none;fill-rule:nonzero;fill:rgb(16.470589%,63.137257%,26.274511%);fill-opacity:1;" d="M 356 818 C 356.660156 818 357.320312 818 358 818 C 358.75 822.5 358.75 822.5 358 828 C 348.054688 836 348.054688 836 342 836 C 342 834.679688 342 833.359375 342 832 C 343.320312 832 344.640625 832 346 832 C 346 830.679688 346 829.359375 346 828 C 347.320312 828 348.640625 828 350 828 C 350 826.679688 350 825.359375 350 824 C 351.320312 824 352.640625 824 354 824 C 354.660156 822.019531 355.320312 820.039062 356 818 Z M 356 818 "/>
<path style=" stroke:none;fill-rule:nonzero;fill:rgb(14.117648%,70.980394%,27.843139%);fill-opacity:1;" d="M 740 722 C 744.769531 723.152344 749.332031 724.445312 754 726 C 754 727.980469 754 729.960938 754 732 C 749.378906 732.660156 744.761719 733.320312 740 734 C 740.371094 732.761719 740.742188 731.523438 741.125 730.25 C 742.472656 725.917969 742.472656 725.917969 740 722 Z M 740 722 "/>
<path style=" stroke:none;fill-rule:nonzero;fill:rgb(16.078432%,61.960787%,28.627452%);fill-opacity:1;" d="M 808 682 C 808 688.792969 806.957031 690.132812 803 695.375 C 802.070312 696.621094 801.144531 697.867188 800.1875 699.148438 C 799.464844 700.089844 798.742188 701.03125 798 702 C 797.339844 699.359375 796.679688 696.71875 796 694 C 797.320312 694 798.640625 694 800 694 C 800.660156 690.699219 801.320312 687.398438 802 684 C 803.980469 683.339844 805.960938 682.679688 808 682 Z M 808 682 "/>
<path style=" stroke:none;fill-rule:nonzero;fill:rgb(13.333334%,53.725493%,21.568628%);fill-opacity:1;" d="M 374 618 C 374.660156 619.980469 375.320312 621.960938 376 624 C 373.421875 626.75 370.746094 629.414062 368 632 C 366.679688 632 365.359375 632 364 632 C 364 633.320312 364 634.640625 364 636 C 362.019531 636.660156 360.039062 637.320312 358 638 C 358 636.679688 358 635.359375 358 634 C 359.320312 634 360.640625 634 362 634 C 362.496094 632.84375 362.988281 631.691406 363.5 630.5 C 366.332031 625.398438 369.753906 621.964844 374 618 Z M 374 618 "/>
<path style=" stroke:none;fill-rule:nonzero;fill:rgb(19.215687%,76.078433%,33.725491%);fill-opacity:1;" d="M 280 608 C 282.640625 609.320312 285.28125 610.640625 288 612 C 284.699219 615.960938 281.398438 619.921875 278 624 C 276.019531 623.339844 274.039062 622.679688 272 622 C 274.640625 617.378906 277.28125 612.761719 280 608 Z M 280 608 "/>
<path style=" stroke:none;fill-rule:nonzero;fill:rgb(15.686275%,65.098041%,27.450982%);fill-opacity:1;" d="M 346 544 C 348.640625 544.660156 351.28125 545.320312 354 546 C 348.71875 551.28125 343.441406 556.558594 338 562 C 337.339844 559.359375 336.679688 556.71875 336 554 C 338.640625 553.339844 341.28125 552.679688 344 552 C 344.660156 549.359375 345.320312 546.71875 346 544 Z M 346 544 "/>
<path style=" stroke:none;fill-rule:nonzero;fill:rgb(13.333334%,55.686277%,23.529412%);fill-opacity:1;" d="M 312 516 C 312.660156 517.320312 313.320312 518.640625 314 520 C 307.355469 531.570312 307.355469 531.570312 300.5 533.75 C 299.015625 533.832031 297.53125 533.914062 296 534 C 298.75 530 298.75 530 302 526 C 303.320312 526 304.640625 526 306 526 C 306.617188 524.722656 307.238281 523.441406 307.875 522.125 C 310 518 310 518 312 516 Z M 312 516 "/>
<path style=" stroke:none;fill-rule:nonzero;fill:rgb(14.117648%,62.352943%,26.666668%);fill-opacity:1;" d="M 694 276 C 695.320312 276 696.640625 276 698 276 C 696.914062 285.128906 694.410156 291.945312 690 300 C 688.679688 297.359375 687.359375 294.71875 686 292 C 687.421875 290.265625 687.421875 290.265625 688.875 288.5 C 691.898438 284.148438 693.082031 281.148438 694 276 Z M 694 276 "/>
<path style=" stroke:none;fill-rule:nonzero;fill:rgb(17.254902%,84.705883%,34.509805%);fill-opacity:1;" d="M 254 886 C 254 887.320312 254 888.640625 254 890 C 251.359375 890 248.71875 890 246 890 C 245.339844 891.320312 244.679688 892.640625 244 894 C 241.359375 893.339844 238.71875 892.679688 236 892 C 236 890.019531 236 888.039062 236 886 C 242.957031 883.679688 246.917969 884.582031 254 886 Z M 254 886 "/>
<path style=" stroke:none;fill-rule:nonzero;fill:rgb(13.725491%,58.431375%,21.960784%);fill-opacity:1;" d="M 592 454 C 592 460.761719 590.25 465.667969 588 472 C 584.699219 471.339844 581.398438 470.679688 578 470 C 579.957031 467.707031 581.914062 465.414062 583.875 463.125 C 584.964844 461.847656 586.054688 460.574219 587.179688 459.257812 C 588.734375 457.460938 590.320312 455.679688 592 454 Z M 592 454 "/>
<path style=" stroke:none;fill-rule:nonzero;fill:rgb(17.254902%,65.098041%,27.843139%);fill-opacity:1;" d="M 316 268 C 316.660156 268 317.320312 268 318 268 C 318 271.960938 318 275.921875 318 280 C 319.320312 280 320.640625 280 322 280 C 322 283.300781 322 286.601562 322 290 C 320.019531 290.988281 320.019531 290.988281 318 292 C 317.273438 289.128906 316.566406 286.253906 315.875 283.375 C 315.480469 281.773438 315.085938 280.171875 314.679688 278.523438 C 314 274 314 274 316 268 Z M 316 268 "/>
<path style=" stroke:none;fill-rule:nonzero;fill:rgb(11.372549%,46.27451%,18.431373%);fill-opacity:1;" d="M 338 768 C 338.660156 768 339.320312 768 340 768 C 340 771.960938 340 775.921875 340 780 C 345.941406 780.660156 351.878906 781.320312 358 782 C 358 782.660156 358 783.320312 358 784 C 351.398438 784 344.800781 784 338 784 C 336.148438 776.597656 335.835938 774.730469 338 768 Z M 338 768 "/>
<path style=" stroke:none;fill-rule:nonzero;fill:rgb(20%,83.529413%,34.901962%);fill-opacity:1;" d="M 678 594 C 678.660156 595.320312 679.320312 596.640625 680 598 C 678.125 603.25 678.125 603.25 676 608 C 674.679688 607.339844 673.359375 606.679688 672 606 C 672 604.679688 672 603.359375 672 602 C 669.359375 602 666.71875 602 664 602 C 664 600.679688 664 599.359375 664 598 C 668.621094 596.679688 673.238281 595.359375 678 594 Z M 678 594 "/>
<path style=" stroke:none;fill-rule:nonzero;fill:rgb(17.254902%,74.901962%,30.588236%);fill-opacity:1;" d="M 266 570 C 263.695312 574.9375 261.90625 578.09375 258 582 C 255.359375 582 252.71875 582 250 582 C 250 580.679688 250 579.359375 250 578 C 251.320312 578 252.640625 578 254 578 C 254 576.679688 254 575.359375 254 574 C 261.5 570 261.5 570 266 570 Z M 266 570 "/>
<path style=" stroke:none;fill-rule:nonzero;fill:rgb(19.215687%,70.19608%,30.980393%);fill-opacity:1;" d="M 708 548 C 709.980469 548 711.960938 548 714 548 C 716.136719 551.929688 718.132812 555.9375 720 560 C 719.339844 561.320312 718.679688 562.640625 718 564 C 714 562 714 562 712 556 C 710.019531 555.339844 708.039062 554.679688 706 554 C 706.660156 552.019531 707.320312 550.039062 708 548 Z M 708 548 "/>
<path style=" stroke:none;fill-rule:nonzero;fill:rgb(15.294118%,72.549021%,30.19608%);fill-opacity:1;" d="M 500 402 C 501.320312 402.660156 502.640625 403.320312 504 404 C 504.5 409.625 504.5 409.625 504 416 C 500 419.75 500 419.75 496 422 C 496.28125 419.039062 496.574219 416.082031 496.875 413.125 C 497.039062 411.476562 497.199219 409.832031 497.367188 408.132812 C 498 404 498 404 500 402 Z M 500 402 "/>
<path style=" stroke:none;fill-rule:nonzero;fill:rgb(16.470589%,61.960787%,29.019609%);fill-opacity:1;" d="M 650 242 C 652.640625 242.660156 655.28125 243.320312 658 244 C 660.941406 252.824219 662.738281 258.964844 660 268 C 659.339844 268 658.679688 268 658 268 C 657.757812 266.792969 657.515625 265.585938 657.265625 264.34375 C 656.929688 262.746094 656.59375 261.148438 656.25 259.5 C 655.925781 257.921875 655.601562 256.34375 655.265625 254.71875 C 654.015625 250.0625 652.304688 246.21875 650 242 Z M 650 242 "/>
<path style=" stroke:none;fill-rule:nonzero;fill:rgb(15.294118%,63.137257%,28.235295%);fill-opacity:1;" d="M 746 148 C 752.75 149.09375 756.164062 150.109375 762 154 C 760.679688 156.640625 759.359375 159.28125 758 162 C 756.679688 159.359375 755.359375 156.71875 754 154 C 752.679688 154 751.359375 154 750 154 C 750 152.679688 750 151.359375 750 150 C 748.679688 149.339844 747.359375 148.679688 746 148 Z M 746 148 "/>
<path style=" stroke:none;fill-rule:nonzero;fill:rgb(14.509805%,57.647061%,24.313726%);fill-opacity:1;" d="M 264 906 C 276.304688 905.804688 276.304688 905.804688 280 906 C 280.660156 906.660156 281.320312 907.320312 282 908 C 286.65625 908.734375 291.324219 909.40625 296 910 C 296 910.660156 296 911.320312 296 912 C 284.445312 912.472656 274.972656 911.734375 264 908 C 264 907.339844 264 906.679688 264 906 Z M 264 906 "/>
<path style=" stroke:none;fill-rule:nonzero;fill:rgb(12.941177%,74.901962%,27.450982%);fill-opacity:1;" d="M 246 888 C 248.640625 889.320312 251.28125 890.640625 254 892 C 254 893.320312 254 894.640625 254 896 C 250.039062 897.980469 250.039062 897.980469 246 900 C 244.019531 898.019531 242.039062 896.039062 240 894 C 241.320312 894 242.640625 894 244 894 C 244.660156 892.019531 245.320312 890.039062 246 888 Z M 246 888 "/>
<path style=" stroke:none;fill-rule:nonzero;fill:rgb(17.647059%,75.294119%,29.803923%);fill-opacity:1;" d="M 342 754 C 343.320312 754 344.640625 754 346 754 C 346 757.300781 346 760.601562 346 764 C 347.320312 764.660156 348.640625 765.320312 350 766 C 348.019531 767.980469 346.039062 769.960938 344 772 C 340.761719 766.855469 339.910156 764.648438 340.75 758.5 C 341.164062 757.015625 341.574219 755.53125 342 754 Z M 342 754 "/>
<path style=" stroke:none;fill-rule:nonzero;fill:rgb(14.117648%,57.254905%,23.137255%);fill-opacity:1;" d="M 818 648 C 818.660156 648 819.320312 648 820 648 C 818.441406 669.117188 818.441406 669.117188 814 678 C 813.339844 678 812.679688 678 812 678 C 812.890625 667.453125 814.167969 657.964844 818 648 Z M 818 648 "/>
<path style=" stroke:none;fill-rule:nonzero;fill:rgb(21.176471%,73.725492%,33.725491%);fill-opacity:1;" d="M 648 402 C 648 403.320312 648 404.640625 648 406 C 646.019531 406.988281 646.019531 406.988281 644 408 C 643.339844 409.980469 642.679688 411.960938 642 414 C 640.679688 414 639.359375 414 638 414 C 638 415.320312 638 416.640625 638 418 C 636.019531 418 634.039062 418 632 418 C 635.035156 410.921875 639.507812 402 648 402 Z M 648 402 "/>
<path style=" stroke:none;fill-rule:nonzero;fill:rgb(16.470589%,72.941178%,30.980393%);fill-opacity:1;" d="M 196 128 C 197.980469 128 199.960938 128 202 128 C 201.375 132.75 201.375 132.75 200 138 C 198.019531 139.320312 196.039062 140.640625 194 142 C 192 136 192 136 193.875 131.625 C 194.925781 129.832031 194.925781 129.832031 196 128 Z M 196 128 "/>
<path style=" stroke:none;fill-rule:nonzero;fill:rgb(18.82353%,67.058825%,30.19608%);fill-opacity:1;" d="M 746 86 C 752.601562 87.980469 759.199219 89.960938 766 92 C 766 93.320312 766 94.640625 766 96 C 758.386719 94.65625 751.296875 92.546875 744 90 C 744.660156 88.679688 745.320312 87.359375 746 86 Z M 746 86 "/>
<path style=" stroke:none;fill-rule:nonzero;fill:rgb(14.117648%,58.431375%,24.705882%);fill-opacity:1;" d="M 546 562 C 547.980469 562 549.960938 562 552 562 C 551.203125 567.773438 550.417969 569.644531 545.875 573.5 C 544.597656 574.324219 543.316406 575.148438 542 576 C 542 572.699219 542 569.398438 542 566 C 543.320312 566 544.640625 566 546 566 C 546 564.679688 546 563.359375 546 562 Z M 546 562 "/>
<path style=" stroke:none;fill-rule:nonzero;fill:rgb(9.019608%,41.176471%,14.901961%);fill-opacity:1;" d="M 662 446 C 669.921875 446 677.839844 446 686 446 C 686 446.660156 686 447.320312 686 448 C 684.792969 448.074219 683.585938 448.148438 682.34375 448.226562 C 670.011719 449.125 670.011719 449.125 660 456 C 660.660156 452.699219 661.320312 449.398438 662 446 Z M 662 446 "/>
<path style=" stroke:none;fill-rule:nonzero;fill:rgb(16.470589%,57.647061%,25.490198%);fill-opacity:1;" d="M 682 298 C 683.980469 298.660156 685.960938 299.320312 688 300 C 687.339844 301.980469 686.679688 303.960938 686 306 C 684.679688 306 683.359375 306 682 306 C 681.464844 307.277344 680.925781 308.558594 680.375 309.875 C 678 314 678 314 672 316 C 673.320312 313.359375 674.640625 310.71875 676 308 C 677.320312 308 678.640625 308 680 308 C 680.660156 304.699219 681.320312 301.398438 682 298 Z M 682 298 "/>
<path style=" stroke:none;fill-rule:nonzero;fill:rgb(16.862746%,63.921571%,25.490198%);fill-opacity:1;" d="M 338 838 C 338.660156 839.980469 339.320312 841.960938 340 844 C 338.019531 846.96875 338.019531 846.96875 336 850 C 334.019531 850 332.039062 850 330 850 C 330 851.320312 330 852.640625 330 854 C 328.679688 853.339844 327.359375 852.679688 326 852 C 329.960938 847.378906 333.921875 842.761719 338 838 Z M 338 838 "/>
<path style=" stroke:none;fill-rule:nonzero;fill:rgb(13.333334%,58.431375%,25.098041%);fill-opacity:1;" d="M 446 838 C 446.660156 839.980469 447.320312 841.960938 448 844 C 444.25 850.375 444.25 850.375 440 856 C 439.339844 856 438.679688 856 438 856 C 438 852.699219 438 849.398438 438 846 C 439.320312 846 440.640625 846 442 846 C 442 844.019531 442 842.039062 442 840 C 443.320312 839.339844 444.640625 838.679688 446 838 Z M 446 838 "/>
<path style=" stroke:none;fill-rule:nonzero;fill:rgb(16.862746%,83.92157%,34.117648%);fill-opacity:1;" d="M 272 814 C 277.941406 814 283.878906 814 290 814 C 290 815.320312 290 816.640625 290 818 C 284.71875 818.660156 279.441406 819.320312 274 820 C 273.339844 818.019531 272.679688 816.039062 272 814 Z M 272 814 "/>
<path style=" stroke:none;fill-rule:nonzero;fill:rgb(17.254902%,63.529414%,28.235295%);fill-opacity:1;" d="M 348 644 C 349.320312 644.660156 350.640625 645.320312 352 646 C 349.433594 651.722656 346.9375 656.050781 342 660 C 340.019531 660 338.039062 660 336 660 C 336 656 336 656 340.875 650.875 C 342.566406 649.265625 344.257812 647.65625 346 646 C 346.660156 645.339844 347.320312 644.679688 348 644 Z M 348 644 "/>
<path style=" stroke:none;fill-rule:nonzero;fill:rgb(15.686275%,83.529413%,34.901962%);fill-opacity:1;" d="M 700 610 C 701.980469 610.660156 703.960938 611.320312 706 612 C 706 615.300781 706 618.601562 706 622 C 704.019531 622 702.039062 622 700 622 C 700 620.679688 700 619.359375 700 618 C 698.679688 618 697.359375 618 696 618 C 696 614 696 614 700 610 Z M 700 610 "/>
<path style=" stroke:none;fill-rule:nonzero;fill:rgb(15.686275%,78.039217%,29.411766%);fill-opacity:1;" d="M 450 398 C 451.980469 398 453.960938 398 456 398 C 456.660156 400.640625 457.320312 403.28125 458 406 C 455.359375 407.980469 452.71875 409.960938 450 412 C 447.75 402.5 447.75 402.5 450 398 Z M 450 398 "/>
<path style=" stroke:none;fill-rule:nonzero;fill:rgb(20.784314%,77.64706%,36.078432%);fill-opacity:1;" d="M 596 318 C 604.9375 317.574219 611.644531 318.816406 620 322 C 620 323.320312 620 324.640625 620 326 C 602.855469 324.570312 602.855469 324.570312 596 318 Z M 596 318 "/>
<path style=" stroke:none;fill-rule:nonzero;fill:rgb(16.862746%,64.705884%,28.627452%);fill-opacity:1;" d="M 784 712 C 784 713.320312 784 714.640625 784 716 C 776.078125 719.960938 776.078125 719.960938 768 724 C 768.660156 721.359375 769.320312 718.71875 770 716 C 774.886719 713.496094 778.492188 712 784 712 Z M 784 712 "/>
<path style=" stroke:none;fill-rule:nonzero;fill:rgb(15.686275%,67.843139%,29.411766%);fill-opacity:1;" d="M 328 564 C 329.320312 564 330.640625 564 332 564 C 329.214844 570.734375 326.042969 573.972656 320 578 C 320 574.699219 320 571.398438 320 568 C 322.640625 568 325.28125 568 328 568 C 328 566.679688 328 565.359375 328 564 Z M 328 564 "/>
<path style=" stroke:none;fill-rule:nonzero;fill:rgb(14.117648%,56.470591%,25.490198%);fill-opacity:1;" d="M 626 484 C 627.980469 484.660156 629.960938 485.320312 632 486 C 627.378906 490.621094 622.761719 495.238281 618 500 C 617.339844 498.019531 616.679688 496.039062 616 494 C 617.320312 494 618.640625 494 620 494 C 620.660156 492.019531 621.320312 490.039062 622 488 C 623.320312 488 624.640625 488 626 488 C 626 486.679688 626 485.359375 626 484 Z M 626 484 "/>
<path style=" stroke:none;fill-rule:nonzero;fill:rgb(17.254902%,65.098041%,30.980393%);fill-opacity:1;" d="M 324 298 C 325.980469 298 327.960938 298 330 298 C 334.375 304 334.375 304 338 310 C 332 310 332 310 327.625 306.25 C 324 302 324 302 324 298 Z M 324 298 "/>
<path style=" stroke:none;fill-rule:nonzero;fill:rgb(19.607843%,83.529413%,34.901962%);fill-opacity:1;" d="M 620 196 C 619.375 199.875 619.375 199.875 618 204 C 616.019531 204.660156 614.039062 205.320312 612 206 C 610.679688 203.359375 609.359375 200.71875 608 198 C 612.152344 196.894531 615.6875 196 620 196 Z M 620 196 "/>
<path style=" stroke:none;fill-rule:nonzero;fill:rgb(19.607843%,75.686276%,32.941177%);fill-opacity:1;" d="M 804 130 C 805.320312 130 806.640625 130 808 130 C 809.320312 133.300781 810.640625 136.601562 812 140 C 808.039062 141.980469 808.039062 141.980469 804 144 C 803.238281 140.015625 802.574219 136.015625 802 132 C 802.660156 131.339844 803.320312 130.679688 804 130 Z M 804 130 "/>
<path style=" stroke:none;fill-rule:nonzero;fill:rgb(15.294118%,63.529414%,25.098041%);fill-opacity:1;" d="M 260 896 C 261.320312 899.300781 262.640625 902.601562 264 906 C 259.378906 904.679688 254.761719 903.359375 250 902 C 255.5 896 255.5 896 260 896 Z M 260 896 "/>
<path style=" stroke:none;fill-rule:nonzero;fill:rgb(17.254902%,65.098041%,29.411766%);fill-opacity:1;" d="M 270 794 C 271.320312 794 272.640625 794 274 794 C 272.746094 799.851562 271.035156 804.824219 268 810 C 266.019531 810.988281 266.019531 810.988281 264 812 C 264 808.699219 264 805.398438 264 802 C 265.980469 801.339844 267.960938 800.679688 270 800 C 270 798.019531 270 796.039062 270 794 Z M 270 794 "/>
<path style=" stroke:none;fill-rule:nonzero;fill:rgb(17.254902%,65.490198%,27.843139%);fill-opacity:1;" d="M 386 790 C 386 791.980469 386 793.960938 386 796 C 384.019531 796 382.039062 796 380 796 C 378.679688 798.640625 377.359375 801.28125 376 804 C 374.679688 802.679688 373.359375 801.359375 372 800 C 381.5 790 381.5 790 386 790 Z M 386 790 "/>
<path style=" stroke:none;fill-rule:nonzero;fill:rgb(15.686275%,69.411767%,28.627452%);fill-opacity:1;" d="M 398 594 C 399.320312 595.980469 400.640625 597.960938 402 600 C 398.375 603.125 398.375 603.125 394 606 C 392.019531 605.339844 390.039062 604.679688 388 604 C 391.300781 600.699219 394.601562 597.398438 398 594 Z M 398 594 "/>
<path style=" stroke:none;fill-rule:nonzero;fill:rgb(15.686275%,65.098041%,27.843139%);fill-opacity:1;" d="M 682 564 C 682 565.320312 682 566.640625 682 568 C 675.398438 567.339844 668.800781 566.679688 662 566 C 662 565.339844 662 564.679688 662 564 C 669.324219 562.5 674.847656 561.523438 682 564 Z M 682 564 "/>
<path style=" stroke:none;fill-rule:nonzero;fill:rgb(12.156863%,76.47059%,25.882354%);fill-opacity:1;" d="M 682 560 C 683.980469 560 685.960938 560 688 560 C 687.339844 563.300781 686.679688 566.601562 686 570 C 684.679688 570 683.359375 570 682 570 C 681.339844 571.320312 680.679688 572.640625 680 574 C 678.679688 572.019531 677.359375 570.039062 676 568 C 677.980469 568 679.960938 568 682 568 C 681.339844 566.019531 680.679688 564.039062 680 562 C 680.660156 561.339844 681.320312 560.679688 682 560 Z M 682 560 "/>
<path style=" stroke:none;fill-rule:nonzero;fill:rgb(15.294118%,70.19608%,29.019609%);fill-opacity:1;" d="M 560 552 C 560 554.640625 560 557.28125 560 560 C 558.679688 560 557.359375 560 556 560 C 556 561.320312 556 562.640625 556 564 C 554.679688 564 553.359375 564 552 564 C 552 560.699219 552 557.398438 552 554 C 556 552 556 552 560 552 Z M 560 552 "/>
<path style=" stroke:none;fill-rule:nonzero;fill:rgb(18.431373%,82.352942%,34.117648%);fill-opacity:1;" d="M 296 534 C 297.980469 534 299.960938 534 302 534 C 301.75 537.75 301.75 537.75 300 542 C 293.875 544.5 293.875 544.5 288 546 C 291.625 540 291.625 540 296 534 Z M 296 534 "/>
<path style=" stroke:none;fill-rule:nonzero;fill:rgb(11.764706%,52.549022%,21.176471%);fill-opacity:1;" d="M 532 314 C 532.660156 315.320312 533.320312 316.640625 534 318 C 532.625 322.125 532.625 322.125 530 326 C 525.75 327.5 525.75 327.5 522 328 C 524.585938 322.230469 527.320312 318.253906 532 314 Z M 532 314 "/>
<path style=" stroke:none;fill-rule:nonzero;fill:rgb(13.333334%,56.862748%,24.705882%);fill-opacity:1;" d="M 194 844 C 197.300781 844 200.601562 844 204 844 C 204 849.28125 204 854.558594 204 860 C 198.433594 857.21875 196.894531 853.398438 194 848 C 194 846.679688 194 845.359375 194 844 Z M 194 844 "/>
<path style=" stroke:none;fill-rule:nonzero;fill:rgb(18.039216%,84.313726%,32.941177%);fill-opacity:1;" d="M 368 808 C 368.660156 809.320312 369.320312 810.640625 370 812 C 371.320312 812.660156 372.640625 813.320312 374 814 C 372.019531 814.660156 370.039062 815.320312 368 816 C 367.339844 817.320312 366.679688 818.640625 366 820 C 366 818.679688 366 817.359375 366 816 C 364.679688 816 363.359375 816 362 816 C 362.660156 814.019531 363.320312 812.039062 364 810 C 365.320312 809.339844 366.640625 808.679688 368 808 Z M 368 808 "/>
<path style=" stroke:none;fill-rule:nonzero;fill:rgb(19.607843%,80.000001%,33.725491%);fill-opacity:1;" d="M 356 638 C 357.320312 638 358.640625 638 360 638 C 358.679688 641.960938 357.359375 645.921875 356 650 C 354.019531 650 352.039062 650 350 650 C 353.75 640.25 353.75 640.25 356 638 Z M 356 638 "/>
<path style=" stroke:none;fill-rule:nonzero;fill:rgb(18.039216%,62.7451%,29.019609%);fill-opacity:1;" d="M 270 628 C 270 629.320312 270 630.640625 270 632 C 268.679688 632 267.359375 632 266 632 C 265.339844 633.980469 264.679688 635.960938 264 638 C 262.019531 638.660156 260.039062 639.320312 258 640 C 258 637.359375 258 634.71875 258 632 C 265.5 628 265.5 628 270 628 Z M 270 628 "/>
<path style=" stroke:none;fill-rule:nonzero;fill:rgb(11.764706%,48.627451%,19.215687%);fill-opacity:1;" d="M 268 560 C 268.660156 561.980469 269.320312 563.960938 270 566 C 268 570 268 570 261.875 572.25 C 259.9375 572.828125 257.996094 573.40625 256 574 C 259.960938 569.378906 263.921875 564.761719 268 560 Z M 268 560 "/>
<path style=" stroke:none;fill-rule:nonzero;fill:rgb(18.431373%,80.784315%,33.725491%);fill-opacity:1;" d="M 542 562 C 543.320312 562 544.640625 562 546 562 C 546 563.320312 546 564.640625 546 566 C 544.679688 566 543.359375 566 542 566 C 542 564.679688 542 563.359375 542 562 Z M 538 566 C 539.320312 566 540.640625 566 542 566 C 542 569.300781 542 572.601562 542 576 C 540.019531 576.660156 538.039062 577.320312 536 578 C 536.660156 574.039062 537.320312 570.078125 538 566 Z M 538 566 "/>
<path style=" stroke:none;fill-rule:nonzero;fill:rgb(16.862746%,65.882355%,28.235295%);fill-opacity:1;" d="M 362 530 C 363.320312 530 364.640625 530 366 530 C 363.214844 536.734375 360.042969 539.972656 354 544 C 354 541.359375 354 538.71875 354 536 C 355.980469 536 357.960938 536 360 536 C 360.660156 534.019531 361.320312 532.039062 362 530 Z M 362 530 "/>
<path style=" stroke:none;fill-rule:nonzero;fill:rgb(13.725491%,61.960787%,23.529412%);fill-opacity:1;" d="M 336 492 C 336.660156 493.980469 337.320312 495.960938 338 498 C 335.125 503.375 335.125 503.375 332 508 C 331.339844 506.679688 330.679688 505.359375 330 504 C 328.679688 503.339844 327.359375 502.679688 326 502 C 327.980469 501.339844 329.960938 500.679688 332 500 C 334.417969 496 334.417969 496 336 492 Z M 336 492 "/>
<path style=" stroke:none;fill-rule:nonzero;fill:rgb(14.117648%,65.098041%,27.450982%);fill-opacity:1;" d="M 516 392 C 517.980469 392.660156 519.960938 393.320312 522 394 C 519.261719 400.324219 518.023438 401.984375 512 406 C 512 404.019531 512 402.039062 512 400 C 513.320312 400 514.640625 400 516 400 C 515.339844 398.019531 514.679688 396.039062 514 394 C 514.660156 393.339844 515.320312 392.679688 516 392 Z M 516 392 "/>
<path style=" stroke:none;fill-rule:nonzero;fill:rgb(12.54902%,60.000002%,25.098041%);fill-opacity:1;" d="M 422 290 C 424.640625 290.660156 427.28125 291.320312 430 292 C 426.5 301.75 426.5 301.75 422 304 C 422 299.378906 422 294.761719 422 290 Z M 422 290 "/>
<path style=" stroke:none;fill-rule:nonzero;fill:rgb(18.82353%,81.568629%,33.333334%);fill-opacity:1;" d="M 218 104 C 220.640625 104.660156 223.28125 105.320312 226 106 C 223.359375 108.640625 220.71875 111.28125 218 114 C 216.679688 113.339844 215.359375 112.679688 214 112 C 215.320312 109.359375 216.640625 106.71875 218 104 Z M 218 104 "/>
</g>
</svg>
