<?xml version="1.0" encoding="UTF-8"?>
<svg version="1.1" xmlns="http://www.w3.org/2000/svg" width="1254" height="1254">
<path d="M0 0 C413.82 0 827.64 0 1254 0 C1254 413.82 1254 827.64 1254 1254 C840.18 1254 426.36 1254 0 1254 C0 840.18 0 426.36 0 0 Z " fill="#000000" transform="translate(0,0)"/>
<path d="M0 0 C0.99527763 -0.00205263 1.99055526 -0.00410527 3.01599282 -0.0062201 C6.3476311 -0.01186995 9.67922777 -0.01043535 13.01086998 -0.00901413 C15.42508058 -0.01159891 17.83929076 -0.01461239 20.25350034 -0.01801753 C26.19048617 -0.02523266 32.12746366 -0.0277895 38.06445284 -0.02834659 C45.17828797 -0.02926232 52.29211484 -0.03593604 59.4059464 -0.04269341 C76.59656159 -0.05873339 93.78717588 -0.06465421 110.97779721 -0.06944216 C119.11303902 -0.0717799 127.24828012 -0.07538272 135.38352138 -0.07913754 C163.24215571 -0.09197065 191.10078966 -0.10269053 218.95942688 -0.10614014 C220.70733665 -0.10636177 222.45524642 -0.10658355 224.2031562 -0.10680549 C225.95523168 -0.10702613 227.70730717 -0.10724661 229.45938265 -0.10746694 C232.97421559 -0.10790948 236.48904852 -0.1083566 240.00388145 -0.10880661 C240.87535191 -0.108916 241.74682237 -0.10902539 242.64470102 -0.1091381 C270.90177903 -0.11276868 299.1588314 -0.12869003 327.41589959 -0.15199697 C357.30529578 -0.17660514 387.1946773 -0.19031341 417.08408391 -0.19150805 C420.36649665 -0.1916795 423.64890937 -0.19189493 426.9313221 -0.19214249 C428.1436166 -0.19222614 428.1436166 -0.19222614 429.3804019 -0.19231148 C442.37323429 -0.19346099 455.3660403 -0.20447432 468.35886379 -0.21902954 C481.4230138 -0.2334114 494.48713006 -0.23662197 507.55128582 -0.22858956 C515.30669213 -0.22414147 523.06198933 -0.22796103 530.81738126 -0.24382807 C536.61680818 -0.25476114 542.41613819 -0.24991149 548.21556132 -0.2390562 C550.55538367 -0.23709953 552.89521702 -0.24017618 555.23502393 -0.24890056 C567.47816379 -0.29164756 578.89069483 0.03114923 590.78269005 3.13142776 C591.54670903 3.3139556 592.31072801 3.49648344 593.09789908 3.68454242 C600.08323949 5.40015581 606.52901123 7.59673974 612.78269005 11.13142776 C613.62058067 11.56197464 614.4584713 11.99252151 615.32175255 12.43611526 C644.36886613 27.57334347 666.88940849 52.99686921 676.87546349 84.31160355 C677.09234825 85.01527054 677.30923302 85.71893753 677.53269005 86.44392776 C677.83094688 87.38341263 677.83094688 87.38341263 678.13522911 88.34187698 C682.5621809 103.62359307 682.06914179 119.68978489 682.03665733 135.42917252 C682.03896483 137.87417377 682.0421433 140.31917433 682.04611182 142.76417345 C682.05269714 148.05716284 682.05314176 153.3500984 682.0480175 158.64308548 C682.04041819 166.51419891 682.04433774 174.38527818 682.05043412 182.25639142 C682.06094067 196.31805607 682.06006281 210.37970249 682.05427629 224.44136885 C682.04923764 236.7466258 682.04793529 249.05187609 682.05032158 261.35713387 C682.05055073 262.58329475 682.05055073 262.58329475 682.05078452 263.83422656 C682.05140723 267.15278972 682.05204404 270.47135288 682.05270405 273.78991604 C682.05881663 304.89533842 682.05328362 336.00074922 682.04251025 367.10616981 C682.03301875 394.72047098 682.03386968 422.33475371 682.04343224 449.94905472 C682.05414919 481.0004781 682.05838395 512.05189127 682.05220771 543.10331625 C682.05156631 546.41538997 682.05094063 549.7274637 682.05032158 553.03953743 C682.05016342 553.85500716 682.05000527 554.6704769 682.04984232 555.51065783 C682.04757064 567.80661963 682.05022182 580.10257401 682.05528069 592.39853477 C682.06100593 606.38357594 682.05955515 620.3685961 682.0487192 634.35363466 C682.0428595 642.17348301 682.04244464 649.99328581 682.05001155 657.81313294 C682.05504395 663.66023784 682.04956065 669.50730284 682.0400624 675.35440319 C682.03783489 677.71352946 682.03895001 680.07266185 682.04381397 682.43178416 C682.10860232 716.47640432 674.97796978 747.91837336 650.78269005 773.13142776 C649.81639345 774.31245694 648.85729624 775.49943745 647.90769005 776.69392776 C636.05813004 790.51303317 617.59795201 801.48718101 600.53269005 807.19392776 C599.5787838 807.53230667 598.62487755 807.87068558 597.64206505 808.21931839 C578.04720465 814.81472388 558.07518504 814.56001536 537.66374075 814.47962463 C533.48066926 814.46651998 529.29760922 814.47106378 525.11452293 814.47333145 C517.88858552 814.47489518 510.66273014 814.46558096 503.43681335 814.44861794 C492.98970406 814.42410921 482.54263393 814.4164106 472.095499 814.41265396 C455.14070238 814.40610798 438.18594936 814.38619742 421.23117638 814.35774612 C404.77317076 814.33015737 388.31517705 814.30894744 371.85715294 814.29622269 C370.8405922 814.29543452 369.82403146 814.29464635 368.77666584 814.29383429 C363.6762556 814.28991883 358.57584528 814.28612779 353.4754349 814.28239858 C311.24448964 814.25136045 269.01359235 814.19857551 226.78269005 814.13142776 C226.7926828 815.6245549 226.7926828 815.6245549 226.80287743 817.14784622 C226.86421092 826.61877722 226.9089098 836.08966691 226.93812656 845.56075287 C226.95365306 850.42765836 226.97464716 855.29440107 227.00900841 860.16121292 C227.04207413 864.8750832 227.05964031 869.58879886 227.06732178 874.30277634 C227.072782 876.0837306 227.08343829 877.8646783 227.09988022 879.64556503 C227.24689446 896.25974314 226.66010974 915.23431323 220.03269005 930.75642776 C218.80814706 933.65689638 217.62940513 936.54741796 216.54050255 939.50252151 C202.46921902 977.06569365 171.68315319 1007.62983738 135.4272213 1024.16658401 C121.71942049 1030.12967467 107.58186945 1034.13361538 92.78269005 1036.13142776 C91.64622032 1036.30271194 90.5097506 1036.47399612 89.33884239 1036.65047073 C83.61516976 1037.35791633 77.88231008 1037.31336373 72.1225338 1037.33455276 C70.90103127 1037.34025284 69.67952873 1037.34595291 68.42101097 1037.35182571 C65.83479227 1037.36125001 63.24856171 1037.36779945 60.66232872 1037.37166214 C56.78490473 1037.38126745 52.90803448 1037.41227434 49.03073692 1037.44392776 C29.76178741 1037.52757764 10.23706966 1037.03171548 -8.21730995 1030.88142776 C-9.16605995 1030.57769241 -10.11480995 1030.27395706 -11.09230995 1029.96101761 C-45.40267071 1018.66214031 -75.3354261 994.84534177 -94.21730995 964.13142776 C-94.60660683 963.50784378 -94.9959037 962.8842598 -95.39699745 962.24177933 C-104.26082458 947.89754902 -111.05958864 931.73093774 -114.21730995 915.13142776 C-114.33949808 914.49303272 -114.46168621 913.85463767 -114.58757701 913.19689731 C-117.57863484 896.9370194 -117.64574119 880.73495671 -117.59651125 864.26451974 C-117.58789804 860.24950813 -117.59692627 856.23452622 -117.60357541 852.21951616 C-117.61281855 845.2022077 -117.61105771 838.1849711 -117.60184288 831.16766357 C-117.58817795 820.73260046 -117.5918298 810.29759198 -117.59880148 799.8625248 C-117.6106989 781.22183526 -117.60566486 762.58117965 -117.59352321 743.940492 C-117.58297275 727.63112199 -117.57844955 711.32176353 -117.57981873 695.01239014 C-117.57990276 693.92911466 -117.57998679 692.84583919 -117.58007336 691.72973719 C-117.58042563 687.33205673 -117.58080965 682.93437627 -117.58123894 678.53669582 C-117.58520035 637.31872112 -117.57250242 596.10076682 -117.55171238 554.88279795 C-117.53333632 518.2786577 -117.52753242 481.67453698 -117.53298378 445.07039261 C-117.53333021 442.71907312 -117.53367631 440.36775363 -117.53402207 438.01643415 C-117.53419307 436.85397362 -117.53436406 435.69151309 -117.53454024 434.49382648 C-117.53539381 428.64190521 -117.53621759 422.78998394 -117.53700924 416.93806267 C-117.53724486 415.20624047 -117.53724486 415.20624047 -117.53748524 413.43943196 C-117.5414762 382.82979197 -117.53599867 352.22015385 -117.52749795 321.610515 C-117.52659093 318.31662164 -117.52568528 315.02272828 -117.52478272 311.72883493 C-117.52418161 309.54386595 -117.52357299 307.35889697 -117.52295681 305.173928 C-117.51873814 289.95181917 -117.51815603 274.72971403 -117.5200623 259.5076048 C-117.52250634 239.89407979 -117.51842434 220.28057457 -117.5028523 200.66705497 C-117.49480987 190.29879891 -117.49219478 179.93057581 -117.49749466 169.56231779 C-117.50047632 162.63272317 -117.49615488 155.70315763 -117.48594608 148.77356995 C-117.48033195 144.82835904 -117.47779516 140.88321524 -117.48411266 136.93800385 C-117.48980317 133.34087134 -117.48611807 129.7438685 -117.47531388 126.14674882 C-117.47196013 124.26068882 -117.4782689 122.37461894 -117.48510823 120.48856837 C-117.33287964 87.16573966 -103.8769911 57.00161513 -80.5337162 33.42049026 C-73.92548093 27.18630605 -66.79474274 22.10104277 -59.21730995 17.13142776 C-58.06875526 16.35605667 -58.06875526 16.35605667 -56.89699745 15.56502151 C-53.18613383 13.12749345 -49.59365427 11.38091531 -45.39699745 9.94392776 C-42.85342214 8.995785 -40.47013066 7.81975785 -38.02980995 6.63142776 C-26.00536271 1.0945117 -13.06744324 -0.02534759 0 0 Z " fill="#22DD51" transform="translate(346.2173099517822,106.86857223510742)"/>
<path d="M0 0 C0.97711432 -0.00290688 1.95422864 -0.00581376 2.96095249 -0.00880873 C6.23078576 -0.01609984 9.50043086 -0.00916942 12.77026272 -0.002285 C15.13996506 -0.00458978 17.50966668 -0.00776641 19.87936682 -0.01173949 C25.0293289 -0.01834968 30.17925286 -0.01875085 35.32921505 -0.01364517 C42.9873964 -0.00607351 50.64554241 -0.00995116 58.30372353 -0.01606179 C71.98172489 -0.02658964 85.65970757 -0.02568196 99.33771071 -0.01990396 C111.30694389 -0.01487262 123.27617022 -0.01355956 135.24540424 -0.01594925 C136.43637934 -0.0161784 136.43637934 -0.0161784 137.65141454 -0.01641219 C140.87445054 -0.01703487 144.09748653 -0.01767167 147.32052253 -0.01833172 C177.55319973 -0.02444934 207.78586503 -0.01890327 238.0185404 -0.00813792 C264.87975219 0.00135416 291.74094502 0.00050322 318.60215664 -0.00905991 C348.78109209 -0.01976829 378.96001702 -0.0240164 409.1389541 -0.01783538 C412.35580345 -0.01719394 415.57265279 -0.01656826 418.78950214 -0.01594925 C419.58157263 -0.01579109 420.37364312 -0.01563294 421.18971575 -0.01546999 C433.15225755 -0.01319478 445.11479175 -0.01585608 457.0773325 -0.02090836 C470.67810084 -0.02662388 484.27884758 -0.02520355 497.87961323 -0.01434687 C505.49205024 -0.00847082 513.10444046 -0.00809598 520.71687627 -0.01563922 C526.39744368 -0.02064755 532.07796259 -0.01522218 537.75852244 -0.00569007 C540.05918734 -0.00345135 542.35985848 -0.00460285 544.66051937 -0.00944164 C547.78274666 -0.01550592 550.90471792 -0.00930232 554.02693176 0 C554.92423731 -0.00468233 555.82154286 -0.00936466 556.74603948 -0.01418889 C571.74342691 0.07537177 584.75357023 6.370374 595.63804531 16.50168228 C606.79301873 28.21044871 611.27886014 41.85691885 611.19105434 57.69174576 C611.19361762 59.39258953 611.19361762 59.39258953 611.19623268 61.12779379 C611.19951996 64.91720166 611.18853622 68.70643142 611.17759609 72.49582291 C611.17591706 75.2161813 611.17726085 77.93653625 611.1784811 80.65689468 C611.17952787 86.50848093 611.17327303 92.36002245 611.16200542 98.21159744 C611.14572517 106.67190079 611.14053984 115.1321826 611.13802944 123.59249991 C611.1336563 137.32005212 611.12035753 151.0475805 611.10142422 164.77511978 C611.08305556 178.10714982 611.06890388 191.43917338 611.06040859 204.77121353 C611.05962042 206.00467702 611.05962042 206.00467702 611.05881633 207.26305896 C611.05620618 211.38849751 611.05367878 215.51393611 611.05119252 219.63937473 C611.03047188 253.84349439 610.99525672 288.04758576 610.95054531 322.25168228 C610.26308759 322.25407063 609.57562986 322.25645899 608.86734009 322.25891972 C592.11525741 322.31813814 575.36333599 322.39373181 558.61141205 322.48739719 C550.51019564 322.53230164 542.40902267 322.57172855 534.30772305 322.59811783 C527.24399638 322.62114135 520.18040778 322.65458776 513.11679071 322.70038384 C509.37902833 322.72425758 505.64140221 322.74302455 501.90356541 322.74929619 C497.72379729 322.7565051 493.5445014 322.78699055 489.36485195 322.81930923 C488.13485973 322.81787415 486.90486752 322.81643906 485.63760281 322.81496048 C470.93026271 322.97555053 460.32262399 328.36379599 450.01499844 338.78683853 C449.2718539 339.55898697 448.52870937 340.33113541 447.76304531 341.12668228 C447.00829922 341.89109634 446.25355312 342.65551041 445.47593594 343.44308853 C442.17570996 346.80903329 438.97709881 350.21668594 435.91270351 353.79831314 C430.97370273 359.46540852 425.61193548 364.71429781 420.28648281 370.01340103 C419.16481267 371.1332009 418.04336695 372.25322561 416.92213345 373.37346268 C413.99019718 376.30161001 411.05527249 379.22674352 408.11967373 382.15121841 C405.13700205 385.12364176 402.15717033 388.09890911 399.17710781 391.07394791 C393.93394353 396.30758449 388.68832266 401.53874748 383.44087124 406.76808548 C382.2081599 407.9974659 382.2081599 407.9974659 380.95054531 409.25168228 C379.70356617 410.48465797 379.70356617 410.48465797 378.43139553 411.74254227 C375.92402202 414.27850802 373.51534012 416.87947589 371.1187582 419.52023697 C360.15261461 431.53882486 348.95523594 443.33601964 337.62246513 455.00901031 C333.59157125 459.16447043 329.58920771 463.34104601 325.6421957 467.57638931 C321.78415538 471.71442524 317.86369151 475.78312435 313.89395237 479.81402206 C312.40970429 481.34324257 310.94805014 482.89478574 309.51221943 484.4695549 C302.84350248 491.75530876 297.27427715 497.33082294 287.06043911 498.17831802 C280.65119564 498.34263456 274.31797663 497.97659573 267.95054531 497.25168228 C266.40010068 474.49628993 265.34975671 451.73937213 264.76304531 428.93918228 C264.73031796 427.69594806 264.73031796 427.69594806 264.69692945 426.427598 C262.79054636 351.74301291 262.79054636 351.74301291 282.48031521 329.70650101 C285.80896332 326.22634574 289.37213805 323.12272667 293.13804531 320.12668228 C293.73772247 319.6494157 294.33739964 319.17214912 294.95524883 318.68041992 C301.80589658 313.32908542 308.91397868 308.85265807 316.54197598 304.67641068 C319.52650469 302.91098805 321.69931868 300.87984609 323.95054531 298.25168228 C325.05486904 297.04016495 325.05486904 297.04016495 326.18150234 295.80417252 C326.97411465 294.91931168 327.76672695 294.03445084 328.58335781 293.12277603 C336.67344806 284.20772292 345.29357756 275.80219647 353.82554531 267.31418228 C355.51588492 265.62887152 357.20599069 263.94332618 358.89585781 262.25754166 C361.98279877 259.17870146 365.07103493 256.10117451 368.16099453 253.02536392 C371.09484229 250.10477217 374.02480875 247.1803982 376.95054531 244.25168228 C380.61721198 240.58501561 384.28387864 236.91834895 387.95054531 233.25168228 C389.24025234 231.93103775 389.24025234 231.93103775 390.55601406 230.58371353 C393.49366583 227.72273783 396.57492685 225.56828318 399.95054531 223.25168228 C400.90574062 223.72219009 401.86093594 224.19269791 402.84507656 224.67746353 C424.26804131 235.06351266 446.93322082 237.83606372 469.83726406 229.96261978 C490.17476195 222.50366075 506.73727595 208.2264724 516.19517422 188.62814713 C525.00879836 169.29025656 527.47300386 147.55406942 521.33726406 126.95090103 C512.63620026 103.73989423 497.92974761 86.82894304 475.45054531 76.00168228 C455.35192649 67.06101554 432.695744 66.75646581 412.07481289 74.2524147 C390.59308973 82.56294141 374.690168 100.19481598 365.32163906 120.84152603 C359.16730282 136.14846488 358.52236436 152.21212255 361.51304531 168.34933853 C361.65742031 169.30711197 361.80179531 170.26488541 361.95054531 171.25168228 C362.09435635 172.15539566 362.23816738 173.05910904 362.38633633 173.99020767 C361.73199996 178.88728305 358.90492848 181.02946261 355.41538906 184.33761978 C354.74391338 184.9982341 354.07243771 185.65884842 353.38061428 186.33948135 C351.23013578 188.44981069 349.06013556 190.53862479 346.88804531 192.62668228 C344.74529753 194.7116747 342.60682566 196.80093162 340.47045803 198.89245987 C339.1416161 200.19064631 337.80842773 201.48440499 336.4700613 202.77276993 C333.40906342 205.73780015 330.48165069 208.74249407 327.71325588 211.9840126 C324.01513017 216.23482218 320.10442614 220.22525176 316.10679531 224.19308853 C315.35623867 224.94218491 314.60568203 225.69128128 313.83238125 226.46307755 C312.21574283 228.07593472 310.59795106 229.68763652 308.97910976 231.29828262 C306.41184153 233.8526922 303.84779334 236.41029565 301.28452969 238.9687233 C294.92026178 245.31967913 288.55054946 251.66516545 282.18101406 258.01083755 C276.78915101 263.38291964 271.39937398 268.75707844 266.01231289 274.13397598 C263.49573009 276.64411324 260.97613631 279.15120064 258.45640469 281.65817642 C256.9022191 283.20872683 255.34817523 284.7594193 253.79429531 286.31027603 C253.10110195 286.99830307 252.40790859 287.68633011 251.69370937 288.39520645 C247.78543485 292.30306086 244.06652698 296.31654911 240.47156525 300.51510715 C238.33645305 302.95280218 236.02402597 305.16844147 233.66538906 307.38840103 C232.72243984 308.29654556 231.77949062 309.20469009 230.80796719 310.14035416 C229.3530723 311.54008947 227.89409032 312.93354087 226.41807461 314.31100845 C217.03737341 323.09317485 210.87882639 332.1932461 209.95054531 345.25168228 C209.85543325 349.79359859 209.87587895 354.33239423 209.91546345 358.87468719 C209.93626907 361.2626064 209.95093679 363.65049802 209.9640646 366.03847122 C209.97830182 368.61446261 209.99294483 371.19044546 210.00942457 373.76642358 C210.04993976 380.15294497 210.07055135 386.53931251 210.07928371 392.92595291 C210.08056733 393.85558293 210.08185094 394.78521294 210.08317345 395.74301356 C210.08804975 399.57451504 210.09222475 403.40601687 210.09596002 407.23751962 C210.10725408 418.0879438 210.13805482 428.9374888 210.2281332 439.78757095 C210.29970042 448.42343702 210.32856083 457.05826943 210.30796987 465.69442397 C210.29866744 470.25691167 210.31034936 474.81708835 210.37393665 479.37919044 C210.43332774 483.67559007 210.43560214 487.96839886 210.39594555 492.26498985 C210.39126505 493.83185756 210.40670095 495.39895042 210.44492817 496.96535873 C210.62368661 504.75581781 210.09486988 510.70333791 204.78746253 516.78884298 C202.7431354 518.91937539 200.63278968 520.94498415 198.43308318 522.91424429 C196.27447007 524.86158826 194.26285931 526.94648186 192.23570156 529.02902603 C190.83085071 530.41848126 189.42337474 531.80528826 188.01304531 533.18918228 C182.34546614 538.71956592 182.34546614 538.71956592 177.09507656 544.63840103 C174.95054531 547.25168228 174.95054531 547.25168228 172.57554531 549.12668228 C170.3028933 550.96644819 168.64256019 552.6898853 166.76499844 554.90207291 C163.117089 559.11543919 159.2582783 563.0560081 155.29429531 566.97043228 C154.58833218 567.6726088 153.88236904 568.37478531 153.15501308 569.0982399 C150.17157156 572.06551995 147.18213821 575.02673591 144.19322109 577.98849869 C141.99563952 580.16786693 139.80116593 582.35033175 137.60679531 584.53293228 C136.94304897 585.18838028 136.27930264 585.84382828 135.59544277 586.51913834 C131.78242432 590.31240146 128.19187759 594.22637203 124.67802334 598.29712296 C121.87520756 601.46837587 118.8847397 604.44080123 115.88023281 607.41965103 C115.23611446 608.06235443 114.59199612 608.70505783 113.92835903 609.36723709 C111.89645526 611.39361143 109.86108674 613.41646278 107.82554531 615.43918228 C106.45421754 616.8054839 105.08312194 618.17201858 103.71226406 619.53879166 C101.19660518 622.04633797 98.67962707 624.55254281 96.16099453 627.0571022 C95.33525936 627.87894753 95.33525936 627.87894753 94.49284267 628.71739578 C93.11745367 630.08564086 91.74041193 631.45222411 90.36314297 632.81857681 C87.71388728 635.49035198 85.10972936 638.19892309 82.54429531 640.95090103 C82.02645473 641.5047699 81.50861416 642.05863876 80.97508144 642.62929153 C77.40791713 646.50562203 74.1375008 650.53459386 70.92494106 654.70743179 C60.6422977 667.89296606 49.63986443 681.97906064 32.17008877 684.32234573 C9.78366577 686.12173264 -19.39175928 685.29011423 -38.04945469 671.25168228 C-43.80475427 666.31909897 -49.33335046 660.90672472 -53.04945469 654.25168228 C-52.71497782 650.62707752 -51.06307797 648.89567311 -48.53936863 646.3875618 C-47.78650074 645.63201508 -47.03363285 644.87646835 -46.25795078 644.09802628 C-45.42626377 643.27869614 -44.59457676 642.459366 -43.73768711 641.61520767 C-42.4303738 640.30964668 -42.4303738 640.30964668 -41.09665012 638.97771072 C-39.20051556 637.08630146 -37.30188601 635.19787272 -35.39835262 633.31395531 C-32.3863584 630.33299505 -29.3847848 627.3416876 -26.38449192 624.34895706 C-21.6351528 619.61411006 -16.87864794 614.88653464 -12.11916953 610.16188186 C-3.60317263 601.70774688 4.90077931 593.24150459 13.4018957 584.77240938 C16.38417172 581.80193895 19.36959801 578.83468178 22.35772383 575.87009633 C24.65718718 573.58776529 26.95356837 571.30233532 29.25059414 569.01755142 C30.07620846 568.20024551 30.90182278 567.38293961 31.75245571 566.54086685 C35.39149254 562.9159823 38.7854625 559.30411433 41.95054531 555.25168228 C43.59169594 553.55988437 45.2637838 551.89800885 46.95054531 550.25168228 C48.31750526 548.89768749 49.6834882 547.54270602 51.04881191 546.18706131 C52.69115622 544.55988934 54.33353311 542.93275026 55.97593594 541.30563736 C65.15469021 532.20881285 74.32061816 523.0991721 83.47922421 513.98206425 C89.01743627 508.46962745 94.5602696 502.96199009 100.11411953 497.46530533 C104.97332995 492.65608286 109.82355111 487.83800033 114.66338968 483.00928038 C117.21971648 480.4594388 119.78017024 477.91409571 122.35150051 475.37937737 C125.22325641 472.54819155 128.0747683 469.69739921 130.92515469 466.84469986 C131.76894176 466.01888916 132.61272884 465.19307846 133.48208523 464.34224319 C138.67879147 459.09987052 142.19518122 454.10583453 144.95054531 447.25168228 C145.26684052 446.54618398 145.58313574 445.84068567 145.90901566 445.11380863 C149.2953596 436.21271638 148.25909793 426.25991306 148.12901211 416.90597916 C148.11181624 414.8419502 148.09619237 412.77790764 148.08201504 410.71385574 C148.04978841 406.28370559 148.00952969 401.85372626 147.96388721 397.42369461 C147.89479927 390.41356629 147.86270827 383.40357386 147.83917141 376.39316177 C147.83502041 375.20787337 147.83086941 374.02258496 147.82659262 372.80137873 C147.81814621 370.37859241 147.80976946 367.95580586 147.80146086 365.53301907 C147.74366964 349.2232999 147.65993934 332.91456465 147.48106289 316.60568619 C147.36049864 305.58753423 147.29674513 294.57064991 147.29810745 283.55181742 C147.29651598 277.72636845 147.26583153 271.90432148 147.16536427 266.07966995 C147.07125485 260.60190695 147.05197797 255.12892543 147.08930111 249.65052986 C147.08972703 247.64528436 147.06289314 245.63981201 147.00625706 243.63536644 C146.61026717 228.84347481 146.61026717 228.84347481 150.5292275 224.50333595 C154.38833754 221.40725655 158.59948697 219.32456481 163.07574046 217.2739439 C165.8536736 215.75923989 167.80030608 213.53902012 169.95054531 211.25168228 C170.61054531 211.25168228 171.27054531 211.25168228 171.95054531 211.25168228 C172.20320156 210.68707291 172.45585781 210.12246353 172.71617031 209.54074478 C174.11890484 206.93947126 175.7995058 204.88877194 177.70054531 202.62668228 C184.58389375 194.09731573 188.97784749 185.81827182 191.95054531 175.25168228 C192.48421719 173.42443619 192.48421719 173.42443619 193.02867031 171.56027603 C196.83054875 155.96150101 194.05808511 139.79707916 187.95054531 125.25168228 C187.51742031 124.21914322 187.08429531 123.18660416 186.63804531 122.12277603 C177.98506528 104.43052221 162.22302389 91.78709433 143.95054531 85.25168228 C143.222225 84.94617447 142.49390469 84.64066666 141.74351406 84.32590103 C126.83132918 78.11984381 107.07486353 80.11399168 92.26304531 85.50168228 C81.93163046 89.77332496 73.91206214 95.42111145 65.95054531 103.25168228 C65.24929531 103.94004166 64.54804531 104.62840103 63.82554531 105.33761978 C50.16963555 119.68699371 43.52932057 139.07545979 43.44151211 158.70895767 C43.99031852 175.66648134 51.92254514 193.5504683 62.95054531 206.25168228 C63.64535 207.05219009 64.34015469 207.85269791 65.05601406 208.67746353 C70.72743077 214.77446779 76.67036254 218.79805648 83.94663906 222.65793228 C86.95054531 224.25168228 86.95054531 224.25168228 89.95054531 226.25168228 C90.26257678 228.91953851 90.37657677 231.35877753 90.36514187 234.03113174 C90.37334967 234.84390654 90.38155747 235.65668133 90.39001399 236.49408567 C90.41379557 239.23321304 90.41591784 241.9719312 90.41807461 244.71115494 C90.43031826 246.66889582 90.44376941 248.62662947 90.45834255 250.5843544 C90.49348927 255.91518919 90.50866778 261.24590004 90.51817966 266.57683611 C90.52474619 269.90668309 90.53508794 273.23649695 90.54668522 276.56632996 C90.58646159 288.18167427 90.6084525 299.79691914 90.6163168 311.41232681 C90.62418226 322.240447 90.67338175 333.06785774 90.7413823 343.8957516 C90.79770366 353.18843119 90.82323005 362.48087502 90.82526428 371.77372396 C90.82710559 377.32538669 90.84176893 382.87630263 90.88808155 388.42778778 C90.93074546 393.6533121 90.93510523 398.87749288 90.9102869 404.1031189 C90.90770156 406.01873579 90.9187401 407.93442802 90.94456387 409.84987259 C91.12738125 424.27997392 91.12738125 424.27997392 88.35164738 428.93052673 C86.33710051 430.94512867 84.24425771 432.56817711 81.95054531 434.25168228 C80.82255662 435.47884369 79.72876422 436.73826626 78.67027187 438.0258522 C73.87883311 443.58167966 68.6319059 448.69353796 63.43492031 453.86496353 C62.28247496 455.01548619 61.13025967 456.16623934 59.97825527 457.31720352 C57.51069605 459.78161848 55.0415961 462.24447528 52.57127285 464.70611954 C48.65943825 468.60435234 44.75149167 472.50646752 40.8441 476.40915298 C31.84483908 485.39640661 22.84055829 494.37862533 13.83622646 503.36079788 C5.57886613 511.59794122 -2.67741249 519.8361612 -10.92963886 528.0784483 C-14.80833421 531.95218289 -18.68944941 535.82347113 -22.5724802 539.69285965 C-24.99336855 542.10625146 -27.41214986 544.52174674 -29.83038425 546.93779755 C-30.94567397 548.05122657 -32.06182205 549.1637966 -33.17892551 550.27540588 C-38.42538014 555.49688303 -43.63374088 560.69565618 -48.33711338 566.42168045 C-50.70933164 568.95690152 -53.37045789 571.04251237 -56.04945469 573.25168228 C-56.11794249 523.1926279 -56.1816231 473.13357024 -56.21882725 423.07448196 C-56.21937948 422.33334502 -56.2199317 421.59220808 -56.22050067 420.82861244 C-56.23247288 404.72090058 -56.24355352 388.61318822 -56.25371601 372.50547512 C-56.25870526 364.60601737 -56.26389149 356.70655976 -56.26918125 348.8071022 C-56.26970429 348.02101997 -56.27022732 347.23493774 -56.27076621 346.42503484 C-56.28780524 320.95542938 -56.31784572 295.48585947 -56.35464357 270.01627554 C-56.39239596 243.83840348 -56.41700157 217.66055107 -56.42511465 191.48265225 C-56.42626723 187.78343613 -56.42756978 184.08422008 -56.42896366 180.38500404 C-56.42923335 179.65696024 -56.42950305 178.92891644 -56.42978091 178.1788107 C-56.43450394 166.46917143 -56.45304578 154.75959305 -56.47678282 143.04997859 C-56.5003628 131.27187819 -56.50899552 119.49384335 -56.5034602 107.71572021 C-56.50089751 101.33647531 -56.50483426 94.95740879 -56.52627659 88.57819557 C-56.54577562 82.73440186 -56.54670262 76.89090612 -56.53305027 71.04709854 C-56.53136351 68.93651181 -56.53640897 66.82590631 -56.54898742 64.71535639 C-56.64817494 47.04037048 -54.41453113 30.59792739 -41.86586094 16.93527603 C-29.57355212 5.54175969 -16.62609985 -0.0869855 0 0 Z " fill="#000100" transform="translate(351.0494546890259,175.74831771850586)"/>
<path d="M0 0 C0.02281027 32.00117874 0.04050848 64.00235517 0.05106533 96.00354014 C0.05231604 99.7811687 0.05361036 103.55879724 0.05493164 107.33642578 C0.05532511 108.46451737 0.05532511 108.46451737 0.05572652 109.61539869 C0.06007838 121.79428365 0.06796329 133.97316388 0.0771528 146.15204604 C0.08650276 158.64775184 0.09205846 171.14345517 0.09408849 183.63916433 C0.09546092 191.35029946 0.09979642 199.06142127 0.10791647 206.7725523 C0.11382491 212.68443285 0.11445555 218.59630656 0.11310768 224.50819016 C0.11338321 226.93418205 0.11537788 229.36017444 0.11920547 231.78616333 C0.1241702 235.0946537 0.12298794 238.40308671 0.12025452 241.71157837 C0.12462378 243.15614125 0.12462378 243.15614125 0.12908131 244.62988722 C0.11884774 249.2030768 -0.05980453 253.50032992 -1 258 C-1.66 258 -2.32 258 -3 258 C-3.020625 259.093125 -3.04125 260.18625 -3.0625 261.3125 C-4.34233748 271.2531555 -12.9407426 280.40235273 -20 287 C-34.8389449 298.34103842 -49.93769541 300.30862034 -68.03347778 300.24050903 C-69.76215073 300.24138208 -71.49082342 300.2431349 -73.2194947 300.24568737 C-77.95139166 300.25014532 -82.68319756 300.24217859 -87.41508293 300.23213124 C-92.5247026 300.22347663 -97.63431732 300.22641833 -102.74394226 300.22793579 C-111.59064063 300.22898337 -120.43730946 300.22272004 -129.2840004 300.21146011 C-142.07475257 300.19519087 -154.86549049 300.18999565 -167.65625189 300.18748413 C-188.40951457 300.18310927 -209.1627615 300.16980581 -229.91601562 300.15087891 C-250.07324139 300.13251471 -270.23046287 300.11836084 -290.38769531 300.10986328 C-291.63064523 300.10933783 -292.87359515 300.10881239 -294.15421022 300.10827102 C-300.38986157 300.1056609 -306.62551294 300.1031335 -312.86116433 300.10064721 C-364.57412043 300.07992121 -416.28705945 300.04470135 -468 300 C-467.14839308 295.62725917 -465.10116687 293.8267259 -461.875 290.75 C-458.67794594 287.68578752 -455.64003412 284.62869651 -452.76025391 281.26464844 C-449.25954564 277.24303662 -445.57537372 273.46209148 -441.78125 269.71875 C-441.11967896 269.06096558 -440.45810791 268.40318115 -439.77648926 267.72546387 C-436.98421856 264.94933442 -434.18594584 262.17928463 -431.38818359 259.40869141 C-429.32959102 257.3683292 -427.27412097 255.32485669 -425.21875 253.28125 C-424.28875183 252.36369934 -424.28875183 252.36369934 -423.33996582 251.4276123 C-420.2997109 248.40416457 -417.38113895 245.33092784 -414.58203125 242.08203125 C-410.74816868 237.64525748 -406.63633676 233.52780089 -402.46875 229.40625 C-401.67400269 228.61528931 -400.87925537 227.82432861 -400.0604248 227.00939941 C-396.69464452 223.65981427 -393.32288952 220.3162673 -389.95166016 216.97216797 C-387.47609773 214.51479061 -385.00361917 212.05433942 -382.53125 209.59375 C-381.78000854 208.85080688 -381.02876709 208.10786377 -380.25476074 207.34240723 C-374.12620706 201.24206243 -368.2684699 195.08648038 -363.453125 187.87890625 C-357.6864623 180.23892455 -351.87002286 173.5148616 -342.05664062 172.05419922 C-331.78922817 171.04891742 -321.51200524 171.58813133 -311.22801208 172.01651001 C-298.72353965 172.37019484 -289.2648661 167.50014336 -280.0703125 159.2734375 C-277.16478416 156.44538992 -274.50132345 153.43505404 -271.8671875 150.35546875 C-267.72237558 145.60803267 -263.28981815 141.181834 -258.8125 136.75 C-257.52049683 135.46367676 -257.52049683 135.46367676 -256.20239258 134.15136719 C-252.54986017 130.51505061 -248.89136365 126.88475629 -245.23339844 123.25390625 C-242.54934844 120.58802403 -239.86836759 117.9190819 -237.1875 115.25 C-236.37063721 114.44143555 -235.55377441 113.63287109 -234.7121582 112.79980469 C-233.93445068 112.02540039 -233.15674316 111.25099609 -232.35546875 110.453125 C-231.68153076 109.78442383 -231.00759277 109.11572266 -230.31323242 108.42675781 C-224.96289286 102.81384222 -220.06454463 96.88040917 -215.27618408 90.78543091 C-206.69069963 79.86720099 -197.7320259 69.35291657 -188.46513748 59.01010895 C-183.35757401 53.29173625 -178.41669483 47.52768806 -173.76464844 41.43066406 C-130.162285 -15.39414062 -64.72726079 -4.97159726 0 0 Z " fill="#000100" transform="translate(962,558)"/>
<path d="M0 0 C2.8125 2.5625 2.8125 2.5625 5 5 C5.804375 5.78375 6.60875 6.5675 7.4375 7.375 C8.7059375 8.674375 8.7059375 8.674375 10 10 C10.928125 10.928125 11.85625 11.85625 12.8125 12.8125 C24.02504005 26.17459436 28.37598369 43.87664742 27 61 C25.24065729 74.13642558 20.80129857 86.93262136 12 97 C10.99646484 98.21623047 10.99646484 98.21623047 9.97265625 99.45703125 C4.91010142 105.39151995 -0.32130921 109.9750283 -7 114 C-7.90363281 114.5465625 -8.80726563 115.093125 -9.73828125 115.65625 C-24.73417706 123.93544552 -44.2082045 125.51690763 -60.70703125 121.171875 C-79.14735641 114.6094817 -93.08645456 102.3310833 -102.4375 85.1875 C-111.38802651 65.70389012 -109.73075626 47.09585194 -104 27 C-103.34 27 -102.68 27 -102 27 C-101.8865625 26.26136719 -101.773125 25.52273438 -101.65625 24.76171875 C-98.81749741 12.8153016 -86.24855901 2.47407436 -76.55078125 -3.953125 C-52.62589578 -18.35516576 -22.61516489 -15.73047447 0 0 Z " fill="#22DC50" transform="translate(878,674)"/>
<path d="M0 0 C1.65 0.33 3.3 0.66 5 1 C6.33083235 5.48944676 5.56265117 8.38125066 4.15625 12.79296875 C3.95178757 13.44799881 3.74732513 14.10302887 3.53666687 14.77790833 C3.09647212 16.18525482 2.65125361 17.59103798 2.20150757 18.99536133 C1.01216711 22.71192738 -0.13908592 26.4402717 -1.29296875 30.16796875 C-1.52586105 30.91746796 -1.75875336 31.66696716 -1.998703 32.43917847 C-4.42813003 40.29923708 -6.5584337 48.23140651 -8.65063477 56.18701172 C-10.47776984 63.12010575 -12.41697704 70.00512577 -14.5793457 76.84179688 C-15.64753673 80.31899305 -16.33001967 83.35631339 -16 87 C-13.96481227 89.03518773 -9.76932256 88.23340245 -6.96875 88.28125 C-6.14483765 88.29965942 -5.32092529 88.31806885 -4.4720459 88.33703613 C-1.81477237 88.39595323 0.84257316 88.44849761 3.5 88.5 C13.55549996 88.70129813 23.61019433 88.91039495 33.65625 89.40625 C34.72860901 89.44969543 34.72860901 89.44969543 35.82263184 89.49401855 C40.7668913 89.7668913 40.7668913 89.7668913 43 92 C43.15238493 95.80962314 42.92449213 97.88779373 40.4609375 100.8515625 C39.09370618 102.17521672 37.70797099 103.47990909 36.30859375 104.76953125 C33.81758701 107.17623996 31.71495832 109.72517554 29.5625 112.4375 C25.98866659 116.89095162 22.19265581 120.91371864 18.109375 124.8984375 C15.57837683 127.4200616 13.2571323 130.07695435 10.9296875 132.78515625 C8.58076183 135.48119037 6.17001492 138.11799143 3.75 140.75 C3.28094238 141.26022705 2.81188477 141.7704541 2.32861328 142.29614258 C1.36579113 143.34282343 0.40273571 144.38928975 -0.56054688 145.43554688 C-2.87742303 147.95361716 -5.18856721 150.47693388 -7.5 153 C-10.29385896 156.04966293 -13.0892079 159.09790145 -15.890625 162.140625 C-21.67023887 168.41491652 -21.67023887 168.41491652 -27.3125 174.8125 C-30.77053996 178.80641056 -34.3871556 182.64680005 -38 186.5 C-43.48001052 192.33908516 -43.48001052 192.33908516 -48.8125 198.3125 C-49.32167969 198.89644531 -49.83085937 199.48039062 -50.35546875 200.08203125 C-51.66442244 201.6086257 -52.95466314 203.15126044 -54.23828125 204.69921875 C-55.02589844 205.62347656 -55.81351562 206.54773437 -56.625 207.5 C-57.33914063 208.3559375 -58.05328125 209.211875 -58.7890625 210.09375 C-61 212 -61 212 -63.6484375 212.40625 C-66 212 -66 212 -68 210 C-68.45289872 201.98369273 -65.84598811 194.0400171 -63.68164062 186.42529297 C-62.28666312 181.46193101 -60.96284824 176.47899845 -59.625 171.5 C-59.3269043 170.39438721 -59.02880859 169.28877441 -58.72167969 168.1496582 C-55.75060957 157.11664835 -52.8438129 146.06652347 -50 135 C-49.68554932 133.93241455 -49.68554932 133.93241455 -49.36474609 132.84326172 C-48.78760431 130.9145162 -48.78760431 130.9145162 -50 129 C-51.06115776 128.97240852 -51.06115776 128.97240852 -52.14375305 128.94425964 C-58.80970006 128.76836205 -65.47508907 128.57856516 -72.14019489 128.37313366 C-75.56685443 128.26800854 -78.99349476 128.16827037 -82.4206543 128.08081055 C-86.3603995 127.98003402 -90.29924023 127.85588546 -94.23828125 127.73046875 C-95.46960281 127.70220505 -96.70092438 127.67394135 -97.96955872 127.64482117 C-99.11051498 127.60500626 -100.25147125 127.56519135 -101.42700195 127.52416992 C-102.432939 127.49530197 -103.43887604 127.46643402 -104.47529602 127.43669128 C-107.3598105 126.93776454 -108.29788549 126.34575066 -110 124 C-110.47010021 121.00438048 -110.38994539 119.58150261 -108.68994141 117.04638672 C-107.77994385 116.12237061 -107.77994385 116.12237061 -106.8515625 115.1796875 C-105.8450061 114.13735962 -105.8450061 114.13735962 -104.81811523 113.07397461 C-103.73252319 111.98548218 -103.73252319 111.98548218 -102.625 110.875 C-101.14907112 109.35351274 -99.67381 107.83137744 -98.19921875 106.30859375 C-97.47782715 105.57108887 -96.75643555 104.83358398 -96.01318359 104.07373047 C-93.42867381 101.41149106 -90.92667452 98.68909912 -88.4375 95.9375 C-87.73496094 95.16277344 -87.03242188 94.38804687 -86.30859375 93.58984375 C-84.41884992 91.46987733 -82.55062643 89.33464122 -80.6875 87.19140625 C-77.06496875 83.04519407 -73.33498017 79.00971861 -69.5625 75 C-68.90507812 74.29939453 -68.24765625 73.59878906 -67.5703125 72.87695312 C-63.72790313 68.79486872 -59.82962471 64.78641421 -55.82836914 60.859375 C-54.05543886 59.05637901 -52.3982273 57.19829533 -50.75 55.28125 C-47.10252846 51.08685031 -43.32369989 47.0335051 -39.5 43 C-38.0897155 41.50663152 -36.67956245 40.0131389 -35.26953125 38.51953125 C-34.56006348 37.76881348 -33.8505957 37.0180957 -33.11962891 36.24462891 C-16.14805542 18.48993593 -16.14805542 18.48993593 0 0 Z " fill="#000200" transform="translate(441,892)"/>
<path d="M0 0 C0.66 0.33 1.32 0.66 2 1 C2 1.66 2 2.32 2 3 C2.58910156 3.10441406 3.17820312 3.20882813 3.78515625 3.31640625 C8.69957142 4.83320106 11.98976034 9.29215239 14.52734375 13.58203125 C19.14238385 22.71847296 20.67844853 31.80664917 18.31640625 41.9296875 C14.15051446 53.02720835 7.16667296 59.45901974 -3.3046875 64.6328125 C-10.7010344 67.36930448 -19.08104041 67.33955588 -26.53125 64.79296875 C-35.97012621 60.17866664 -41.02198993 55.1263518 -46 46 C-46.61875 44.948125 -47.2375 43.89625 -47.875 42.8125 C-49.68986744 36.66211589 -49.22094495 30.35830474 -49 24 C-48.34 24 -47.68 24 -47 24 C-47.0515625 23.27554687 -47.103125 22.55109375 -47.15625 21.8046875 C-46.79278234 15.28044294 -41.85752683 9.47030986 -37.25 5.125 C-32.9468296 1.60950048 -28.23593545 -0.27018829 -23 -2 C-15.19558771 -4.60147076 -7.50844555 -2.78678844 0 0 Z " fill="#000301" transform="translate(808,296)"/>
<path d="M0 0 C13.57739891 9.87447194 13.57739891 9.87447194 15.75 18 C16.79232 26.05979996 15.81922872 34.40805315 11.23828125 41.26171875 C6.47427457 47.05346619 1.31916584 50.90142731 -6.25 52 C-13.4216372 52.04487883 -19.72526673 51.9985682 -25.25 47 C-25.83265625 46.50371094 -26.4153125 46.00742187 -27.015625 45.49609375 C-32.4624321 40.56421589 -35.61458052 35.43594728 -36.6640625 28.109375 C-37.07323823 19.71050469 -35.04778685 13.21093521 -29.3828125 6.9296875 C-21.02085597 -0.8466067 -11.09811242 -3.41480382 0 0 Z " fill="#010501" transform="translate(480.25,307)"/>
<path d="M0 0 C5.60189251 3.04526555 8.99027345 7.3555469 11.8125 13 C12.51836484 20.11915107 12.78179349 26.38365715 8.37109375 32.28125 C3.28156917 37.8937583 -0.19690847 40.55687615 -7.87109375 41.23828125 C-13.88496505 41.40035721 -17.54184134 41.21350436 -22.1875 37 C-27.43124889 31.55408248 -30.46829304 27.5300398 -30.625 19.75 C-30.50648411 13.52442991 -29.50084811 9.54036644 -25.1875 5 C-17.40524242 -1.904104 -9.86790059 -4.44204588 0 0 Z " fill="#010501" transform="translate(846.1875,709)"/>
<path d="M0 0 C0.99 0.33 1.98 0.66 3 1 C0.60838068 3.42086773 -1.78903442 5.83591651 -4.1875 8.25 C-4.86103516 8.93191406 -5.53457031 9.61382813 -6.22851562 10.31640625 C-9.67063689 13.77531835 -13.09285984 17.05636819 -17 20 C-17.66 19.67 -18.32 19.34 -19 19 C-12.73 12.73 -6.46 6.46 0 0 Z " fill="#1DCE46" transform="translate(671,646)"/>
<path d="M0 0 C0 4.93606539 -3.73395362 7.53727565 -7 11 C-7.76828125 11.82113281 -8.5365625 12.64226563 -9.328125 13.48828125 C-15.70365656 20.10658967 -15.70365656 20.10658967 -20 21 C-15.76183463 15.93376232 -11.32591037 11.19961931 -6.625 6.5625 C-5.98433594 5.92634766 -5.34367188 5.29019531 -4.68359375 4.63476562 C-3.12469121 3.08749668 -1.56348584 1.54263508 0 0 Z " fill="#1ECA45" transform="translate(751,565)"/>
<path d="M0 0 C0.33 0.99 0.66 1.98 1 3 C-0.11878383 4.17262904 -1.24523051 5.33795138 -2.375 6.5 C-3.00148438 7.1496875 -3.62796875 7.799375 -4.2734375 8.46875 C-6 10 -6 10 -8 10 C-8.23460937 10.56203125 -8.46921875 11.1240625 -8.7109375 11.703125 C-10.30663 14.54635891 -12.28924543 16.48098127 -14.625 18.75 C-15.44226563 19.54921875 -16.25953125 20.3484375 -17.1015625 21.171875 C-17.72804688 21.77515625 -18.35453125 22.3784375 -19 23 C-19.66 22.67 -20.32 22.34 -21 22 C-18.88370326 19.65864102 -16.75558371 17.32835941 -14.625 15 C-14.02171875 14.33226562 -13.4184375 13.66453125 -12.796875 12.9765625 C-12.21679688 12.34492187 -11.63671875 11.71328125 -11.0390625 11.0625 C-10.50490723 10.47597656 -9.97075195 9.88945313 -9.42041016 9.28515625 C-8 8 -8 8 -6 8 C-5.7525 7.4225 -5.505 6.845 -5.25 6.25 C-3.83316683 3.6997003 -2.12372463 1.98214299 0 0 Z " fill="#20DA4F" transform="translate(449,800)"/>
<path d="M0 0 C0.66 0 1.32 0 2 0 C2.39106321 5.21417611 1.27894574 9.35847748 -1 14 C-1.66 14.66 -2.32 15.32 -3 16 C-2.52013969 10.43109483 -1.70084819 5.32932432 0 0 Z " fill="#1ED248" transform="translate(433,942)"/>
<path d="M0 0 C0.33 0.99 0.66 1.98 1 3 C-0.07356677 4.15498897 -1.15929788 5.29867867 -2.25 6.4375 C-2.85328125 7.07558594 -3.4565625 7.71367188 -4.078125 8.37109375 C-6.10048016 10.08516306 -7.41270605 10.59358878 -10 11 C-9.34 10.01 -8.68 9.02 -8 8 C-7.34 8 -6.68 8 -6 8 C-5.7525 7.4225 -5.505 6.845 -5.25 6.25 C-3.83316683 3.6997003 -2.12372463 1.98214299 0 0 Z " fill="#1ACA47" transform="translate(449,800)"/>
<path d="M0 0 C0.66 0.33 1.32 0.66 2 1 C0.71937515 2.7074998 -0.61767557 4.37373596 -2 6 C-2.66 6 -3.32 6 -4 6 C-4.66 7.32 -5.32 8.64 -6 10 C-6.99 10 -7.98 10 -9 10 C-7.8758824 8.70756532 -6.75067408 7.41607925 -5.625 6.125 C-4.99851562 5.40570312 -4.37203125 4.68640625 -3.7265625 3.9453125 C-2.52573166 2.5923402 -1.2791655 1.2791655 0 0 Z " fill="#1FD44A" transform="translate(793,676)"/>
<path d="M0 0 C0.33 0.99 0.66 1.98 1 3 C-3.455 6.96 -3.455 6.96 -8 11 C-8.66 10.67 -9.32 10.34 -10 10 C-6.7 6.7 -3.4 3.4 0 0 Z " fill="#1CC742" transform="translate(704,361)"/>
<path d="M0 0 C0.66 0 1.32 0 2 0 C1.34 4.29 0.68 8.58 0 13 C-2 10 -2 10 -1.7578125 7.51953125 C-1.54898437 6.62621094 -1.34015625 5.73289062 -1.125 4.8125 C-0.92132813 3.91144531 -0.71765625 3.01039062 -0.5078125 2.08203125 C-0.34023438 1.39496094 -0.17265625 0.70789062 0 0 Z " fill="#14C943" transform="translate(373,1088)"/>
<path d="M0 0 C3.96 0 7.92 0 12 0 C12.66 1.65 13.32 3.3 14 5 C13.01 5 12.02 5 11 5 C10.67 4.01 10.34 3.02 10 2 C6.7 1.67 3.4 1.34 0 1 C0 0.67 0 0.34 0 0 Z " fill="#1AC944" transform="translate(379,1020)"/>
<path d="M0 0 C0.33 1.32 0.66 2.64 1 4 C-0.65 5.32 -2.3 6.64 -4 8 C-4.66 7.34 -5.32 6.68 -6 6 C-4.02 4.02 -2.04 2.04 0 0 Z " fill="#1CC443" transform="translate(313,730)"/>
<path d="M0 0 C0.66 0.66 1.32 1.32 2 2 C0.02 3.98 -1.96 5.96 -4 8 C-4.99 7.67 -5.98 7.34 -7 7 C-4.69 4.69 -2.38 2.38 0 0 Z " fill="#1ED14C" transform="translate(481,992)"/>
<path d="M0 0 C0.33 0.99 0.66 1.98 1 3 C-1.31 4.98 -3.62 6.96 -6 9 C-6.66 8.67 -7.32 8.34 -8 8 C-5.36 5.36 -2.72 2.72 0 0 Z " fill="#000F03" transform="translate(327,798)"/>
<path d="M0 0 C0.99 0.33 1.98 0.66 3 1 C1.02 2.98 -0.96 4.96 -3 7 C-3.99 6.67 -4.98 6.34 -6 6 C-4.02 4.02 -2.04 2.04 0 0 Z " fill="#1DCF46" transform="translate(801,514)"/>
<path d="M0 0 C0.99 0.66 1.98 1.32 3 2 C0.03 4.475 0.03 4.475 -3 7 C-2.38722388 4.03824877 -1.74627478 2.61941217 0 0 Z " fill="#1CD64A" transform="translate(678,387)"/>
<path d="M0 0 C0.66 0.33 1.32 0.66 2 1 C0.1875 3 0.1875 3 -2 5 C-2.99 5 -3.98 5 -5 5 C-5.33 5.99 -5.66 6.98 -6 8 C-6.99 7.34 -7.98 6.68 -9 6 C-6.03 4.02 -3.06 2.04 0 0 Z " fill="#21CB45" transform="translate(291,121)"/>
<path d="M0 0 C7.42857143 -0.28571429 7.42857143 -0.28571429 11 2 C6.58937864 3.0257259 4.07369424 3.03684712 0 1 C0 0.67 0 0.34 0 0 Z " fill="#22D249" transform="translate(330,856)"/>
<path d="M0 0 C0.99 0 1.98 0 3 0 C2.42415568 2.38564077 1.77772405 4.66682784 1 7 C0.34 7 -0.32 7 -1 7 C-1.33 7.99 -1.66 8.98 -2 10 C-2 8.68 -2 7.36 -2 6 C-1.34 6 -0.68 6 0 6 C0 4.02 0 2.04 0 0 Z " fill="#19CD43" transform="translate(961,810)"/>
<path d="M0 0 C0.66 0 1.32 0 2 0 C1.46930939 3.82097239 0.50298434 6.06171403 -2 9 C-1.125 2.25 -1.125 2.25 0 0 Z " fill="#1BCD4C" transform="translate(558,1051)"/>
<path d="M0 0 C0.66 0.33 1.32 0.66 2 1 C1.34 2.98 0.68 4.96 0 7 C-0.66 7 -1.32 7 -2 7 C-1.125 1.125 -1.125 1.125 0 0 Z " fill="#1DD34D" transform="translate(495,620)"/>
</svg>
